<svg id="svg" version="1.1" xmlns="http://www.w3.org/2000/svg" xmlns:xlink="http://www.w3.org/1999/xlink" width="400" height="395.93908629441626" viewBox="0, 0, 400,395.93908629441626"><g id="svgg"><path id="path0" d="M0.000 80.594 C 0.000 153.311,0.139 165.411,0.908 159.505 C 1.169 157.499,1.943 154.101,3.366 148.713 C 3.941 146.535,4.549 144.218,4.717 143.564 C 4.885 142.911,5.231 141.752,5.485 140.990 C 5.738 140.228,6.290 138.535,6.711 137.228 C 7.649 134.314,10.166 127.220,10.645 126.139 C 10.839 125.703,11.495 124.099,12.105 122.574 C 15.587 113.865,21.957 101.357,26.438 94.432 C 26.712 94.009,27.053 93.396,27.196 93.069 C 27.339 92.743,27.828 91.944,28.282 91.295 C 28.737 90.646,29.287 89.801,29.505 89.417 C 30.310 87.997,36.101 79.635,37.532 77.828 C 41.067 73.361,45.013 68.524,47.069 66.139 C 49.965 62.779,62.838 49.919,66.139 47.089 C 71.895 42.153,77.346 37.771,79.143 36.634 C 79.487 36.416,80.015 36.011,80.317 35.734 C 80.888 35.210,88.216 30.198,89.425 29.505 C 89.805 29.287,90.674 28.708,91.356 28.218 C 92.039 27.728,92.716 27.327,92.860 27.327 C 93.004 27.327,93.706 26.881,94.420 26.337 C 95.134 25.792,95.839 25.347,95.986 25.347 C 96.133 25.347,96.918 24.929,97.731 24.419 C 103.019 21.098,115.277 15.022,122.574 12.105 C 124.099 11.495,125.703 10.839,126.139 10.645 C 127.218 10.167,134.307 7.651,137.228 6.711 C 138.535 6.290,140.406 5.681,141.386 5.357 C 145.551 3.984,156.465 1.304,159.505 0.908 C 165.411 0.139,153.311 0.000,80.594 0.000 L 0.000 0.000 0.000 80.594 M238.977 0.343 C 239.093 0.531,239.861 0.787,240.683 0.911 C 243.935 1.402,257.444 4.755,259.208 5.509 C 259.644 5.695,261.515 6.322,263.366 6.903 C 265.218 7.484,267.356 8.203,268.119 8.501 C 268.881 8.799,271.287 9.705,273.465 10.514 C 275.644 11.323,278.406 12.422,279.604 12.957 C 280.802 13.492,282.406 14.204,283.168 14.539 C 285.202 15.433,295.385 20.483,297.228 21.512 C 298.099 21.999,300.059 23.093,301.584 23.945 C 305.487 26.125,309.481 28.630,309.637 28.997 C 309.710 29.167,309.921 29.307,310.107 29.307 C 310.619 29.307,322.017 37.125,322.772 37.994 C 322.881 38.120,323.683 38.744,324.554 39.381 C 325.426 40.018,326.779 41.086,327.562 41.754 C 328.344 42.423,329.414 43.312,329.938 43.731 C 330.734 44.366,334.887 47.904,336.482 49.307 C 339.901 52.313,349.114 61.748,353.070 66.294 C 354.377 67.796,355.626 69.222,355.847 69.463 C 356.068 69.704,357.374 71.327,358.748 73.069 C 360.123 74.812,361.504 76.554,361.817 76.941 C 362.130 77.328,363.630 79.377,365.150 81.495 C 366.669 83.614,368.048 85.534,368.214 85.764 C 368.379 85.994,368.729 86.529,368.992 86.952 C 369.254 87.376,370.870 89.950,372.582 92.673 C 374.295 95.396,375.823 97.891,375.978 98.218 C 376.134 98.545,376.969 100.059,377.835 101.584 C 379.387 104.317,385.083 115.716,386.245 118.416 C 389.503 125.982,394.026 138.576,395.563 144.356 C 395.795 145.228,396.273 147.010,396.625 148.317 C 398.014 153.470,399.215 158.840,399.211 159.878 C 399.209 160.355,399.386 160.855,399.604 160.990 C 399.867 161.153,400.000 134.262,400.000 80.617 L 400.000 0.000 319.383 0.000 C 274.122 0.000,238.858 0.150,238.977 0.343 M76.278 114.709 C 67.923 117.722,65.857 128.302,72.509 133.997 C 83.314 143.245,97.664 127.624,87.550 117.624 C 84.215 114.327,80.209 113.291,76.278 114.709 M292.515 114.709 C 284.161 117.722,282.094 128.302,288.747 133.997 C 299.552 143.245,313.902 127.624,303.787 117.624 C 300.452 114.327,296.447 113.291,292.515 114.709 M0.000 317.402 L 0.000 396.040 72.103 396.040 C 120.070 396.040,144.123 395.907,143.960 395.644 C 143.826 395.426,143.494 395.248,143.223 395.248 C 141.847 395.248,126.276 389.816,123.867 388.496 C 123.489 388.288,123.003 388.119,122.788 388.119 C 122.445 388.119,120.904 387.473,116.634 385.541 C 114.283 384.477,104.311 379.509,102.178 378.339 C 80.415 366.401,58.617 348.419,43.942 330.297 C 42.972 329.099,42.085 328.030,41.971 327.921 C 41.052 327.044,31.601 314.297,31.253 313.465 C 31.162 313.248,30.092 311.554,28.875 309.703 C 23.873 302.091,16.869 288.835,12.659 279.010 C 12.259 278.078,10.280 273.044,9.311 270.495 C 7.762 266.423,4.593 256.390,3.556 252.277 C 3.363 251.515,2.945 249.911,2.627 248.713 C 1.702 245.232,0.792 240.945,0.792 240.066 C 0.792 239.620,0.614 239.145,0.396 239.010 C 0.133 238.847,0.000 265.078,0.000 317.402 M399.532 239.208 C 399.384 239.535,399.182 240.426,399.083 241.188 C 398.874 242.811,398.091 246.165,396.634 251.683 C 396.059 253.861,395.451 256.178,395.283 256.832 C 395.115 257.485,394.743 258.733,394.458 259.604 C 394.172 260.475,393.679 261.990,393.363 262.970 C 393.046 263.950,392.647 265.109,392.475 265.545 C 392.304 265.980,391.863 267.228,391.496 268.317 C 391.130 269.406,390.687 270.653,390.512 271.089 C 390.337 271.525,389.884 272.683,389.505 273.663 C 387.835 277.984,386.916 280.151,384.549 285.347 C 381.873 291.221,377.395 299.797,375.186 303.275 C 374.458 304.423,373.861 305.434,373.861 305.523 C 373.861 305.939,367.189 315.880,363.386 321.130 C 349.795 339.894,325.180 362.580,307.246 372.871 C 306.866 373.089,305.091 374.136,303.301 375.198 C 301.510 376.260,299.411 377.489,298.637 377.930 C 297.187 378.754,285.486 384.590,283.366 385.546 C 281.273 386.490,278.674 387.600,276.436 388.507 C 275.238 388.992,273.901 389.534,273.465 389.712 C 271.448 390.536,266.679 392.188,261.980 393.691 C 259.149 394.597,256.564 395.451,256.238 395.590 C 255.911 395.728,288.064 395.887,327.689 395.942 C 367.314 395.997,399.794 395.981,399.868 395.908 C 399.942 395.834,399.957 360.413,399.902 317.194 C 399.847 273.975,399.681 238.881,399.532 239.208 " stroke="none" fill="#ecf3f3" fill-rule="evenodd"></path><path id="path1" d="M77.876 94.261 C 64.620 97.792,57.857 107.785,57.832 123.882 C 57.819 132.195,58.277 134.469,61.245 140.834 C 62.704 143.964,68.313 149.573,71.443 151.032 C 75.232 152.799,76.502 153.264,79.088 153.831 C 92.871 156.851,107.085 147.514,110.091 133.465 C 110.636 130.917,110.441 115.575,109.831 113.056 C 107.987 105.437,101.605 98.477,93.267 94.992 C 89.484 93.411,82.341 93.072,77.876 94.261 M294.114 94.261 C 280.888 97.784,274.095 107.823,274.070 123.882 C 274.056 132.195,274.514 134.469,277.482 140.834 C 278.942 143.964,284.551 149.573,287.681 151.032 C 291.469 152.799,292.740 153.264,295.326 153.831 C 308.798 156.783,322.861 147.860,326.174 134.257 C 326.906 131.253,326.901 116.666,326.168 113.597 C 324.205 105.388,318.118 98.592,309.505 94.992 C 305.721 93.411,298.579 93.072,294.114 94.261 M84.444 114.599 C 92.426 118.170,94.042 128.521,87.532 134.374 C 78.610 142.395,64.714 133.129,68.463 121.658 C 70.591 115.146,78.177 111.795,84.444 114.599 M300.791 114.636 C 308.650 118.112,310.234 128.562,303.780 134.364 C 292.920 144.129,277.499 128.713,287.044 117.633 C 290.416 113.718,295.974 112.506,300.791 114.636 M120.594 251.081 C 104.956 253.426,93.413 263.648,89.443 278.667 C 88.302 282.984,88.060 299.696,89.066 304.752 C 92.855 323.800,107.494 338.262,126.337 341.572 C 131.375 342.457,263.437 342.462,268.515 341.577 C 296.202 336.753,313.881 306.853,304.103 281.386 C 298.029 265.564,286.042 255.262,269.436 251.590 C 266.127 250.858,125.289 250.376,120.594 251.081 " stroke="none" fill="#4c2404" fill-rule="evenodd"></path><path id="path2" d="M163.648 0.609 C 163.367 0.928,162.549 1.188,161.830 1.188 C 161.110 1.188,159.647 1.454,158.578 1.778 C 157.509 2.102,156.065 2.370,155.370 2.372 C 154.675 2.374,153.996 2.554,153.861 2.772 C 153.727 2.990,153.087 3.168,152.439 3.168 C 151.792 3.168,150.622 3.436,149.840 3.762 C 149.058 4.089,147.992 4.356,147.471 4.356 C 146.950 4.356,146.214 4.524,145.836 4.729 C 145.458 4.934,144.079 5.401,142.772 5.765 C 139.594 6.653,136.983 7.515,136.144 7.956 C 135.766 8.154,135.053 8.322,134.560 8.329 C 134.067 8.336,133.317 8.604,132.895 8.923 C 132.472 9.243,131.801 9.505,131.404 9.505 C 131.007 9.505,130.373 9.665,129.995 9.860 C 129.616 10.056,128.505 10.526,127.525 10.904 C 125.586 11.653,123.535 12.484,121.980 13.152 C 121.436 13.385,120.455 13.801,119.802 14.075 C 113.979 16.518,103.369 21.845,98.812 24.615 C 98.158 25.012,97.267 25.503,96.832 25.706 C 96.396 25.909,94.810 26.891,93.308 27.889 C 91.805 28.887,90.485 29.703,90.375 29.703 C 90.264 29.703,89.590 30.149,88.876 30.693 C 88.162 31.238,87.483 31.683,87.367 31.683 C 87.160 31.683,79.224 37.357,77.168 38.976 C 76.590 39.430,75.534 40.248,74.821 40.792 C 74.107 41.337,73.332 41.960,73.098 42.178 C 72.864 42.396,71.830 43.251,70.801 44.078 C 69.772 44.905,68.703 45.797,68.426 46.060 C 68.148 46.323,66.673 47.607,65.149 48.913 C 61.563 51.983,51.962 61.587,48.917 65.149 C 47.613 66.673,46.454 68.010,46.342 68.119 C 46.001 68.449,43.848 71.022,42.376 72.857 C 41.614 73.808,40.806 74.779,40.580 75.016 C 39.842 75.790,31.683 87.148,31.683 87.401 C 31.683 87.537,31.238 88.232,30.693 88.946 C 30.149 89.660,29.703 90.319,29.703 90.410 C 29.703 90.501,28.887 91.805,27.889 93.308 C 26.891 94.810,25.909 96.396,25.706 96.832 C 25.503 97.267,25.012 98.158,24.615 98.812 C 21.408 104.089,16.059 114.934,12.895 122.574 C 12.534 123.446,12.069 124.468,11.862 124.846 C 11.655 125.224,11.485 125.789,11.485 126.101 C 11.485 126.413,11.188 127.262,10.824 127.988 C 9.605 130.421,9.505 130.679,9.505 131.404 C 9.505 131.801,9.243 132.472,8.923 132.895 C 8.604 133.317,8.336 134.118,8.329 134.673 C 8.322 135.229,8.175 135.852,8.002 136.059 C 7.829 136.266,7.362 137.505,6.965 138.812 C 6.568 140.119,6.100 141.634,5.926 142.178 C 5.751 142.723,5.316 144.238,4.960 145.545 C 4.604 146.851,4.054 148.723,3.738 149.703 C 3.423 150.683,3.165 151.965,3.166 152.551 C 3.167 153.137,2.990 153.727,2.772 153.861 C 2.554 153.996,2.374 154.675,2.372 155.370 C 2.370 156.065,2.102 157.509,1.778 158.578 C 1.454 159.647,1.188 161.105,1.188 161.817 C 1.188 162.529,0.921 163.379,0.594 163.706 C -0.306 164.606,-0.306 235.394,0.594 236.294 C 0.921 236.621,1.188 237.566,1.188 238.394 C 1.188 239.223,1.455 240.658,1.782 241.584 C 2.109 242.510,2.376 243.859,2.376 244.581 C 2.376 245.303,2.554 246.004,2.772 246.139 C 2.990 246.273,3.175 247.041,3.182 247.845 C 3.190 248.649,3.451 249.752,3.762 250.297 C 4.074 250.842,4.335 251.780,4.342 252.382 C 4.350 252.984,4.510 253.786,4.697 254.164 C 5.229 255.239,6.337 258.853,6.337 259.513 C 6.337 259.840,6.603 260.618,6.928 261.242 C 7.254 261.866,7.521 262.767,7.522 263.244 C 7.524 263.721,7.703 264.222,7.921 264.356 C 8.139 264.491,8.317 264.941,8.317 265.356 C 8.317 265.772,8.609 266.786,8.966 267.610 C 9.323 268.435,9.744 269.465,9.901 269.901 C 10.058 270.337,10.479 271.367,10.836 272.192 C 11.193 273.016,11.485 273.918,11.485 274.197 C 11.485 274.475,11.931 275.627,12.475 276.756 C 13.020 277.884,13.465 278.928,13.465 279.076 C 13.465 279.223,13.982 280.427,14.615 281.751 C 17.866 288.563,18.614 290.218,18.614 290.603 C 18.614 290.834,18.765 291.083,18.950 291.155 C 19.135 291.228,19.859 292.446,20.559 293.861 C 22.236 297.252,23.904 300.347,24.187 300.594 C 24.312 300.703,24.529 301.059,24.670 301.386 C 24.810 301.713,25.467 302.871,26.130 303.960 C 26.792 305.050,27.442 306.252,27.575 306.634 C 27.707 307.015,27.932 307.327,28.075 307.327 C 28.218 307.327,28.687 307.995,29.117 308.812 C 29.547 309.629,30.123 310.534,30.398 310.823 C 30.672 311.112,31.102 311.736,31.352 312.209 C 31.603 312.682,32.761 314.360,33.924 315.937 C 35.088 317.514,36.040 318.984,36.040 319.204 C 36.040 319.424,36.218 319.604,36.436 319.604 C 36.653 319.604,36.832 319.856,36.832 320.165 C 36.832 320.474,36.965 320.785,37.129 320.858 C 37.292 320.931,38.748 322.683,40.364 324.752 C 41.981 326.822,43.451 328.574,43.632 328.647 C 43.812 328.719,43.960 328.956,43.960 329.172 C 43.960 329.389,44.491 330.097,45.140 330.745 C 45.789 331.394,46.989 332.762,47.807 333.784 C 51.459 338.350,69.015 355.190,72.587 357.554 C 73.070 357.874,73.644 358.342,73.861 358.595 C 74.079 358.848,75.327 359.834,76.634 360.787 C 77.941 361.739,79.099 362.620,79.208 362.745 C 79.317 362.869,80.341 363.594,81.484 364.356 C 82.628 365.119,83.563 365.876,83.564 366.040 C 83.564 366.203,83.722 366.337,83.915 366.337 C 84.238 366.337,89.053 369.392,89.505 369.883 C 89.775 370.178,91.156 371.035,91.881 371.360 C 92.208 371.506,92.564 371.746,92.673 371.892 C 92.945 372.258,96.275 374.213,97.129 374.507 C 97.510 374.638,97.822 374.903,97.822 375.096 C 97.822 375.288,98.067 375.446,98.367 375.446 C 98.667 375.446,99.135 375.713,99.406 376.040 C 99.677 376.366,100.219 376.634,100.610 376.634 C 101.000 376.634,101.380 376.767,101.452 376.931 C 101.714 377.520,114.926 384.131,120.000 386.212 C 122.002 387.033,123.390 387.623,124.356 388.062 C 125.883 388.756,130.784 390.548,131.788 390.779 C 132.281 390.893,132.782 391.143,132.901 391.334 C 133.019 391.526,133.456 391.683,133.871 391.683 C 134.287 391.683,135.212 391.935,135.927 392.242 C 137.233 392.804,143.015 394.564,145.050 395.019 C 145.649 395.153,146.139 395.437,146.139 395.651 C 146.139 395.903,165.054 396.040,200.000 396.040 C 234.946 396.040,253.861 395.903,253.861 395.651 C 253.861 395.437,254.351 395.161,254.950 395.037 C 256.687 394.678,260.333 393.597,261.084 393.218 C 261.462 393.027,262.175 392.866,262.668 392.859 C 263.161 392.852,263.910 392.584,264.333 392.265 C 264.756 391.945,265.503 391.683,265.993 391.683 C 266.483 391.683,266.981 391.526,267.099 391.334 C 267.218 391.143,267.719 390.893,268.212 390.779 C 269.129 390.568,274.018 388.796,275.446 388.158 C 275.881 387.963,276.950 387.506,277.822 387.142 C 280.481 386.032,280.882 385.856,284.158 384.349 C 288.866 382.183,294.824 379.250,295.050 378.986 C 295.158 378.858,296.406 378.180,297.822 377.478 C 300.424 376.188,301.816 375.411,302.178 375.050 C 302.473 374.755,303.875 373.894,304.554 373.591 C 305.692 373.084,310.298 370.123,310.429 369.815 C 310.502 369.644,310.732 369.505,310.941 369.505 C 311.150 369.505,312.286 368.792,313.465 367.921 C 314.645 367.050,315.781 366.337,315.990 366.337 C 316.199 366.337,316.429 366.193,316.502 366.017 C 316.574 365.841,317.525 365.095,318.614 364.360 C 319.703 363.624,320.683 362.909,320.792 362.771 C 320.901 362.632,322.059 361.742,323.366 360.792 C 324.673 359.842,325.832 358.959,325.941 358.829 C 326.050 358.700,326.941 357.978,327.921 357.226 C 328.901 356.473,330.505 355.118,331.485 354.214 C 332.465 353.310,334.466 351.561,335.930 350.328 C 337.395 349.096,341.137 345.490,344.247 342.315 C 350.468 335.965,350.230 336.218,351.828 334.257 C 352.450 333.495,353.610 332.158,354.406 331.287 C 355.203 330.416,356.470 328.901,357.224 327.921 C 357.977 326.941,358.700 326.050,358.829 325.941 C 358.959 325.832,359.847 324.673,360.802 323.366 C 361.758 322.059,362.859 320.645,363.250 320.222 C 363.641 319.800,363.960 319.323,363.960 319.162 C 363.960 319.000,364.190 318.633,364.470 318.345 C 364.751 318.057,365.363 317.198,365.830 316.436 C 366.298 315.673,367.004 314.693,367.399 314.257 C 367.795 313.822,368.471 312.797,368.902 311.980 C 369.333 311.163,369.823 310.495,369.991 310.495 C 370.159 310.495,370.297 310.250,370.297 309.949 C 370.297 309.649,370.548 309.196,370.855 308.941 C 371.161 308.687,371.701 307.907,372.054 307.210 C 372.771 305.791,373.295 304.911,374.455 303.176 C 375.345 301.845,375.423 301.707,377.908 297.030 C 380.707 291.762,381.579 290.015,383.743 285.347 C 384.853 282.950,385.936 280.681,386.148 280.302 C 386.361 279.924,386.535 279.433,386.535 279.211 C 386.535 278.990,386.980 277.884,387.525 276.756 C 388.069 275.627,388.515 274.391,388.515 274.009 C 388.515 273.627,388.679 273.213,388.879 273.089 C 389.079 272.965,389.628 271.620,390.099 270.099 C 390.570 268.578,391.119 267.233,391.319 267.109 C 391.519 266.985,391.683 266.390,391.683 265.785 C 391.683 265.181,391.798 264.571,391.939 264.430 C 392.350 264.020,393.636 260.078,393.650 259.188 C 393.658 258.742,393.831 258.207,394.037 258.000 C 394.401 257.633,394.926 255.807,395.662 252.350 C 395.862 251.409,396.152 250.436,396.306 250.186 C 396.461 249.936,396.723 249.013,396.890 248.133 C 397.057 247.254,397.364 245.644,397.573 244.554 C 397.781 243.465,398.145 242.073,398.382 241.459 C 398.618 240.846,398.812 239.677,398.812 238.862 C 398.812 238.046,399.074 237.033,399.393 236.610 C 400.170 235.584,400.308 164.129,399.534 163.871 C 399.278 163.786,398.942 162.746,398.787 161.561 C 398.392 158.532,397.600 154.779,397.184 153.966 C 396.990 153.588,396.825 152.696,396.818 151.986 C 396.810 151.275,396.549 150.248,396.238 149.703 C 395.926 149.158,395.665 148.144,395.658 147.449 C 395.650 146.754,395.465 146.075,395.248 145.941 C 395.030 145.806,394.845 145.216,394.837 144.630 C 394.830 144.044,394.569 143.119,394.257 142.574 C 393.946 142.030,393.685 141.130,393.677 140.574 C 393.670 140.019,393.522 139.395,393.349 139.188 C 393.176 138.981,392.707 137.743,392.306 136.436 C 391.906 135.129,391.335 133.498,391.037 132.811 C 390.739 132.125,390.495 131.365,390.495 131.123 C 390.495 130.881,390.335 130.373,390.140 129.995 C 389.828 129.391,389.057 127.460,388.126 124.950 C 387.965 124.515,387.541 123.484,387.184 122.660 C 386.827 121.836,386.535 120.900,386.535 120.581 C 386.535 120.261,386.356 120.000,386.139 120.000 C 385.921 120.000,385.743 119.804,385.743 119.565 C 385.743 118.829,379.408 105.677,377.464 102.376 C 377.079 101.723,376.171 100.119,375.446 98.812 C 374.720 97.505,373.797 95.901,373.395 95.248 C 372.992 94.594,372.555 93.748,372.424 93.366 C 372.292 92.985,372.055 92.673,371.897 92.673 C 371.739 92.673,371.270 92.005,370.854 91.188 C 370.439 90.371,370.003 89.614,369.886 89.505 C 369.768 89.396,368.899 88.149,367.954 86.733 C 367.009 85.317,365.511 83.178,364.626 81.980 C 363.740 80.782,362.293 78.822,361.410 77.624 C 360.527 76.426,359.712 75.356,359.599 75.248 C 359.486 75.139,358.506 73.925,357.420 72.550 C 356.334 71.176,355.089 69.651,354.653 69.162 C 354.218 68.672,352.794 67.035,351.490 65.522 C 348.298 61.821,338.225 51.650,335.917 49.796 C 334.895 48.975,333.139 47.460,332.015 46.429 C 329.752 44.354,329.312 43.984,326.731 41.990 C 325.752 41.234,324.861 40.513,324.752 40.388 C 324.435 40.025,313.110 31.832,312.673 31.649 C 312.455 31.558,310.673 30.419,308.713 29.119 C 306.752 27.818,304.754 26.540,304.273 26.280 C 302.077 25.091,300.776 24.341,300.594 24.158 C 300.400 23.964,298.403 22.898,293.663 20.458 C 292.356 19.786,291.228 19.095,291.155 18.924 C 291.083 18.754,290.818 18.614,290.567 18.614 C 290.316 18.614,289.217 18.186,288.124 17.662 C 287.032 17.139,284.617 15.980,282.757 15.088 C 280.898 14.195,279.082 13.465,278.721 13.465 C 278.361 13.465,277.965 13.301,277.841 13.100 C 277.716 12.899,277.082 12.617,276.431 12.474 C 275.780 12.331,275.248 12.050,275.248 11.850 C 275.248 11.649,274.897 11.485,274.469 11.485 C 273.767 11.485,271.842 10.781,270.005 9.853 C 269.627 9.661,269.062 9.505,268.750 9.505 C 268.438 9.505,267.678 9.249,267.062 8.935 C 266.445 8.622,264.871 8.064,263.564 7.696 C 262.257 7.328,261.019 6.872,260.812 6.682 C 260.605 6.492,260.104 6.337,259.698 6.337 C 258.849 6.337,255.182 5.268,254.164 4.724 C 253.786 4.522,253.050 4.356,252.529 4.356 C 252.008 4.356,250.942 4.089,250.160 3.762 C 249.378 3.436,248.208 3.168,247.561 3.168 C 246.913 3.168,246.273 2.990,246.139 2.772 C 246.004 2.554,245.303 2.376,244.581 2.376 C 243.859 2.376,242.510 2.109,241.584 1.782 C 240.658 1.455,239.223 1.188,238.394 1.188 C 237.566 1.188,236.621 0.921,236.294 0.594 C 235.408 -0.292,164.430 -0.278,163.648 0.609 M89.901 94.069 C 99.393 96.252,107.673 104.141,109.831 113.056 C 110.441 115.575,110.636 130.917,110.091 133.465 C 107.085 147.514,92.871 156.851,79.088 153.831 C 76.502 153.264,75.232 152.799,71.443 151.032 C 68.313 149.573,62.704 143.964,61.245 140.834 C 58.277 134.469,57.819 132.195,57.832 123.882 C 57.848 113.969,59.364 108.785,63.867 103.257 C 70.137 95.559,80.492 91.905,89.901 94.069 M306.139 94.069 C 308.999 94.727,309.361 94.860,312.475 96.401 C 319.000 99.629,324.471 106.499,326.168 113.597 C 326.901 116.666,326.906 131.253,326.174 134.257 C 322.861 147.860,308.798 156.783,295.326 153.831 C 292.740 153.264,291.469 152.799,287.681 151.032 C 284.551 149.573,278.942 143.964,277.482 140.834 C 274.514 134.469,274.056 132.195,274.070 123.882 C 274.102 103.190,288.321 89.971,306.139 94.069 M269.436 251.590 C 286.042 255.262,298.029 265.564,304.103 281.386 C 313.881 306.853,296.202 336.753,268.515 341.577 C 263.437 342.462,131.375 342.457,126.337 341.572 C 107.494 338.262,92.855 323.800,89.066 304.752 C 88.060 299.696,88.302 282.984,89.443 278.667 C 93.413 263.648,104.956 253.426,120.594 251.081 C 125.289 250.376,266.127 250.858,269.436 251.590 " stroke="none" fill="#fbbb04" fill-rule="evenodd"></path><path id="path3" d="M161.188 0.345 C 161.188 0.534,160.431 0.788,159.505 0.908 C 156.465 1.304,145.551 3.984,141.386 5.357 C 140.406 5.681,138.535 6.290,137.228 6.711 C 134.307 7.651,127.218 10.167,126.139 10.645 C 125.703 10.839,124.099 11.495,122.574 12.105 C 115.277 15.022,103.019 21.098,97.731 24.419 C 96.918 24.929,96.133 25.347,95.986 25.347 C 95.839 25.347,95.134 25.792,94.420 26.337 C 93.706 26.881,93.004 27.327,92.860 27.327 C 92.716 27.327,92.039 27.728,91.356 28.218 C 90.674 28.708,89.805 29.287,89.425 29.505 C 88.216 30.198,80.888 35.210,80.317 35.734 C 80.015 36.011,79.487 36.416,79.143 36.634 C 78.092 37.299,74.006 40.473,71.287 42.738 C 58.751 53.178,49.097 63.214,37.532 77.828 C 36.101 79.635,30.310 87.997,29.505 89.417 C 29.287 89.801,28.752 90.647,28.317 91.297 C 27.111 93.095,26.556 94.001,26.259 94.653 C 26.110 94.980,25.425 96.139,24.737 97.228 C 21.226 102.781,15.118 115.037,12.105 122.574 C 11.495 124.099,10.839 125.703,10.645 126.139 C 10.166 127.220,7.649 134.314,6.711 137.228 C 6.290 138.535,5.738 140.228,5.485 140.990 C 5.231 141.752,4.885 142.911,4.717 143.564 C 4.549 144.218,3.941 146.535,3.366 148.713 C 1.943 154.101,1.169 157.499,0.908 159.505 C 0.788 160.431,0.534 161.188,0.345 161.188 C 0.155 161.188,0.000 161.812,0.000 162.574 C 0.000 164.110,0.684 164.470,0.940 163.069 C 1.029 162.579,1.322 161.109,1.591 159.802 C 1.860 158.495,2.165 156.713,2.269 155.842 C 2.372 154.970,2.617 154.088,2.813 153.881 C 3.008 153.674,3.167 153.050,3.166 152.495 C 3.165 151.940,3.423 150.683,3.738 149.703 C 4.054 148.723,4.604 146.851,4.960 145.545 C 5.316 144.238,5.751 142.723,5.926 142.178 C 6.100 141.634,6.568 140.119,6.965 138.812 C 7.362 137.505,7.829 136.266,8.002 136.059 C 8.175 135.852,8.322 135.229,8.329 134.673 C 8.336 134.118,8.604 133.317,8.923 132.895 C 9.243 132.472,9.505 131.801,9.505 131.404 C 9.505 130.679,9.605 130.421,10.824 127.988 C 11.188 127.262,11.485 126.413,11.485 126.101 C 11.485 125.789,11.655 125.224,11.862 124.846 C 12.069 124.468,12.534 123.446,12.895 122.574 C 16.059 114.934,21.408 104.089,24.615 98.812 C 25.012 98.158,25.503 97.267,25.706 96.832 C 25.909 96.396,26.891 94.810,27.889 93.308 C 28.887 91.805,29.703 90.501,29.703 90.410 C 29.703 90.319,30.149 89.660,30.693 88.946 C 31.238 88.232,31.683 87.537,31.683 87.401 C 31.683 87.148,39.842 75.790,40.580 75.016 C 40.806 74.779,41.614 73.808,42.376 72.857 C 43.848 71.022,46.001 68.449,46.342 68.119 C 46.454 68.010,47.613 66.673,48.917 65.149 C 51.962 61.587,61.563 51.983,65.149 48.913 C 66.673 47.607,68.148 46.323,68.426 46.060 C 68.703 45.797,69.772 44.905,70.801 44.078 C 71.830 43.251,72.864 42.396,73.098 42.178 C 73.332 41.960,74.107 41.337,74.821 40.792 C 75.534 40.248,76.590 39.430,77.168 38.976 C 79.224 37.357,87.160 31.683,87.367 31.683 C 87.483 31.683,88.162 31.238,88.876 30.693 C 89.590 30.149,90.264 29.703,90.375 29.703 C 90.485 29.703,91.805 28.887,93.308 27.889 C 94.810 26.891,96.396 25.909,96.832 25.706 C 97.267 25.503,98.158 25.012,98.812 24.615 C 103.369 21.845,113.979 16.518,119.802 14.075 C 120.455 13.801,121.436 13.385,121.980 13.152 C 123.535 12.484,125.586 11.653,127.525 10.904 C 128.505 10.526,129.616 10.056,129.995 9.860 C 130.373 9.665,131.007 9.505,131.404 9.505 C 131.801 9.505,132.472 9.243,132.895 8.923 C 133.317 8.604,134.067 8.336,134.560 8.329 C 135.053 8.322,135.766 8.154,136.144 7.956 C 136.983 7.515,139.594 6.653,142.772 5.765 C 144.079 5.401,145.458 4.934,145.836 4.729 C 146.214 4.524,146.950 4.356,147.471 4.356 C 147.992 4.356,149.058 4.089,149.840 3.762 C 150.622 3.436,151.766 3.168,152.383 3.168 C 153.000 3.168,153.674 3.008,153.881 2.813 C 154.088 2.617,154.970 2.372,155.842 2.269 C 156.713 2.165,158.495 1.860,159.802 1.591 C 161.109 1.322,162.579 1.029,163.069 0.940 C 164.470 0.684,164.110 0.000,162.574 0.000 C 161.812 0.000,161.188 0.155,161.188 0.345 M236.040 0.354 C 236.040 0.852,237.069 1.188,238.596 1.188 C 239.314 1.188,240.658 1.455,241.584 1.782 C 242.510 2.109,243.859 2.376,244.581 2.376 C 245.303 2.376,246.004 2.554,246.139 2.772 C 246.273 2.990,246.913 3.168,247.561 3.168 C 248.208 3.168,249.378 3.436,250.160 3.762 C 250.942 4.089,252.008 4.356,252.529 4.356 C 253.050 4.356,253.786 4.522,254.164 4.724 C 255.182 5.268,258.849 6.337,259.698 6.337 C 260.104 6.337,260.605 6.492,260.812 6.682 C 261.019 6.872,262.257 7.328,263.564 7.696 C 264.871 8.064,266.445 8.622,267.062 8.935 C 267.678 9.249,268.438 9.505,268.750 9.505 C 269.062 9.505,269.627 9.661,270.005 9.853 C 271.842 10.781,273.767 11.485,274.469 11.485 C 274.897 11.485,275.248 11.649,275.248 11.850 C 275.248 12.050,275.780 12.331,276.431 12.474 C 277.082 12.617,277.716 12.899,277.841 13.100 C 277.965 13.301,278.361 13.465,278.721 13.465 C 279.082 13.465,280.898 14.195,282.757 15.088 C 284.617 15.980,287.032 17.139,288.124 17.662 C 289.217 18.186,290.316 18.614,290.567 18.614 C 290.818 18.614,291.083 18.754,291.155 18.924 C 291.228 19.095,292.356 19.786,293.663 20.458 C 298.403 22.898,300.400 23.964,300.594 24.158 C 300.776 24.341,302.077 25.091,304.273 26.280 C 304.754 26.540,306.752 27.818,308.713 29.119 C 310.673 30.419,312.455 31.558,312.673 31.649 C 313.110 31.832,324.435 40.025,324.752 40.388 C 324.861 40.513,325.752 41.234,326.731 41.990 C 329.312 43.984,329.752 44.354,332.015 46.429 C 333.139 47.460,334.895 48.975,335.917 49.796 C 338.225 51.650,348.298 61.821,351.490 65.522 C 352.794 67.035,354.218 68.672,354.653 69.162 C 355.089 69.651,356.334 71.176,357.420 72.550 C 358.506 73.925,359.486 75.139,359.599 75.248 C 359.712 75.356,360.527 76.426,361.410 77.624 C 362.293 78.822,363.740 80.782,364.626 81.980 C 365.511 83.178,367.009 85.317,367.954 86.733 C 368.899 88.149,369.768 89.396,369.886 89.505 C 370.003 89.614,370.439 90.371,370.854 91.188 C 371.270 92.005,371.739 92.673,371.897 92.673 C 372.055 92.673,372.292 92.985,372.424 93.366 C 372.555 93.748,372.992 94.594,373.395 95.248 C 373.797 95.901,374.720 97.505,375.446 98.812 C 376.171 100.119,377.079 101.723,377.464 102.376 C 379.408 105.677,385.743 118.829,385.743 119.565 C 385.743 119.804,385.921 120.000,386.139 120.000 C 386.356 120.000,386.535 120.261,386.535 120.581 C 386.535 120.900,386.827 121.836,387.184 122.660 C 387.541 123.484,387.965 124.515,388.126 124.950 C 389.057 127.460,389.828 129.391,390.140 129.995 C 390.335 130.373,390.495 130.881,390.495 131.123 C 390.495 131.365,390.739 132.125,391.037 132.811 C 391.335 133.498,391.906 135.129,392.306 136.436 C 392.707 137.743,393.176 138.981,393.349 139.188 C 393.522 139.395,393.670 140.019,393.677 140.574 C 393.685 141.130,393.946 142.030,394.257 142.574 C 394.569 143.119,394.830 144.044,394.837 144.630 C 394.845 145.216,395.030 145.806,395.248 145.941 C 395.465 146.075,395.650 146.754,395.658 147.449 C 395.665 148.144,395.926 149.158,396.238 149.703 C 396.549 150.248,396.810 151.275,396.818 151.986 C 396.825 152.696,396.990 153.588,397.184 153.966 C 397.562 154.705,398.400 158.531,398.679 160.792 C 398.971 163.154,399.208 163.960,399.612 163.960 C 400.122 163.960,400.116 161.306,399.604 160.990 C 399.386 160.855,399.209 160.355,399.211 159.878 C 399.215 158.840,398.014 153.470,396.625 148.317 C 396.273 147.010,395.795 145.228,395.563 144.356 C 394.026 138.576,389.503 125.982,386.245 118.416 C 385.083 115.716,379.387 104.317,377.835 101.584 C 376.969 100.059,376.134 98.545,375.978 98.218 C 375.823 97.891,374.295 95.396,372.582 92.673 C 370.870 89.950,369.254 87.376,368.992 86.952 C 368.729 86.529,368.379 85.994,368.214 85.764 C 368.048 85.534,366.669 83.614,365.150 81.495 C 363.630 79.377,362.130 77.328,361.817 76.941 C 361.504 76.554,360.123 74.812,358.748 73.069 C 357.374 71.327,356.068 69.704,355.847 69.463 C 355.626 69.222,354.377 67.796,353.070 66.294 C 349.114 61.748,339.901 52.313,336.482 49.307 C 334.887 47.904,330.734 44.366,329.938 43.731 C 329.414 43.312,328.344 42.423,327.562 41.754 C 326.779 41.086,325.426 40.018,324.554 39.381 C 323.683 38.744,322.881 38.120,322.772 37.994 C 322.017 37.125,310.619 29.307,310.107 29.307 C 309.921 29.307,309.710 29.167,309.637 28.997 C 309.481 28.630,305.487 26.125,301.584 23.945 C 300.059 23.093,298.099 21.999,297.228 21.512 C 295.385 20.483,285.202 15.433,283.168 14.539 C 282.406 14.204,280.802 13.492,279.604 12.957 C 278.406 12.422,275.644 11.323,273.465 10.514 C 271.287 9.705,268.881 8.799,268.119 8.501 C 267.356 8.203,265.218 7.484,263.366 6.903 C 261.515 6.322,259.644 5.695,259.208 5.509 C 257.444 4.755,243.935 1.402,240.683 0.911 C 239.861 0.787,239.093 0.531,238.977 0.343 C 238.697 -0.111,236.040 -0.101,236.040 0.354 M0.000 237.402 C 0.000 238.152,0.178 238.875,0.396 239.010 C 0.614 239.145,0.792 239.620,0.792 240.066 C 0.792 240.945,1.702 245.232,2.627 248.713 C 2.945 249.911,3.363 251.515,3.556 252.277 C 4.593 256.390,7.762 266.423,9.311 270.495 C 14.694 284.653,21.888 299.070,28.875 309.703 C 30.092 311.554,31.162 313.248,31.253 313.465 C 31.601 314.297,41.052 327.044,41.971 327.921 C 42.085 328.030,42.972 329.099,43.942 330.297 C 56.732 346.091,74.605 361.549,93.861 373.471 C 100.011 377.278,109.565 382.342,116.634 385.541 C 120.904 387.473,122.445 388.119,122.788 388.119 C 123.003 388.119,123.489 388.288,123.867 388.496 C 125.766 389.536,131.299 391.561,138.020 393.674 C 140.851 394.564,143.478 395.461,143.856 395.666 C 144.755 396.155,146.139 396.146,146.139 395.651 C 146.139 395.437,145.649 395.153,145.050 395.019 C 143.015 394.564,137.233 392.804,135.927 392.242 C 135.212 391.935,134.287 391.683,133.871 391.683 C 133.456 391.683,133.019 391.526,132.901 391.334 C 132.782 391.143,132.281 390.893,131.788 390.779 C 130.784 390.548,125.883 388.756,124.356 388.062 C 123.390 387.623,122.002 387.033,120.000 386.212 C 114.926 384.131,101.714 377.520,101.452 376.931 C 101.380 376.767,101.000 376.634,100.610 376.634 C 100.219 376.634,99.677 376.366,99.406 376.040 C 99.135 375.713,98.667 375.446,98.367 375.446 C 98.067 375.446,97.822 375.288,97.822 375.096 C 97.822 374.903,97.510 374.638,97.129 374.507 C 96.339 374.235,92.973 372.281,92.673 371.921 C 92.423 371.620,91.076 370.771,90.297 370.422 C 89.970 370.276,89.614 370.047,89.505 369.912 C 89.129 369.448,84.265 366.337,83.915 366.337 C 83.722 366.337,83.564 366.203,83.564 366.040 C 83.563 365.876,82.628 365.119,81.484 364.356 C 80.341 363.594,79.317 362.869,79.208 362.745 C 79.099 362.620,77.941 361.739,76.634 360.787 C 75.327 359.834,74.079 358.848,73.861 358.595 C 73.644 358.342,73.070 357.874,72.587 357.554 C 69.015 355.190,51.459 338.350,47.807 333.784 C 46.989 332.762,45.789 331.394,45.140 330.745 C 44.491 330.097,43.960 329.389,43.960 329.172 C 43.960 328.956,43.812 328.719,43.632 328.647 C 43.451 328.574,41.981 326.822,40.364 324.752 C 38.748 322.683,37.292 320.931,37.129 320.858 C 36.965 320.785,36.832 320.474,36.832 320.165 C 36.832 319.856,36.653 319.604,36.436 319.604 C 36.218 319.604,36.040 319.424,36.040 319.204 C 36.040 318.984,35.088 317.514,33.924 315.937 C 32.761 314.360,31.603 312.682,31.352 312.209 C 31.102 311.736,30.672 311.112,30.398 310.823 C 30.123 310.534,29.547 309.629,29.117 308.812 C 28.687 307.995,28.218 307.327,28.075 307.327 C 27.932 307.327,27.707 307.015,27.575 306.634 C 27.442 306.252,26.792 305.050,26.130 303.960 C 25.467 302.871,24.810 301.713,24.670 301.386 C 24.529 301.059,24.312 300.703,24.187 300.594 C 23.904 300.347,22.236 297.252,20.559 293.861 C 19.859 292.446,19.135 291.228,18.950 291.155 C 18.765 291.083,18.614 290.834,18.614 290.603 C 18.614 290.218,17.866 288.563,14.615 281.751 C 13.982 280.427,13.465 279.223,13.465 279.076 C 13.465 278.928,13.020 277.884,12.475 276.756 C 11.931 275.627,11.485 274.475,11.485 274.197 C 11.485 273.918,11.193 273.016,10.836 272.192 C 10.479 271.367,10.058 270.337,9.901 269.901 C 9.744 269.465,9.323 268.435,8.966 267.610 C 8.609 266.786,8.317 265.772,8.317 265.356 C 8.317 264.941,8.139 264.491,7.921 264.356 C 7.703 264.222,7.524 263.721,7.522 263.244 C 7.521 262.767,7.254 261.866,6.928 261.242 C 6.603 260.618,6.337 259.840,6.337 259.513 C 6.337 258.853,5.229 255.239,4.697 254.164 C 4.510 253.786,4.350 252.984,4.342 252.382 C 4.335 251.780,4.074 250.842,3.762 250.297 C 3.451 249.752,3.190 248.649,3.182 247.845 C 3.175 247.041,2.990 246.273,2.772 246.139 C 2.554 246.004,2.376 245.303,2.376 244.581 C 2.376 243.859,2.109 242.510,1.782 241.584 C 1.455 240.658,1.188 239.314,1.188 238.596 C 1.188 237.879,1.080 237.011,0.948 236.666 C 0.529 235.576,0.000 235.987,0.000 237.402 M399.304 236.707 C 399.033 237.182,398.812 238.196,398.812 238.958 C 398.812 239.721,398.618 240.846,398.382 241.459 C 398.145 242.073,397.781 243.465,397.573 244.554 C 397.364 245.644,397.057 247.254,396.890 248.133 C 396.723 249.013,396.461 249.936,396.306 250.186 C 396.152 250.436,395.862 251.409,395.662 252.350 C 394.926 255.807,394.401 257.633,394.037 258.000 C 393.831 258.207,393.658 258.742,393.650 259.188 C 393.636 260.078,392.350 264.020,391.939 264.430 C 391.798 264.571,391.683 265.181,391.683 265.785 C 391.683 266.390,391.519 266.985,391.319 267.109 C 391.119 267.233,390.570 268.578,390.099 270.099 C 389.628 271.620,389.079 272.965,388.879 273.089 C 388.679 273.213,388.515 273.627,388.515 274.009 C 388.515 274.391,388.069 275.627,387.525 276.756 C 386.980 277.884,386.535 278.990,386.535 279.211 C 386.535 279.433,386.361 279.924,386.148 280.302 C 385.936 280.681,384.853 282.950,383.743 285.347 C 381.579 290.015,380.707 291.762,377.908 297.030 C 375.423 301.707,375.345 301.845,374.455 303.176 C 373.295 304.911,372.771 305.791,372.054 307.210 C 371.701 307.907,371.161 308.687,370.855 308.941 C 370.548 309.196,370.297 309.649,370.297 309.949 C 370.297 310.250,370.159 310.495,369.991 310.495 C 369.823 310.495,369.333 311.163,368.902 311.980 C 368.471 312.797,367.795 313.822,367.399 314.257 C 367.004 314.693,366.298 315.673,365.830 316.436 C 365.363 317.198,364.751 318.057,364.470 318.345 C 364.190 318.633,363.960 319.000,363.960 319.162 C 363.960 319.323,363.641 319.800,363.250 320.222 C 362.859 320.645,361.758 322.059,360.802 323.366 C 359.847 324.673,358.959 325.832,358.829 325.941 C 358.700 326.050,357.977 326.941,357.224 327.921 C 356.470 328.901,355.203 330.416,354.406 331.287 C 353.610 332.158,352.450 333.495,351.828 334.257 C 350.230 336.218,350.468 335.965,344.247 342.315 C 341.137 345.490,337.395 349.096,335.930 350.328 C 334.466 351.561,332.465 353.310,331.485 354.214 C 330.505 355.118,328.901 356.473,327.921 357.226 C 326.941 357.978,326.050 358.700,325.941 358.829 C 325.832 358.959,324.673 359.842,323.366 360.792 C 322.059 361.742,320.901 362.632,320.792 362.771 C 320.683 362.909,319.703 363.624,318.614 364.360 C 317.525 365.095,316.574 365.841,316.502 366.017 C 316.429 366.193,316.199 366.337,315.990 366.337 C 315.781 366.337,314.645 367.050,313.465 367.921 C 312.286 368.792,311.150 369.505,310.941 369.505 C 310.732 369.505,310.502 369.644,310.429 369.815 C 310.356 369.986,309.132 370.832,307.709 371.696 C 306.285 372.560,304.770 373.491,304.342 373.765 C 303.914 374.039,303.297 374.382,302.970 374.528 C 302.644 374.674,302.287 374.896,302.178 375.021 C 301.857 375.389,300.562 376.119,297.822 377.478 C 296.406 378.180,295.158 378.858,295.050 378.986 C 294.601 379.511,282.745 385.108,277.327 387.354 C 276.837 387.557,276.035 387.900,275.545 388.117 C 273.993 388.804,269.145 390.564,268.212 390.779 C 267.719 390.893,267.218 391.143,267.099 391.334 C 266.981 391.526,266.483 391.683,265.993 391.683 C 265.503 391.683,264.756 391.945,264.333 392.265 C 263.910 392.584,263.161 392.852,262.668 392.859 C 262.175 392.866,261.462 393.027,261.084 393.218 C 260.333 393.597,256.687 394.678,254.950 395.037 C 254.351 395.161,253.861 395.437,253.861 395.651 C 253.861 396.139,255.232 396.157,256.144 395.681 C 256.522 395.483,259.149 394.584,261.980 393.683 C 266.661 392.193,271.413 390.550,273.465 389.712 C 273.901 389.534,275.238 388.992,276.436 388.507 C 278.674 387.600,281.273 386.490,283.366 385.546 C 285.486 384.590,297.187 378.754,298.637 377.930 C 299.411 377.489,301.510 376.260,303.301 375.198 C 305.091 374.136,306.866 373.089,307.246 372.871 C 325.180 362.580,349.795 339.894,363.386 321.130 C 367.189 315.880,373.861 305.939,373.861 305.523 C 373.861 305.434,374.458 304.423,375.186 303.275 C 377.395 299.797,381.873 291.221,384.549 285.347 C 386.916 280.151,387.835 277.984,389.505 273.663 C 389.884 272.683,390.337 271.525,390.512 271.089 C 390.687 270.653,391.130 269.406,391.496 268.317 C 391.863 267.228,392.304 265.980,392.475 265.545 C 392.647 265.109,393.046 263.950,393.363 262.970 C 393.679 261.990,394.172 260.475,394.458 259.604 C 394.743 258.733,395.115 257.485,395.283 256.832 C 395.451 256.178,396.059 253.861,396.634 251.683 C 398.097 246.143,398.875 242.806,399.081 241.188 C 399.178 240.426,399.439 239.430,399.661 238.975 C 400.298 237.672,399.963 235.548,399.304 236.707 " stroke="none" fill="#f5ce5a" fill-rule="evenodd"></path><path id="path4" d="M74.547 114.702 C 67.561 118.082,65.693 126.975,70.693 133.056 C 77.734 141.620,91.485 136.586,91.485 125.445 C 91.485 116.736,82.337 110.933,74.547 114.702 M290.785 114.702 C 283.311 118.317,281.780 127.755,287.705 133.681 C 298.790 144.766,315.184 128.506,304.411 117.112 C 301.164 113.677,295.115 112.607,290.785 114.702 M83.313 114.752 C 88.917 116.663,92.345 123.291,90.487 128.625 C 87.716 136.580,78.681 139.279,72.509 133.997 C 63.223 126.048,71.773 110.819,83.313 114.752 M299.551 114.752 C 305.155 116.663,308.583 123.291,306.725 128.625 C 303.954 136.580,294.919 139.279,288.747 133.997 C 279.461 126.048,288.010 110.819,299.551 114.752 " stroke="none" fill="#bca49c" fill-rule="evenodd"></path></g></svg>