<svg id="svg" version="1.1" xmlns="http://www.w3.org/2000/svg" xmlns:xlink="http://www.w3.org/1999/xlink" width="400" height="404.0712468193384" viewBox="0, 0, 400,404.0712468193384"><g id="svgg"><path id="path0" d="M0.000 78.800 C 0.000 122.140,0.139 157.600,0.308 157.600 C 0.478 157.600,0.851 156.475,1.136 155.100 C 1.866 151.588,2.227 150.122,2.984 147.600 C 3.347 146.390,3.737 144.950,3.852 144.400 C 3.966 143.850,4.212 143.040,4.397 142.600 C 4.582 142.160,5.318 139.910,6.034 137.600 C 6.750 135.290,7.468 133.130,7.631 132.800 C 7.794 132.470,8.678 130.220,9.595 127.800 C 10.512 125.380,11.620 122.613,12.057 121.650 C 12.493 120.688,13.181 119.063,13.584 118.040 C 15.571 113.000,23.598 98.234,27.938 91.636 C 29.181 89.746,30.272 88.020,30.361 87.800 C 30.537 87.370,30.990 86.730,34.610 81.800 C 35.902 80.040,37.060 78.510,37.182 78.400 C 37.304 78.290,38.201 77.120,39.176 75.800 C 40.150 74.480,41.049 73.310,41.173 73.200 C 41.298 73.090,42.083 72.149,42.919 71.110 C 43.754 70.070,44.654 68.990,44.919 68.710 C 45.183 68.429,46.840 66.591,48.600 64.624 C 54.415 58.125,61.772 51.084,69.353 44.762 C 69.987 44.233,70.707 43.611,70.953 43.381 C 71.199 43.151,72.480 42.162,73.800 41.183 C 75.120 40.205,76.290 39.302,76.400 39.177 C 76.932 38.570,83.240 34.114,87.847 31.091 C 99.015 23.762,112.372 16.820,124.200 12.198 C 125.740 11.596,127.818 10.776,128.818 10.376 C 129.818 9.976,131.888 9.259,133.418 8.783 C 134.948 8.307,136.560 7.772,137.000 7.594 C 137.781 7.279,139.318 6.817,144.200 5.428 C 145.520 5.053,147.013 4.578,147.519 4.373 C 148.024 4.168,148.800 4.000,149.244 4.000 C 149.687 4.000,150.894 3.747,151.925 3.438 C 152.956 3.130,154.880 2.662,156.200 2.399 C 157.520 2.135,159.692 1.668,161.026 1.360 C 162.360 1.052,164.014 0.800,164.702 0.800 C 165.390 0.800,166.064 0.620,166.200 0.400 C 166.365 0.134,138.604 -0.000,83.224 -0.000 L 0.000 0.000 0.000 78.800 M232.961 0.295 C 233.124 0.457,234.549 0.821,236.128 1.104 C 237.708 1.387,239.900 1.802,241.000 2.027 C 242.100 2.251,243.720 2.579,244.600 2.755 C 245.480 2.930,247.010 3.297,248.000 3.569 C 248.990 3.841,250.430 4.221,251.200 4.413 C 256.871 5.828,272.791 11.058,273.459 11.726 C 273.610 11.877,273.968 12.000,274.256 12.000 C 274.543 12.000,275.818 12.464,277.089 13.030 C 280.077 14.362,281.436 14.958,283.400 15.797 C 287.360 17.488,298.871 23.440,302.092 25.463 C 302.913 25.978,303.706 26.400,303.854 26.400 C 304.003 26.400,304.714 26.850,305.436 27.400 C 306.157 27.950,306.877 28.400,307.036 28.400 C 307.194 28.400,307.914 28.850,308.636 29.400 C 309.357 29.950,310.048 30.400,310.172 30.400 C 310.296 30.400,311.658 31.300,313.200 32.400 C 314.742 33.500,316.167 34.400,316.368 34.400 C 316.569 34.400,316.793 34.547,316.867 34.727 C 316.940 34.908,318.710 36.299,320.800 37.819 C 337.835 50.209,354.930 67.855,367.283 85.800 C 369.508 89.032,375.221 98.092,375.733 99.200 C 375.886 99.530,376.555 100.700,377.220 101.800 C 379.289 105.222,388.000 123.174,388.000 124.016 C 388.000 124.233,388.172 124.723,388.382 125.105 C 389.155 126.512,392.000 134.106,392.000 134.762 C 392.000 135.135,392.156 135.611,392.347 135.820 C 392.724 136.232,395.200 143.976,395.200 144.742 C 395.200 145.000,395.359 145.523,395.553 145.905 C 395.879 146.548,396.427 148.549,397.220 152.000 C 397.397 152.770,397.843 154.660,398.211 156.200 C 398.578 157.740,399.013 159.767,399.177 160.704 C 399.340 161.641,399.593 162.526,399.737 162.671 C 399.882 162.815,400.000 126.273,400.000 81.467 L 400.000 0.000 316.333 0.000 C 270.317 0.000,232.799 0.133,232.961 0.295 M75.400 115.959 C 69.918 117.717,66.260 124.759,68.106 130.003 C 71.842 140.617,85.652 140.636,89.700 130.033 C 92.806 121.894,83.980 113.207,75.400 115.959 M292.229 115.959 C 286.659 117.772,283.019 124.765,284.921 130.000 C 288.827 140.752,302.915 140.640,306.539 129.829 C 309.311 121.560,300.690 113.205,292.229 115.959 M399.467 240.667 C 399.320 240.813,399.200 241.361,399.200 241.884 C 399.200 243.052,398.060 248.089,396.548 253.600 C 396.216 254.810,395.802 256.340,395.627 257.000 C 394.902 259.744,393.877 263.046,393.550 263.695 C 393.358 264.077,393.200 264.655,393.200 264.981 C 393.200 265.307,392.941 266.164,392.625 266.886 C 392.309 267.609,391.575 269.550,390.995 271.200 C 389.783 274.649,388.981 276.733,387.994 279.000 C 387.612 279.880,386.703 282.040,385.975 283.800 C 375.439 309.271,353.237 338.881,330.800 357.383 C 329.810 358.199,328.640 359.169,328.200 359.539 C 325.309 361.965,314.588 369.912,312.738 371.000 C 312.364 371.220,309.875 372.795,307.207 374.500 C 304.540 376.205,302.302 377.600,302.236 377.600 C 302.169 377.600,300.604 378.460,298.757 379.512 C 291.185 383.823,278.239 389.781,270.200 392.654 C 261.582 395.734,250.330 399.143,246.400 399.866 C 245.850 399.967,244.320 400.296,243.000 400.597 C 241.680 400.897,239.610 401.334,238.400 401.566 C 237.190 401.799,234.786 402.262,233.057 402.595 C 231.329 402.928,229.259 403.203,228.457 403.206 C 227.656 403.209,226.730 403.387,226.400 403.600 C 226.012 403.851,256.520 403.990,312.900 403.994 L 400.000 404.000 400.000 322.200 C 400.000 277.210,399.940 240.400,399.867 240.400 C 399.793 240.400,399.613 240.520,399.467 240.667 M0.000 324.576 L 0.000 404.000 86.700 403.994 C 142.822 403.990,173.188 403.851,172.800 403.600 C 172.470 403.387,171.480 403.205,170.600 403.196 C 169.720 403.188,168.217 403.000,167.259 402.779 C 166.302 402.558,164.412 402.196,163.059 401.973 C 159.020 401.308,157.109 400.938,155.000 400.415 C 153.900 400.142,152.370 399.774,151.600 399.597 C 150.830 399.419,149.120 398.983,147.800 398.626 C 146.480 398.270,144.680 397.785,143.800 397.548 C 142.920 397.311,141.480 396.891,140.600 396.614 C 135.433 394.988,132.008 393.859,130.600 393.318 C 129.720 392.981,128.640 392.567,128.200 392.400 C 124.732 391.081,122.649 390.252,120.600 389.374 C 119.940 389.091,118.680 388.554,117.800 388.180 C 112.086 385.754,103.160 381.271,99.000 378.738 C 98.340 378.336,97.530 377.883,97.200 377.732 C 95.383 376.898,80.919 367.503,79.000 365.910 C 78.780 365.727,77.520 364.757,76.200 363.754 C 73.534 361.728,70.898 359.620,70.234 358.984 C 69.995 358.755,69.421 358.305,68.957 357.984 C 61.330 352.704,41.220 331.100,34.101 320.540 C 33.827 320.133,32.432 318.129,31.001 316.087 C 29.571 314.044,28.400 312.277,28.400 312.160 C 28.400 312.043,27.950 311.357,27.400 310.636 C 26.850 309.914,26.400 309.194,26.400 309.036 C 26.400 308.877,25.978 308.174,25.462 307.473 C 24.027 305.523,19.830 297.897,16.837 291.800 C 14.241 286.510,12.776 283.277,11.217 279.400 C 10.510 277.640,9.766 275.840,9.564 275.400 C 9.004 274.179,6.356 266.757,5.996 265.400 C 5.695 264.267,4.571 260.705,3.533 257.600 C 3.276 256.830,2.934 255.570,2.773 254.800 C 2.612 254.030,2.106 252.050,1.650 250.400 C 1.193 248.750,0.815 247.006,0.809 246.524 C 0.804 246.042,0.620 245.536,0.400 245.400 C 0.134 245.236,0.000 271.729,0.000 324.576 " stroke="none" fill="#ecf3f3" fill-rule="evenodd"></path><path id="path1" d="M76.882 95.592 C 71.167 97.191,65.374 101.197,61.748 106.058 C 55.473 114.469,55.473 135.931,61.748 144.342 C 69.841 155.190,83.734 158.642,95.397 152.703 C 105.724 147.443,109.800 139.660,109.800 125.200 C 109.800 114.424,108.002 108.705,102.844 103.069 C 98.199 97.993,90.457 94.759,83.154 94.843 C 80.919 94.869,78.381 95.172,76.882 95.592 M293.682 95.592 C 287.845 97.225,281.819 101.447,278.334 106.343 C 273.272 113.456,272.239 130.339,276.283 139.861 C 284.330 158.804,311.131 161.131,322.188 143.846 C 328.531 133.930,328.531 116.470,322.188 106.554 C 316.339 97.411,304.057 92.688,293.682 95.592 M83.405 115.644 C 95.451 120.972,91.942 138.463,78.828 138.463 C 74.286 138.463,68.000 134.472,68.000 131.587 C 68.000 131.242,67.806 130.766,67.568 130.528 C 66.767 129.727,67.046 123.920,67.982 121.928 C 70.727 116.089,77.850 113.186,83.405 115.644 M300.205 115.644 C 312.251 120.972,308.742 138.463,295.628 138.463 C 291.086 138.463,284.800 134.472,284.800 131.587 C 284.800 131.242,284.606 130.766,284.368 130.528 C 283.468 129.628,283.851 123.812,284.957 121.611 C 287.816 115.919,294.720 113.217,300.205 115.644 M90.529 253.458 C 88.291 254.909,87.600 256.530,87.600 260.330 C 87.600 284.545,102.578 313.617,121.854 326.816 C 122.323 327.137,124.070 328.338,125.737 329.484 C 136.330 336.769,149.993 341.755,163.824 343.383 C 171.466 344.283,222.631 344.279,230.184 343.378 C 270.478 338.571,301.048 307.930,305.806 267.581 C 306.899 258.313,306.477 255.479,303.724 253.600 L 302.259 252.600 197.213 252.498 L 92.167 252.396 90.529 253.458 " stroke="none" fill="#4c2404" fill-rule="evenodd"></path><path id="path2" d="M169.518 0.445 C 169.437 0.689,168.007 1.023,166.342 1.186 C 164.676 1.349,163.090 1.621,162.817 1.790 C 162.544 1.958,161.303 2.245,160.060 2.427 C 156.539 2.943,153.903 3.491,152.674 3.966 C 152.055 4.205,151.056 4.400,150.454 4.400 C 149.852 4.400,149.189 4.561,148.980 4.758 C 148.623 5.094,146.106 5.780,143.400 6.279 C 142.740 6.401,142.020 6.642,141.800 6.814 C 141.580 6.987,140.723 7.255,139.896 7.410 C 139.068 7.564,138.293 7.850,138.172 8.045 C 138.051 8.240,137.534 8.400,137.022 8.400 C 136.510 8.400,135.576 8.669,134.946 8.998 C 134.316 9.326,133.496 9.596,133.124 9.598 C 132.752 9.599,132.336 9.780,132.200 10.000 C 132.064 10.220,131.610 10.400,131.190 10.400 C 130.501 10.400,128.543 11.120,126.705 12.049 C 126.323 12.242,125.684 12.400,125.285 12.400 C 124.886 12.400,124.354 12.606,124.102 12.858 C 123.850 13.110,122.779 13.628,121.722 14.009 C 117.742 15.442,99.796 24.204,98.800 25.200 C 98.618 25.382,97.494 26.031,95.085 27.346 C 94.598 27.612,93.174 28.497,91.919 29.315 C 90.665 30.132,89.450 30.800,89.219 30.800 C 88.989 30.800,88.800 30.941,88.800 31.114 C 88.800 31.286,88.215 31.771,87.500 32.192 C 84.115 34.182,70.653 44.270,68.005 46.800 C 67.660 47.130,66.397 48.210,65.198 49.200 C 62.656 51.299,49.976 63.857,48.033 66.200 C 47.303 67.080,45.935 68.700,44.994 69.800 C 42.222 73.038,39.087 76.882,37.817 78.600 C 37.166 79.480,36.491 80.260,36.317 80.333 C 36.142 80.407,36.000 80.651,36.000 80.876 C 36.000 81.101,35.488 81.941,34.862 82.742 C 34.237 83.544,32.759 85.640,31.578 87.400 C 30.397 89.160,29.334 90.690,29.215 90.800 C 28.819 91.168,27.979 92.592,27.742 93.300 C 27.612 93.685,27.369 94.000,27.200 94.000 C 27.031 94.000,26.784 94.315,26.650 94.700 C 26.517 95.085,25.860 96.300,25.191 97.400 C 24.522 98.500,23.858 99.670,23.716 100.000 C 23.574 100.330,23.355 100.690,23.229 100.800 C 22.458 101.473,13.808 118.924,11.928 123.600 C 11.707 124.150,11.273 125.110,10.963 125.732 C 10.653 126.355,10.400 127.123,10.400 127.438 C 10.400 128.016,10.279 128.314,9.068 130.732 C 8.700 131.465,8.400 132.490,8.400 133.009 C 8.400 133.528,8.234 134.055,8.031 134.181 C 7.828 134.306,7.535 134.986,7.380 135.691 C 7.225 136.397,6.956 137.250,6.782 137.587 C 6.609 137.924,6.168 139.280,5.803 140.600 C 5.438 141.920,4.986 143.360,4.800 143.800 C 4.613 144.240,4.367 145.050,4.254 145.600 C 3.844 147.584,3.099 150.214,2.753 150.895 C 2.559 151.277,2.400 152.047,2.400 152.607 C 2.400 153.167,2.130 154.272,1.800 155.062 C 1.470 155.851,1.200 157.093,1.200 157.820 C 1.200 158.548,0.930 159.413,0.600 159.743 C -0.310 160.652,-0.310 242.148,0.600 243.057 C 0.933 243.390,1.200 244.368,1.200 245.255 C 1.200 246.134,1.413 247.246,1.674 247.726 C 1.934 248.207,2.284 249.320,2.452 250.200 C 3.013 253.152,4.378 258.368,4.820 259.251 C 4.999 259.609,5.268 260.556,5.418 261.355 C 5.568 262.155,5.850 262.907,6.045 263.028 C 6.240 263.149,6.400 263.666,6.400 264.178 C 6.400 264.690,6.669 265.624,6.998 266.254 C 7.326 266.884,7.596 267.704,7.598 268.076 C 7.599 268.448,7.780 268.864,8.000 269.000 C 8.220 269.136,8.400 269.651,8.400 270.144 C 8.400 270.637,8.550 271.211,8.734 271.420 C 8.918 271.629,9.385 272.700,9.772 273.800 C 10.159 274.900,10.741 276.430,11.065 277.200 C 11.389 277.970,11.841 279.050,12.069 279.600 C 12.533 280.716,13.174 282.217,14.207 284.600 C 15.497 287.577,20.008 296.583,21.620 299.400 C 22.501 300.940,23.405 302.560,23.628 303.000 C 24.187 304.100,24.625 304.823,27.515 309.409 C 28.898 311.604,30.248 313.750,30.515 314.179 C 31.755 316.170,36.619 322.892,38.406 325.083 C 38.623 325.349,38.800 325.754,38.800 325.983 C 38.800 326.212,38.937 326.400,39.104 326.400 C 39.272 326.400,40.217 327.424,41.204 328.676 C 42.192 329.928,43.720 331.781,44.600 332.793 C 45.480 333.805,47.280 335.875,48.600 337.393 C 51.134 340.306,61.067 350.329,63.039 351.962 C 64.878 353.485,69.380 357.365,69.600 357.617 C 69.710 357.743,70.209 358.126,70.709 358.467 C 71.208 358.808,72.288 359.699,73.109 360.447 C 73.929 361.195,75.135 362.151,75.790 362.572 C 76.444 362.992,77.337 363.669,77.773 364.075 C 78.585 364.832,83.490 368.244,87.537 370.867 C 88.782 371.674,89.980 372.484,90.200 372.667 C 90.420 372.850,91.275 373.356,92.100 373.791 C 92.925 374.226,93.600 374.721,93.600 374.891 C 93.600 375.061,93.777 375.200,93.994 375.200 C 94.211 375.200,95.246 375.724,96.294 376.364 C 99.359 378.236,102.338 379.868,106.400 381.899 C 108.490 382.945,110.260 383.935,110.333 384.100 C 110.407 384.265,110.674 384.400,110.928 384.400 C 111.181 384.400,112.291 384.831,113.394 385.358 C 117.456 387.299,119.875 388.362,123.000 389.580 C 124.760 390.266,126.513 391.001,126.895 391.213 C 127.277 391.426,127.916 391.600,128.315 391.600 C 128.714 391.600,129.211 391.755,129.420 391.944 C 129.629 392.133,130.790 392.605,132.000 392.992 C 133.210 393.380,134.476 393.832,134.813 393.997 C 135.150 394.163,136.003 394.425,136.709 394.580 C 137.414 394.735,138.094 395.028,138.219 395.231 C 138.345 395.434,139.031 395.600,139.744 395.600 C 140.457 395.600,141.211 395.770,141.420 395.977 C 141.791 396.345,143.635 396.875,147.127 397.618 C 148.076 397.820,149.060 398.113,149.312 398.269 C 149.564 398.425,150.497 398.687,151.385 398.852 C 152.273 399.016,154.260 399.442,155.800 399.799 C 159.064 400.555,161.516 401.010,165.400 401.581 C 166.940 401.807,168.470 402.107,168.800 402.247 C 169.130 402.388,171.104 402.642,173.187 402.811 C 175.318 402.985,177.037 403.312,177.120 403.560 C 177.340 404.219,221.262 404.178,221.921 403.519 C 222.186 403.254,223.977 402.903,225.901 402.740 C 227.826 402.576,230.930 402.160,232.800 401.815 C 234.670 401.470,237.190 401.020,238.400 400.813 C 241.690 400.252,244.899 399.543,245.800 399.179 C 246.240 399.000,247.140 398.777,247.800 398.683 C 249.531 398.434,252.884 397.564,253.695 397.153 C 254.077 396.959,254.797 396.794,255.295 396.786 C 255.793 396.778,256.650 396.514,257.200 396.200 C 257.750 395.886,258.659 395.622,259.220 395.614 C 259.781 395.606,260.411 395.457,260.620 395.282 C 260.829 395.107,262.080 394.639,263.400 394.242 C 264.720 393.845,266.076 393.381,266.413 393.211 C 266.750 393.041,267.603 392.775,268.309 392.620 C 269.014 392.465,269.694 392.172,269.819 391.969 C 269.945 391.766,270.382 391.600,270.791 391.600 C 271.200 391.600,272.135 391.300,272.868 390.932 C 275.209 389.759,275.581 389.600,275.984 389.600 C 276.201 389.600,277.328 389.167,278.489 388.638 C 279.650 388.110,281.680 387.189,283.000 386.593 C 286.812 384.871,299.043 378.680,300.800 377.583 C 301.130 377.377,303.643 375.834,306.386 374.154 C 309.128 372.474,312.315 370.402,313.468 369.549 C 314.622 368.697,315.754 368.000,315.983 368.000 C 316.212 368.000,316.400 367.848,316.400 367.663 C 316.400 367.478,317.030 366.987,317.800 366.572 C 318.570 366.157,319.200 365.679,319.200 365.509 C 319.200 365.339,319.470 365.200,319.800 365.200 C 320.130 365.200,320.400 365.051,320.400 364.868 C 320.400 364.685,321.255 363.926,322.300 363.181 C 324.854 361.359,328.129 358.746,330.800 356.399 C 332.010 355.336,333.526 354.054,334.168 353.550 C 334.811 353.047,335.999 351.997,336.809 351.217 C 337.619 350.438,339.343 348.785,340.641 347.545 C 344.157 344.183,350.400 337.648,352.051 335.600 C 352.849 334.610,354.109 333.146,354.851 332.348 C 355.593 331.549,357.638 329.029,359.395 326.748 C 361.153 324.466,362.728 322.540,362.895 322.467 C 363.063 322.393,363.200 322.155,363.200 321.938 C 363.200 321.721,363.425 321.292,363.700 320.985 C 364.873 319.677,365.200 319.212,365.200 318.850 C 365.200 318.639,365.335 318.407,365.500 318.333 C 366.008 318.107,374.236 305.440,375.331 303.198 C 375.492 302.869,376.346 301.340,377.229 299.800 C 378.113 298.260,379.025 296.505,379.257 295.900 C 379.489 295.295,379.841 294.800,380.039 294.800 C 380.238 294.800,380.400 294.595,380.400 294.345 C 380.400 294.094,381.120 292.388,382.000 290.553 C 382.880 288.717,383.600 287.032,383.600 286.808 C 383.600 286.584,383.780 286.400,384.000 286.400 C 384.220 286.400,384.400 286.202,384.400 285.960 C 384.400 285.511,384.715 284.740,386.552 280.689 C 387.128 279.418,387.600 278.231,387.600 278.051 C 387.600 277.726,388.502 275.648,389.226 274.305 C 389.432 273.923,389.600 273.359,389.600 273.051 C 389.600 272.743,389.869 271.976,390.198 271.346 C 390.526 270.716,390.796 269.896,390.798 269.524 C 390.799 269.152,390.959 268.749,391.154 268.629 C 391.349 268.508,391.598 267.913,391.708 267.305 C 391.818 266.697,392.136 265.570,392.414 264.800 C 393.927 260.611,394.800 257.771,394.800 257.041 C 394.800 256.682,394.959 256.077,395.153 255.695 C 395.729 254.560,396.779 250.324,397.604 245.800 C 397.845 244.480,398.212 243.229,398.421 243.020 C 398.629 242.811,398.800 241.810,398.800 240.796 C 398.800 239.783,399.064 238.604,399.387 238.176 C 400.178 237.131,400.310 165.370,399.522 165.107 C 399.259 165.020,398.910 163.880,398.747 162.574 C 398.584 161.268,398.155 159.030,397.794 157.600 C 397.433 156.170,396.983 154.280,396.794 153.400 C 396.383 151.484,395.508 148.212,394.600 145.200 C 394.236 143.990,393.842 142.413,393.725 141.696 C 393.607 140.979,393.351 140.294,393.156 140.173 C 392.960 140.052,392.799 139.648,392.798 139.276 C 392.796 138.904,392.526 138.084,392.198 137.454 C 391.869 136.824,391.600 135.915,391.600 135.434 C 391.600 134.953,391.445 134.389,391.256 134.180 C 391.067 133.971,390.579 132.810,390.173 131.600 C 389.767 130.390,389.313 129.220,389.164 129.000 C 389.014 128.780,388.767 128.015,388.614 127.300 C 388.462 126.585,388.171 126.000,387.968 126.000 C 387.766 126.000,387.600 125.655,387.600 125.232 C 387.600 124.810,387.347 123.955,387.037 123.332 C 386.727 122.710,386.295 121.750,386.077 121.200 C 385.533 119.832,382.477 113.276,381.695 111.800 C 381.345 111.140,380.883 110.240,380.667 109.800 C 378.628 105.638,377.074 102.770,376.750 102.569 C 376.558 102.450,376.400 102.018,376.400 101.610 C 376.400 101.201,376.258 100.807,376.084 100.733 C 375.669 100.558,373.200 96.502,373.200 95.994 C 373.200 95.777,373.020 95.600,372.800 95.600 C 372.580 95.600,372.400 95.408,372.400 95.173 C 372.400 94.939,371.950 94.157,371.400 93.436 C 370.850 92.714,370.400 92.018,370.400 91.889 C 370.400 91.469,362.879 80.602,361.420 78.914 C 360.290 77.607,360.000 77.215,360.000 76.999 C 360.000 76.871,359.383 76.098,358.629 75.283 C 357.874 74.467,356.724 73.080,356.071 72.200 C 355.419 71.320,354.371 70.048,353.743 69.373 C 353.114 68.697,351.610 67.001,350.400 65.603 C 347.495 62.246,338.884 53.618,335.428 50.600 C 333.916 49.280,332.301 47.864,331.839 47.454 C 331.073 46.773,323.939 41.007,323.000 40.309 C 322.780 40.146,322.060 39.595,321.400 39.085 C 318.913 37.162,312.820 32.800,312.622 32.800 C 312.508 32.800,311.076 31.900,309.438 30.800 C 307.801 29.700,306.327 28.800,306.162 28.800 C 305.998 28.800,305.579 28.548,305.231 28.240 C 304.884 27.932,303.700 27.182,302.600 26.573 C 301.500 25.965,300.060 25.149,299.400 24.760 C 295.132 22.245,281.879 15.600,281.130 15.600 C 280.803 15.600,276.965 13.938,275.068 12.975 C 274.445 12.659,273.626 12.400,273.248 12.400 C 272.869 12.400,272.389 12.245,272.180 12.056 C 271.971 11.867,270.810 11.380,269.600 10.975 C 268.390 10.570,267.229 10.095,267.020 9.919 C 266.811 9.744,266.260 9.600,265.796 9.600 C 265.333 9.600,264.604 9.336,264.176 9.013 C 263.749 8.690,263.080 8.420,262.689 8.413 C 262.298 8.406,260.588 7.961,258.889 7.425 C 253.764 5.809,251.546 5.200,250.778 5.200 C 250.376 5.200,249.948 5.039,249.826 4.842 C 249.705 4.645,248.929 4.404,248.103 4.305 C 247.276 4.207,245.700 3.900,244.600 3.623 C 239.070 2.230,235.782 1.581,232.630 1.262 C 231.020 1.099,229.792 0.776,229.697 0.491 C 229.472 -0.184,169.743 -0.230,169.518 0.445 M90.334 95.380 C 99.775 98.002,106.966 105.317,109.357 114.732 C 111.011 121.246,110.092 135.276,107.676 140.400 C 101.841 152.773,86.538 159.251,74.600 154.401 C 62.079 149.314,56.819 140.676,56.819 125.200 C 56.819 109.724,62.079 101.086,74.600 95.999 C 75.040 95.820,76.210 95.483,77.200 95.250 C 78.190 95.017,79.360 94.739,79.800 94.633 C 81.243 94.284,88.154 94.774,90.334 95.380 M307.134 95.380 C 314.632 97.462,321.079 102.775,324.148 109.400 C 324.555 110.280,325.030 111.283,325.203 111.628 C 327.452 116.125,327.452 134.275,325.203 138.772 C 325.030 139.117,324.555 140.120,324.148 141.000 C 318.715 152.730,303.058 159.137,291.400 154.401 C 278.879 149.314,273.619 140.676,273.619 125.200 C 273.619 109.724,278.879 101.086,291.400 95.999 C 291.840 95.820,293.010 95.483,294.000 95.250 C 294.990 95.017,296.160 94.739,296.600 94.633 C 298.043 94.284,304.954 94.774,307.134 95.380 M303.909 253.388 C 309.461 257.069,305.450 282.300,296.767 298.308 C 282.974 323.736,259.759 339.774,231.200 343.604 C 226.666 344.212,163.829 343.921,159.890 343.274 C 125.775 337.668,99.235 313.488,90.002 279.600 C 86.558 266.957,86.660 255.488,90.238 253.201 C 91.362 252.483,94.830 252.458,196.909 252.429 L 302.417 252.400 303.909 253.388 " stroke="none" fill="#fbbb04" fill-rule="evenodd"></path><path id="path3" d="M166.000 0.382 C 165.670 0.566,164.140 0.928,162.600 1.187 C 158.925 1.804,156.762 2.241,153.600 3.005 C 152.170 3.350,150.280 3.789,149.400 3.981 C 148.520 4.173,146.810 4.628,145.600 4.992 C 143.383 5.661,142.332 5.965,139.400 6.788 C 138.520 7.036,137.440 7.391,137.000 7.577 C 136.560 7.764,134.948 8.307,133.418 8.783 C 131.888 9.259,129.818 9.976,128.818 10.376 C 127.818 10.776,125.740 11.596,124.200 12.198 C 112.372 16.820,99.015 23.762,87.847 31.091 C 83.240 34.114,76.932 38.570,76.400 39.177 C 76.290 39.302,75.124 40.205,73.810 41.183 C 71.670 42.776,70.440 43.761,69.043 45.000 C 68.795 45.220,67.334 46.475,65.796 47.789 C 60.528 52.291,53.332 59.335,48.600 64.624 C 46.840 66.591,45.183 68.429,44.919 68.710 C 44.654 68.990,43.754 70.070,42.919 71.110 C 42.083 72.149,41.298 73.090,41.173 73.200 C 41.049 73.310,40.150 74.480,39.176 75.800 C 38.201 77.120,37.304 78.290,37.182 78.400 C 37.060 78.510,35.902 80.040,34.610 81.800 C 30.990 86.730,30.537 87.370,30.361 87.800 C 30.272 88.020,29.181 89.746,27.938 91.636 C 23.598 98.234,15.571 113.000,13.584 118.040 C 13.181 119.063,12.493 120.688,12.057 121.650 C 11.620 122.613,10.512 125.380,9.595 127.800 C 8.678 130.220,7.794 132.470,7.631 132.800 C 7.468 133.130,6.750 135.290,6.034 137.600 C 5.318 139.910,4.582 142.160,4.397 142.600 C 4.212 143.040,3.966 143.850,3.852 144.400 C 3.737 144.950,3.347 146.390,2.984 147.600 C 2.227 150.122,1.866 151.588,1.136 155.100 C 0.851 156.475,0.478 157.600,0.308 157.600 C 0.139 157.600,0.000 158.140,0.000 158.800 C 0.000 159.460,0.161 160.000,0.357 160.000 C 0.839 160.000,1.200 158.978,1.200 157.616 C 1.200 157.001,1.470 155.851,1.800 155.062 C 2.130 154.272,2.400 153.167,2.400 152.607 C 2.400 152.047,2.559 151.277,2.753 150.895 C 3.099 150.214,3.844 147.584,4.254 145.600 C 4.367 145.050,4.613 144.240,4.800 143.800 C 4.986 143.360,5.438 141.920,5.803 140.600 C 6.168 139.280,6.609 137.924,6.782 137.587 C 6.956 137.250,7.225 136.397,7.380 135.691 C 7.535 134.986,7.828 134.306,8.031 134.181 C 8.234 134.055,8.400 133.528,8.400 133.009 C 8.400 132.490,8.700 131.465,9.068 130.732 C 10.279 128.314,10.400 128.016,10.400 127.438 C 10.400 127.123,10.653 126.355,10.963 125.732 C 11.273 125.110,11.707 124.150,11.928 123.600 C 13.808 118.924,22.458 101.473,23.229 100.800 C 23.355 100.690,23.574 100.330,23.716 100.000 C 23.858 99.670,24.522 98.500,25.191 97.400 C 25.860 96.300,26.517 95.085,26.650 94.700 C 26.784 94.315,27.031 94.000,27.200 94.000 C 27.369 94.000,27.612 93.685,27.742 93.300 C 27.979 92.592,28.819 91.168,29.215 90.800 C 29.334 90.690,30.397 89.160,31.578 87.400 C 32.759 85.640,34.237 83.544,34.862 82.742 C 35.488 81.941,36.000 81.101,36.000 80.876 C 36.000 80.651,36.142 80.407,36.317 80.333 C 36.491 80.260,37.166 79.480,37.817 78.600 C 39.087 76.882,42.222 73.038,44.994 69.800 C 45.935 68.700,47.303 67.080,48.033 66.200 C 49.976 63.857,62.656 51.299,65.198 49.200 C 66.397 48.210,67.660 47.130,68.005 46.800 C 70.653 44.270,84.115 34.182,87.500 32.192 C 88.215 31.771,88.800 31.286,88.800 31.114 C 88.800 30.941,88.989 30.800,89.219 30.800 C 89.450 30.800,90.665 30.132,91.919 29.315 C 93.174 28.497,94.598 27.612,95.085 27.346 C 97.494 26.031,98.618 25.382,98.800 25.200 C 99.796 24.204,117.742 15.442,121.722 14.009 C 122.779 13.628,123.850 13.110,124.102 12.858 C 124.354 12.606,124.886 12.400,125.285 12.400 C 125.684 12.400,126.323 12.242,126.705 12.049 C 128.543 11.120,130.501 10.400,131.190 10.400 C 131.610 10.400,132.064 10.220,132.200 10.000 C 132.336 9.780,132.752 9.599,133.124 9.598 C 133.496 9.596,134.316 9.326,134.946 8.998 C 135.576 8.669,136.510 8.400,137.022 8.400 C 137.534 8.400,138.051 8.240,138.172 8.045 C 138.293 7.850,139.068 7.564,139.896 7.410 C 140.723 7.255,141.580 6.987,141.800 6.814 C 142.020 6.642,142.740 6.401,143.400 6.279 C 146.106 5.780,148.623 5.094,148.980 4.758 C 149.189 4.561,149.852 4.400,150.454 4.400 C 151.056 4.400,152.055 4.205,152.674 3.966 C 153.868 3.505,156.388 2.974,160.000 2.422 C 161.210 2.237,162.707 1.886,163.326 1.643 C 163.945 1.399,165.205 1.198,166.126 1.195 C 168.142 1.188,169.600 0.835,169.600 0.353 C 169.600 -0.090,166.807 -0.068,166.000 0.382 M229.600 0.392 C 229.600 0.846,230.594 1.098,233.400 1.353 C 235.729 1.565,239.326 2.294,244.600 3.623 C 245.700 3.900,247.276 4.207,248.103 4.305 C 248.929 4.404,249.705 4.645,249.826 4.842 C 249.948 5.039,250.376 5.200,250.778 5.200 C 251.546 5.200,253.764 5.809,258.889 7.425 C 260.588 7.961,262.298 8.406,262.689 8.413 C 263.080 8.420,263.749 8.690,264.176 9.013 C 264.604 9.336,265.333 9.600,265.796 9.600 C 266.260 9.600,266.811 9.744,267.020 9.919 C 267.229 10.095,268.390 10.570,269.600 10.975 C 270.810 11.380,271.971 11.867,272.180 12.056 C 272.389 12.245,272.869 12.400,273.248 12.400 C 273.626 12.400,274.445 12.659,275.068 12.975 C 276.965 13.938,280.803 15.600,281.130 15.600 C 281.879 15.600,295.132 22.245,299.400 24.760 C 300.060 25.149,301.500 25.965,302.600 26.573 C 303.700 27.182,304.884 27.932,305.231 28.240 C 305.579 28.548,305.998 28.800,306.162 28.800 C 306.327 28.800,307.801 29.700,309.438 30.800 C 311.076 31.900,312.508 32.800,312.622 32.800 C 312.820 32.800,318.913 37.162,321.400 39.085 C 322.060 39.595,322.780 40.146,323.000 40.309 C 323.939 41.007,331.073 46.773,331.839 47.454 C 332.301 47.864,333.916 49.280,335.428 50.600 C 338.884 53.618,347.495 62.246,350.400 65.603 C 351.610 67.001,353.114 68.697,353.743 69.373 C 354.371 70.048,355.419 71.320,356.071 72.200 C 356.724 73.080,357.874 74.467,358.629 75.283 C 359.383 76.098,360.000 76.876,360.000 77.011 C 360.000 77.146,360.225 77.508,360.500 77.815 C 361.308 78.716,361.745 79.277,363.446 81.600 C 365.828 84.852,370.400 91.617,370.400 91.889 C 370.400 92.018,370.850 92.714,371.400 93.436 C 371.950 94.157,372.400 94.939,372.400 95.173 C 372.400 95.408,372.580 95.600,372.800 95.600 C 373.020 95.600,373.200 95.777,373.200 95.994 C 373.200 96.502,375.669 100.558,376.084 100.733 C 376.258 100.807,376.400 101.201,376.400 101.610 C 376.400 102.018,376.558 102.450,376.750 102.569 C 376.943 102.688,377.633 103.824,378.283 105.093 C 380.193 108.821,380.253 108.937,381.013 110.400 C 382.050 112.394,382.153 112.607,384.007 116.600 C 384.927 118.580,385.858 120.650,386.077 121.200 C 386.295 121.750,386.727 122.710,387.037 123.332 C 387.347 123.955,387.600 124.810,387.600 125.232 C 387.600 125.655,387.766 126.000,387.968 126.000 C 388.171 126.000,388.462 126.585,388.614 127.300 C 388.767 128.015,389.014 128.780,389.164 129.000 C 389.313 129.220,389.767 130.390,390.173 131.600 C 390.579 132.810,391.067 133.971,391.256 134.180 C 391.445 134.389,391.600 134.953,391.600 135.434 C 391.600 135.915,391.869 136.824,392.198 137.454 C 392.526 138.084,392.796 138.904,392.798 139.276 C 392.799 139.648,392.960 140.052,393.156 140.173 C 393.351 140.294,393.607 140.979,393.725 141.696 C 393.842 142.413,394.236 143.990,394.600 145.200 C 395.508 148.212,396.383 151.484,396.794 153.400 C 396.983 154.280,397.434 156.170,397.796 157.600 C 398.158 159.030,398.540 160.920,398.645 161.800 C 398.955 164.406,399.190 165.200,399.651 165.200 C 400.199 165.200,399.872 163.154,398.211 156.200 C 397.843 154.660,397.397 152.770,397.220 152.000 C 396.427 148.549,395.879 146.548,395.553 145.905 C 395.359 145.523,395.200 145.000,395.200 144.742 C 395.200 143.976,392.724 136.232,392.347 135.820 C 392.156 135.611,392.000 135.135,392.000 134.762 C 392.000 134.106,389.155 126.512,388.382 125.105 C 388.172 124.723,388.000 124.233,388.000 124.016 C 388.000 123.174,379.289 105.222,377.220 101.800 C 376.555 100.700,375.886 99.530,375.733 99.200 C 375.221 98.092,369.508 89.032,367.283 85.800 C 354.930 67.855,337.835 50.209,320.800 37.819 C 318.710 36.299,316.940 34.908,316.867 34.727 C 316.793 34.547,316.569 34.400,316.368 34.400 C 316.167 34.400,314.742 33.500,313.200 32.400 C 311.658 31.300,310.296 30.400,310.172 30.400 C 310.048 30.400,309.357 29.950,308.636 29.400 C 307.914 28.850,307.194 28.400,307.036 28.400 C 306.877 28.400,306.157 27.950,305.436 27.400 C 304.714 26.850,304.003 26.400,303.854 26.400 C 303.706 26.400,302.913 25.978,302.092 25.463 C 298.871 23.440,287.360 17.488,283.400 15.797 C 281.436 14.958,280.077 14.362,277.089 13.030 C 275.818 12.464,274.543 12.000,274.256 12.000 C 273.968 12.000,273.610 11.877,273.459 11.726 C 272.787 11.053,256.662 5.760,251.200 4.418 C 250.430 4.229,248.794 3.787,247.565 3.437 C 246.336 3.087,244.949 2.800,244.484 2.800 C 244.018 2.800,243.224 2.637,242.719 2.439 C 242.213 2.240,240.000 1.771,237.800 1.397 C 235.600 1.022,233.487 0.555,233.105 0.358 C 232.171 -0.124,229.600 -0.099,229.600 0.392 M399.300 238.274 C 399.025 238.754,398.800 239.933,398.800 240.894 C 398.800 241.854,398.629 242.811,398.421 243.020 C 398.212 243.229,397.845 244.480,397.604 245.800 C 396.779 250.324,395.729 254.560,395.153 255.695 C 394.959 256.077,394.800 256.682,394.800 257.041 C 394.800 257.771,393.927 260.611,392.414 264.800 C 392.136 265.570,391.818 266.697,391.708 267.305 C 391.598 267.913,391.349 268.508,391.154 268.629 C 390.959 268.749,390.799 269.152,390.798 269.524 C 390.796 269.896,390.526 270.716,390.198 271.346 C 389.869 271.976,389.600 272.713,389.600 272.984 C 389.600 273.447,388.817 275.331,387.974 276.895 C 387.768 277.277,387.600 277.767,387.600 277.984 C 387.600 278.201,387.128 279.418,386.552 280.689 C 384.715 284.740,384.400 285.511,384.400 285.960 C 384.400 286.202,384.220 286.400,384.000 286.400 C 383.780 286.400,383.600 286.584,383.600 286.808 C 383.600 287.032,382.880 288.717,382.000 290.553 C 381.120 292.388,380.400 294.094,380.400 294.345 C 380.400 294.595,380.238 294.800,380.039 294.800 C 379.841 294.800,379.489 295.295,379.257 295.900 C 379.025 296.505,378.113 298.260,377.229 299.800 C 376.346 301.340,375.492 302.869,375.331 303.198 C 374.236 305.440,366.008 318.107,365.500 318.333 C 365.335 318.407,365.200 318.645,365.200 318.862 C 365.200 319.079,364.975 319.508,364.700 319.815 C 363.527 321.123,363.200 321.588,363.200 321.950 C 363.200 322.161,363.063 322.393,362.895 322.467 C 362.728 322.540,361.153 324.466,359.395 326.748 C 357.638 329.029,355.593 331.549,354.851 332.348 C 354.109 333.146,352.849 334.610,352.051 335.600 C 350.400 337.648,344.157 344.183,340.641 347.545 C 339.343 348.785,337.619 350.438,336.809 351.217 C 335.999 351.997,334.811 353.047,334.168 353.550 C 333.526 354.054,332.010 355.336,330.800 356.399 C 328.129 358.746,324.854 361.359,322.300 363.181 C 321.255 363.926,320.400 364.685,320.400 364.868 C 320.400 365.051,320.130 365.200,319.800 365.200 C 319.470 365.200,319.200 365.339,319.200 365.509 C 319.200 365.679,318.570 366.157,317.800 366.572 C 317.030 366.987,316.400 367.478,316.400 367.663 C 316.400 367.848,316.212 368.000,315.983 368.000 C 315.754 368.000,314.622 368.697,313.468 369.549 C 312.315 370.402,309.128 372.474,306.386 374.154 C 303.643 375.834,301.130 377.377,300.800 377.583 C 299.043 378.680,286.812 384.871,283.000 386.593 C 281.680 387.189,279.650 388.110,278.489 388.638 C 277.328 389.167,276.201 389.600,275.984 389.600 C 275.581 389.600,275.209 389.759,272.868 390.932 C 272.135 391.300,271.200 391.600,270.791 391.600 C 270.382 391.600,269.945 391.766,269.819 391.969 C 269.694 392.172,269.014 392.465,268.309 392.620 C 267.603 392.775,266.750 393.041,266.413 393.211 C 266.076 393.381,264.720 393.845,263.400 394.242 C 262.080 394.639,260.829 395.107,260.620 395.282 C 260.411 395.457,259.781 395.606,259.220 395.614 C 258.659 395.622,257.750 395.886,257.200 396.200 C 256.650 396.514,255.793 396.778,255.295 396.786 C 254.797 396.794,254.077 396.959,253.695 397.153 C 252.884 397.564,249.531 398.434,247.800 398.683 C 247.140 398.777,246.240 399.000,245.800 399.179 C 244.899 399.543,241.690 400.252,238.400 400.813 C 237.190 401.020,234.670 401.470,232.800 401.815 C 230.930 402.160,227.826 402.576,225.901 402.740 C 223.953 402.905,222.181 403.265,221.901 403.552 C 221.139 404.335,227.104 403.722,235.000 402.205 C 236.760 401.867,239.267 401.403,240.571 401.175 C 241.875 400.947,243.090 400.668,243.272 400.556 C 243.454 400.443,244.457 400.201,245.501 400.017 C 250.131 399.203,260.644 396.069,270.200 392.654 C 278.239 389.781,291.185 383.823,298.757 379.512 C 300.604 378.460,302.169 377.600,302.236 377.600 C 302.302 377.600,304.540 376.205,307.207 374.500 C 309.875 372.795,312.364 371.220,312.738 371.000 C 314.588 369.912,325.309 361.965,328.200 359.539 C 328.640 359.169,329.810 358.199,330.800 357.383 C 353.237 338.881,375.439 309.271,385.975 283.800 C 386.703 282.040,387.612 279.880,387.994 279.000 C 388.981 276.733,389.783 274.649,390.995 271.200 C 391.575 269.550,392.309 267.609,392.625 266.886 C 392.941 266.164,393.200 265.307,393.200 264.981 C 393.200 264.655,393.358 264.077,393.550 263.695 C 393.877 263.046,394.902 259.744,395.627 257.000 C 395.802 256.340,396.216 254.810,396.548 253.600 C 398.054 248.112,399.200 243.053,399.200 241.898 C 399.200 241.382,399.393 240.767,399.629 240.531 C 399.865 240.295,400.000 239.494,399.929 238.751 C 399.805 237.455,399.780 237.436,399.300 238.274 M0.000 243.805 C 0.000 244.358,0.157 245.123,0.350 245.505 C 0.542 245.887,1.008 247.550,1.385 249.200 C 1.762 250.850,2.218 252.740,2.398 253.400 C 3.183 256.270,4.047 259.181,4.833 261.600 C 5.297 263.030,5.821 264.740,5.996 265.400 C 6.356 266.757,9.004 274.179,9.564 275.400 C 9.766 275.840,10.510 277.640,11.217 279.400 C 12.776 283.277,14.241 286.510,16.837 291.800 C 19.830 297.897,24.027 305.523,25.462 307.473 C 25.978 308.174,26.400 308.877,26.400 309.036 C 26.400 309.194,26.850 309.914,27.400 310.636 C 27.950 311.357,28.400 312.043,28.400 312.160 C 28.400 312.277,29.571 314.044,31.001 316.087 C 32.432 318.129,33.827 320.133,34.101 320.540 C 41.220 331.100,61.330 352.704,68.957 357.984 C 69.421 358.305,69.995 358.755,70.234 358.984 C 70.898 359.620,73.534 361.728,76.200 363.754 C 77.520 364.757,78.780 365.727,79.000 365.910 C 80.919 367.503,95.383 376.898,97.200 377.732 C 97.530 377.883,98.340 378.336,99.000 378.738 C 103.160 381.271,112.086 385.754,117.800 388.180 C 118.680 388.554,119.940 389.091,120.600 389.374 C 122.649 390.252,124.732 391.081,128.200 392.400 C 128.640 392.567,129.720 392.981,130.600 393.318 C 132.008 393.859,135.433 394.988,140.600 396.614 C 141.480 396.891,142.920 397.311,143.800 397.548 C 144.680 397.785,146.480 398.270,147.800 398.626 C 149.120 398.983,150.830 399.419,151.600 399.597 C 152.370 399.774,153.900 400.142,155.000 400.415 C 156.100 400.688,157.810 401.055,158.800 401.231 C 159.790 401.407,161.140 401.660,161.800 401.793 C 163.204 402.077,169.092 403.069,171.400 403.411 C 175.084 403.956,177.200 404.057,177.200 403.687 C 177.200 403.181,175.226 402.800,172.610 402.800 C 171.460 402.800,169.998 402.618,169.360 402.396 C 168.722 402.174,166.940 401.807,165.400 401.581 C 161.516 401.010,159.064 400.555,155.800 399.799 C 154.260 399.442,152.273 399.016,151.385 398.852 C 150.497 398.687,149.564 398.425,149.312 398.269 C 149.060 398.113,148.076 397.820,147.127 397.618 C 143.635 396.875,141.791 396.345,141.420 395.977 C 141.211 395.770,140.457 395.600,139.744 395.600 C 139.031 395.600,138.345 395.434,138.219 395.231 C 138.094 395.028,137.414 394.735,136.709 394.580 C 136.003 394.425,135.150 394.163,134.813 393.997 C 134.476 393.832,133.210 393.380,132.000 392.992 C 130.790 392.605,129.629 392.133,129.420 391.944 C 129.211 391.755,128.714 391.600,128.315 391.600 C 127.916 391.600,127.277 391.426,126.895 391.213 C 126.513 391.001,124.760 390.266,123.000 389.580 C 119.875 388.362,117.456 387.299,113.394 385.358 C 112.291 384.831,111.181 384.400,110.928 384.400 C 110.674 384.400,110.407 384.265,110.333 384.100 C 110.260 383.935,108.490 382.945,106.400 381.899 C 102.338 379.868,99.359 378.236,96.294 376.364 C 95.246 375.724,94.211 375.200,93.994 375.200 C 93.777 375.200,93.600 375.061,93.600 374.891 C 93.600 374.721,92.925 374.226,92.100 373.791 C 91.275 373.356,90.420 372.850,90.200 372.667 C 89.980 372.484,88.782 371.674,87.537 370.867 C 83.490 368.244,78.585 364.832,77.773 364.075 C 77.337 363.669,76.444 362.992,75.790 362.572 C 75.135 362.151,73.929 361.195,73.109 360.447 C 72.288 359.699,71.208 358.808,70.709 358.467 C 70.209 358.126,69.710 357.743,69.600 357.617 C 69.380 357.365,64.878 353.485,63.039 351.962 C 61.067 350.329,51.134 340.306,48.600 337.393 C 47.280 335.875,45.480 333.805,44.600 332.793 C 43.720 331.781,42.192 329.928,41.204 328.676 C 40.217 327.424,39.272 326.400,39.104 326.400 C 38.937 326.400,38.800 326.212,38.800 325.983 C 38.800 325.754,38.623 325.349,38.406 325.083 C 36.619 322.892,31.755 316.170,30.515 314.179 C 30.248 313.750,28.898 311.604,27.515 309.409 C 24.625 304.823,24.187 304.100,23.628 303.000 C 23.405 302.560,22.501 300.940,21.620 299.400 C 20.008 296.583,15.497 287.577,14.207 284.600 C 13.826 283.720,13.276 282.460,12.986 281.800 C 12.696 281.140,12.164 279.880,11.803 279.000 C 11.441 278.120,10.992 277.040,10.804 276.600 C 10.616 276.160,10.148 274.900,9.765 273.800 C 9.382 272.700,8.918 271.629,8.734 271.420 C 8.550 271.211,8.400 270.637,8.400 270.144 C 8.400 269.651,8.220 269.136,8.000 269.000 C 7.780 268.864,7.599 268.448,7.598 268.076 C 7.596 267.704,7.326 266.884,6.998 266.254 C 6.669 265.624,6.400 264.690,6.400 264.178 C 6.400 263.666,6.240 263.149,6.045 263.028 C 5.850 262.907,5.568 262.155,5.418 261.355 C 5.268 260.556,4.999 259.609,4.820 259.251 C 4.378 258.368,3.013 253.152,2.452 250.200 C 2.284 249.320,1.934 248.207,1.674 247.726 C 1.413 247.246,1.200 246.225,1.200 245.459 C 1.200 243.847,0.868 242.800,0.357 242.800 C 0.161 242.800,0.000 243.252,0.000 243.805 " stroke="none" fill="#f5ce5c" fill-rule="evenodd"></path><path id="path4" d="M81.911 94.693 C 82.851 94.778,84.291 94.777,85.111 94.691 C 85.930 94.605,85.160 94.536,83.400 94.537 C 81.640 94.539,80.970 94.609,81.911 94.693 M298.711 94.693 C 299.651 94.778,301.091 94.777,301.911 94.691 C 302.730 94.605,301.960 94.536,300.200 94.537 C 298.440 94.539,297.770 94.609,298.711 94.693 M77.400 95.200 C 76.896 95.417,76.822 95.544,77.200 95.544 C 77.530 95.544,78.160 95.389,78.600 95.200 C 79.104 94.983,79.178 94.856,78.800 94.856 C 78.470 94.856,77.840 95.011,77.400 95.200 M88.200 95.200 C 88.640 95.389,89.270 95.544,89.600 95.544 C 89.978 95.544,89.904 95.417,89.400 95.200 C 88.960 95.011,88.330 94.856,88.000 94.856 C 87.622 94.856,87.696 94.983,88.200 95.200 M294.200 95.200 C 293.696 95.417,293.622 95.544,294.000 95.544 C 294.330 95.544,294.960 95.389,295.400 95.200 C 295.904 94.983,295.978 94.856,295.600 94.856 C 295.270 94.856,294.640 95.011,294.200 95.200 M305.000 95.200 C 305.440 95.389,306.070 95.544,306.400 95.544 C 306.778 95.544,306.704 95.417,306.200 95.200 C 305.760 95.011,305.130 94.856,304.800 94.856 C 304.422 94.856,304.496 94.983,305.000 95.200 M308.800 96.200 C 309.350 96.514,310.070 96.771,310.400 96.770 C 310.730 96.769,310.394 96.506,309.654 96.184 C 307.951 95.445,307.494 95.453,308.800 96.200 M94.400 96.984 C 94.400 97.094,95.120 97.551,96.000 98.000 C 96.880 98.449,97.600 98.726,97.600 98.616 C 97.600 98.506,96.880 98.049,96.000 97.600 C 95.120 97.151,94.400 96.874,94.400 96.984 M311.200 96.984 C 311.200 97.094,311.920 97.551,312.800 98.000 C 313.680 98.449,314.400 98.726,314.400 98.616 C 314.400 98.506,313.680 98.049,312.800 97.600 C 311.920 97.151,311.200 96.874,311.200 96.984 M98.000 98.946 C 98.000 99.056,98.540 99.530,99.200 100.000 C 99.860 100.470,100.400 100.764,100.400 100.654 C 100.400 100.544,99.860 100.070,99.200 99.600 C 98.540 99.130,98.000 98.836,98.000 98.946 M314.800 98.946 C 314.800 99.056,315.340 99.530,316.000 100.000 C 316.660 100.470,317.200 100.764,317.200 100.654 C 317.200 100.544,316.660 100.070,316.000 99.600 C 315.340 99.130,314.800 98.836,314.800 98.946 M64.585 102.500 L 62.600 104.600 64.700 102.615 C 66.651 100.771,66.983 100.400,66.685 100.400 C 66.622 100.400,65.677 101.345,64.585 102.500 M281.385 102.500 L 279.400 104.600 281.500 102.615 C 283.451 100.771,283.783 100.400,283.485 100.400 C 283.422 100.400,282.477 101.345,281.385 102.500 M105.663 107.017 C 106.123 107.796,106.586 108.347,106.693 108.240 C 106.883 108.050,105.299 105.600,104.986 105.600 C 104.899 105.600,105.203 106.238,105.663 107.017 M322.463 107.017 C 322.923 107.796,323.386 108.347,323.493 108.240 C 323.683 108.050,322.099 105.600,321.786 105.600 C 321.699 105.600,322.003 106.238,322.463 107.017 M59.432 109.707 C 58.644 111.344,58.005 112.935,58.011 113.242 C 58.017 113.549,58.545 112.572,59.186 111.071 C 59.826 109.571,60.566 108.081,60.832 107.762 C 61.097 107.442,61.213 107.079,61.089 106.955 C 60.965 106.832,60.219 108.070,59.432 109.707 M275.951 110.243 C 275.292 111.697,274.820 112.954,274.903 113.036 C 274.985 113.118,275.611 111.929,276.293 110.393 C 276.976 108.857,277.448 107.600,277.342 107.600 C 277.236 107.600,276.611 108.789,275.951 110.243 M57.429 115.429 C 57.281 116.015,57.238 116.572,57.332 116.666 C 57.427 116.760,57.624 116.358,57.771 115.771 C 57.919 115.185,57.962 114.628,57.868 114.534 C 57.773 114.440,57.576 114.842,57.429 115.429 M274.229 115.429 C 274.081 116.015,274.038 116.572,274.132 116.666 C 274.227 116.760,274.424 116.358,274.571 115.771 C 274.719 115.185,274.762 114.628,274.668 114.534 C 274.573 114.440,274.376 114.842,274.229 115.429 M74.200 115.769 C 71.742 116.925,69.107 119.535,67.982 121.928 C 67.046 123.920,66.767 129.727,67.568 130.528 C 67.806 130.766,68.000 131.242,68.000 131.587 C 68.000 131.932,68.830 133.163,69.845 134.323 C 77.277 142.819,90.811 137.774,90.802 126.511 C 90.795 118.211,81.624 112.277,74.200 115.769 M291.000 115.786 C 286.295 118.040,283.937 121.741,283.937 126.869 C 283.937 128.645,284.131 130.291,284.368 130.528 C 284.606 130.766,284.800 131.242,284.800 131.587 C 284.800 131.932,285.630 133.163,286.645 134.323 C 294.077 142.819,307.611 137.774,307.602 126.511 C 307.595 118.203,298.381 112.250,291.000 115.786 M81.829 115.866 C 88.274 118.042,91.832 124.446,89.700 130.033 C 85.652 140.636,71.842 140.617,68.106 130.003 C 65.300 122.032,73.888 113.184,81.829 115.866 M298.629 115.866 C 309.373 119.494,309.939 133.421,299.497 137.238 C 288.002 141.439,279.165 126.964,288.118 118.600 C 291.398 115.536,294.930 114.617,298.629 115.866 M109.693 117.600 C 109.693 118.370,109.775 118.685,109.876 118.300 C 109.976 117.915,109.976 117.285,109.876 116.900 C 109.775 116.515,109.693 116.830,109.693 117.600 M326.493 117.600 C 326.493 118.370,326.575 118.685,326.676 118.300 C 326.776 117.915,326.776 117.285,326.676 116.900 C 326.575 116.515,326.493 116.830,326.493 117.600 M56.969 125.200 C 56.969 129.710,57.027 131.555,57.098 129.300 C 57.170 127.045,57.170 123.355,57.098 121.100 C 57.027 118.845,56.969 120.690,56.969 125.200 M273.769 125.200 C 273.769 129.710,273.827 131.555,273.898 129.300 C 273.970 127.045,273.970 123.355,273.898 121.100 C 273.827 118.845,273.769 120.690,273.769 125.200 M109.693 132.800 C 109.693 133.570,109.775 133.885,109.876 133.500 C 109.976 133.115,109.976 132.485,109.876 132.100 C 109.775 131.715,109.693 132.030,109.693 132.800 M326.493 132.800 C 326.493 133.570,326.575 133.885,326.676 133.500 C 326.776 133.115,326.776 132.485,326.676 132.100 C 326.575 131.715,326.493 132.030,326.493 132.800 M57.256 134.000 C 57.256 134.330,57.411 134.960,57.600 135.400 C 57.817 135.904,57.944 135.978,57.944 135.600 C 57.944 135.270,57.789 134.640,57.600 134.200 C 57.383 133.696,57.256 133.622,57.256 134.000 M274.056 134.000 C 274.056 134.330,274.211 134.960,274.400 135.400 C 274.617 135.904,274.744 135.978,274.744 135.600 C 274.744 135.270,274.589 134.640,274.400 134.200 C 274.183 133.696,274.056 133.622,274.056 134.000 M58.011 137.158 C 57.995 137.952,60.817 143.716,61.089 143.445 C 61.213 143.321,61.097 142.958,60.832 142.638 C 60.566 142.319,59.826 140.829,59.186 139.329 C 58.545 137.828,58.017 136.851,58.011 137.158 M274.800 137.342 C 274.800 137.802,277.135 142.800,277.350 142.800 C 277.460 142.800,277.002 141.585,276.332 140.100 C 275.107 137.386,274.800 136.833,274.800 137.342 M105.663 143.383 C 105.203 144.162,104.899 144.800,104.986 144.800 C 105.299 144.800,106.883 142.350,106.693 142.160 C 106.586 142.053,106.123 142.604,105.663 143.383 M322.463 143.383 C 322.003 144.162,321.699 144.800,321.786 144.800 C 322.099 144.800,323.683 142.350,323.493 142.160 C 323.386 142.053,322.923 142.604,322.463 143.383 M64.600 148.000 C 65.683 149.100,66.660 150.000,66.770 150.000 C 66.880 150.000,66.083 149.100,65.000 148.000 C 63.917 146.900,62.940 146.000,62.830 146.000 C 62.720 146.000,63.517 146.900,64.600 148.000 M281.400 148.000 C 282.483 149.100,283.460 150.000,283.570 150.000 C 283.680 150.000,282.883 149.100,281.800 148.000 C 280.717 146.900,279.740 146.000,279.630 146.000 C 279.520 146.000,280.317 146.900,281.400 148.000 M99.000 150.635 L 97.800 151.666 99.100 150.806 C 99.815 150.333,100.400 149.868,100.400 149.773 C 100.400 149.473,100.231 149.578,99.000 150.635 M315.800 150.635 L 314.600 151.666 315.900 150.806 C 316.615 150.333,317.200 149.868,317.200 149.773 C 317.200 149.473,317.031 149.578,315.800 150.635 M95.900 152.427 C 95.075 152.863,94.400 153.308,94.400 153.418 C 94.400 153.527,95.120 153.249,96.000 152.800 C 96.880 152.351,97.600 151.897,97.600 151.792 C 97.600 151.530,97.597 151.531,95.900 152.427 M312.700 152.427 C 311.875 152.863,311.200 153.308,311.200 153.418 C 311.200 153.527,311.920 153.249,312.800 152.800 C 313.680 152.351,314.400 151.897,314.400 151.792 C 314.400 151.530,314.397 151.531,312.700 152.427 M308.800 154.200 C 307.494 154.947,307.951 154.955,309.654 154.216 C 310.394 153.894,310.730 153.631,310.400 153.630 C 310.070 153.629,309.350 153.886,308.800 154.200 M77.400 155.200 C 77.840 155.389,78.470 155.544,78.800 155.544 C 79.178 155.544,79.104 155.417,78.600 155.200 C 78.160 155.011,77.530 154.856,77.200 154.856 C 76.822 154.856,76.896 154.983,77.400 155.200 M88.200 155.200 C 87.696 155.417,87.622 155.544,88.000 155.544 C 88.330 155.544,88.960 155.389,89.400 155.200 C 89.904 154.983,89.978 154.856,89.600 154.856 C 89.270 154.856,88.640 155.011,88.200 155.200 M294.200 155.200 C 294.640 155.389,295.270 155.544,295.600 155.544 C 295.978 155.544,295.904 155.417,295.400 155.200 C 294.960 155.011,294.330 154.856,294.000 154.856 C 293.622 154.856,293.696 154.983,294.200 155.200 M305.000 155.200 C 304.496 155.417,304.422 155.544,304.800 155.544 C 305.130 155.544,305.760 155.389,306.200 155.200 C 306.704 154.983,306.778 154.856,306.400 154.856 C 306.070 154.856,305.440 155.011,305.000 155.200 M81.911 155.893 C 82.851 155.978,84.291 155.977,85.111 155.891 C 85.930 155.805,85.160 155.736,83.400 155.737 C 81.640 155.739,80.970 155.809,81.911 155.893 M298.711 155.893 C 299.651 155.978,301.091 155.977,301.911 155.891 C 302.730 155.805,301.960 155.736,300.200 155.737 C 298.440 155.739,297.770 155.809,298.711 155.893 M303.600 253.319 C 303.600 253.394,304.050 253.847,304.600 254.325 C 305.150 254.803,305.600 255.037,305.600 254.843 C 305.600 254.650,305.150 254.197,304.600 253.837 C 304.050 253.476,303.600 253.243,303.600 253.319 M306.063 265.200 C 306.023 265.970,305.906 267.320,305.802 268.200 L 305.612 269.800 306.023 268.200 C 306.248 267.320,306.366 265.970,306.284 265.200 L 306.134 263.800 306.063 265.200 M87.647 266.233 C 87.673 267.095,87.839 268.340,88.015 269.000 C 88.218 269.756,88.254 269.238,88.115 267.600 C 87.867 264.686,87.575 263.831,87.647 266.233 M304.622 275.022 C 304.472 275.825,304.428 276.562,304.526 276.660 C 304.624 276.757,304.827 276.181,304.978 275.378 C 305.128 274.575,305.172 273.838,305.074 273.740 C 304.976 273.643,304.773 274.219,304.622 275.022 M89.606 278.233 C 89.609 278.655,89.795 279.270,90.018 279.600 C 90.315 280.038,90.352 279.876,90.156 279.000 C 89.827 277.529,89.598 277.210,89.606 278.233 M302.629 283.029 C 302.481 283.615,302.438 284.172,302.532 284.266 C 302.627 284.360,302.824 283.958,302.971 283.371 C 303.119 282.785,303.162 282.228,303.068 282.134 C 302.973 282.040,302.776 282.442,302.629 283.029 M91.628 284.959 C 91.586 285.504,93.291 290.042,93.471 289.862 C 93.558 289.776,93.185 288.556,92.642 287.152 C 92.100 285.749,91.643 284.762,91.628 284.959 M300.465 289.417 C 299.795 290.888,299.923 291.202,300.647 289.865 C 300.986 289.240,301.188 288.654,301.096 288.563 C 301.005 288.471,300.721 288.856,300.465 289.417 M93.605 290.617 C 93.599 291.148,98.410 300.927,98.584 300.740 C 98.656 300.663,97.566 298.260,96.162 295.400 C 94.758 292.540,93.607 290.388,93.605 290.617 M297.683 295.813 C 296.982 297.236,296.493 298.400,296.598 298.400 C 296.866 298.400,299.285 293.551,299.106 293.372 C 299.025 293.292,298.385 294.390,297.683 295.813 M295.246 300.404 C 294.752 301.282,294.433 302.000,294.535 302.000 C 294.806 302.000,296.459 299.126,296.287 298.954 C 296.208 298.874,295.739 299.527,295.246 300.404 M100.246 303.700 C 101.086 305.132,103.655 308.800,103.818 308.800 C 103.922 308.800,103.169 307.540,102.145 306.000 C 101.120 304.460,100.208 303.200,100.118 303.200 C 100.027 303.200,100.085 303.425,100.246 303.700 M292.121 305.500 C 287.112 313.400,278.479 322.368,270.652 327.800 C 267.536 329.962,266.079 331.156,267.800 330.136 C 273.233 326.917,281.048 320.061,285.964 314.200 C 289.579 309.892,293.532 304.400,293.018 304.400 C 292.908 304.400,292.505 304.895,292.121 305.500 M104.754 310.336 C 105.199 310.960,105.883 311.725,106.274 312.036 C 106.665 312.346,106.388 311.835,105.659 310.900 C 104.174 308.996,103.502 308.577,104.754 310.336 M108.670 315.000 C 111.316 318.068,115.534 322.136,118.600 324.576 L 121.000 326.486 118.800 324.567 C 117.590 323.512,114.350 320.388,111.601 317.624 C 108.851 314.861,107.532 313.680,108.670 315.000 M122.200 327.369 C 123.497 328.510,127.200 330.909,127.200 330.609 C 127.200 330.507,126.255 329.793,125.100 329.022 C 121.041 326.310,120.916 326.239,122.200 327.369 M129.600 332.135 C 129.600 332.406,132.474 334.059,132.646 333.887 C 132.726 333.808,132.073 333.339,131.196 332.846 C 130.318 332.352,129.600 332.033,129.600 332.135 M263.100 332.629 C 261.605 333.440,261.696 333.778,263.200 333.000 C 263.860 332.659,264.400 332.294,264.400 332.190 C 264.400 331.932,264.357 331.947,263.100 332.629 M133.200 334.198 C 133.200 334.466,138.049 336.885,138.228 336.706 C 138.308 336.625,137.210 335.985,135.787 335.283 C 134.364 334.582,133.200 334.093,133.200 334.198 M258.800 335.000 C 257.810 335.530,257.142 335.972,257.316 335.982 C 257.741 336.006,260.800 334.434,260.800 334.192 C 260.800 333.927,260.817 333.920,258.800 335.000 M140.752 337.809 C 141.935 338.370,142.978 338.756,143.068 338.665 C 143.159 338.574,142.461 338.188,141.517 337.806 C 138.780 336.700,138.417 336.701,140.752 337.809 M251.400 338.186 C 250.740 338.488,250.470 338.743,250.800 338.753 C 251.130 338.763,251.850 338.514,252.400 338.200 C 253.673 337.472,252.980 337.462,251.400 338.186 M147.800 340.400 C 148.240 340.589,148.870 340.744,149.200 340.744 C 149.578 340.744,149.504 340.617,149.000 340.400 C 148.560 340.211,147.930 340.056,147.600 340.056 C 147.222 340.056,147.296 340.183,147.800 340.400 M245.000 340.400 C 244.496 340.617,244.422 340.744,244.800 340.744 C 245.130 340.744,245.760 340.589,246.200 340.400 C 246.704 340.183,246.778 340.056,246.400 340.056 C 246.070 340.056,245.440 340.211,245.000 340.400 M152.200 341.600 C 152.640 341.789,153.360 341.938,153.800 341.932 C 154.443 341.923,154.404 341.857,153.600 341.600 C 152.232 341.162,151.181 341.162,152.200 341.600 M240.400 341.600 C 239.596 341.857,239.557 341.923,240.200 341.932 C 240.640 341.938,241.360 341.789,241.800 341.600 C 242.819 341.162,241.768 341.162,240.400 341.600 M155.600 342.400 C 156.150 342.576,156.960 342.720,157.400 342.720 C 158.033 342.720,157.992 342.654,157.200 342.400 C 156.650 342.224,155.840 342.080,155.400 342.080 C 154.767 342.080,154.808 342.146,155.600 342.400 M236.800 342.400 C 235.996 342.657,235.957 342.723,236.600 342.732 C 237.040 342.738,237.760 342.589,238.200 342.400 C 239.219 341.962,238.168 341.962,236.800 342.400 M233.700 343.076 C 234.085 343.176,234.715 343.176,235.100 343.076 C 235.485 342.975,235.170 342.893,234.400 342.893 C 233.630 342.893,233.315 342.975,233.700 343.076 M163.000 343.589 C 164.216 343.909,167.873 344.122,167.567 343.855 C 167.475 343.775,166.140 343.611,164.600 343.491 C 162.902 343.359,162.272 343.398,163.000 343.589 M228.200 343.600 L 226.200 343.874 228.000 343.890 C 228.990 343.898,230.340 343.768,231.000 343.600 C 232.577 343.199,231.125 343.199,228.200 343.600 " stroke="none" fill="#bca49c" fill-rule="evenodd"></path></g></svg>