<svg id="svg" version="1.1" xmlns="http://www.w3.org/2000/svg" xmlns:xlink="http://www.w3.org/1999/xlink" width="400" height="397.98488664987406" viewBox="0, 0, 400,397.98488664987406"><g id="svgg"><path id="path0" d="M0.006 92.040 C 0.010 151.609,0.148 183.869,0.398 183.483 C 0.610 183.154,0.787 181.908,0.790 180.714 C 0.793 179.519,1.070 176.743,1.405 174.545 C 1.740 172.346,2.204 169.294,2.437 167.761 C 2.979 164.182,3.934 159.347,4.407 157.783 C 4.610 157.110,4.776 156.231,4.776 155.828 C 4.776 155.425,5.061 154.094,5.410 152.871 C 5.759 151.648,6.228 149.930,6.454 149.055 C 7.485 145.050,9.849 137.147,10.382 135.920 C 10.572 135.483,11.012 134.229,11.358 133.134 C 11.897 131.433,13.144 128.116,14.350 125.174 C 14.529 124.736,15.225 123.157,15.895 121.664 C 16.566 120.171,17.114 118.862,17.114 118.755 C 17.114 118.581,20.027 112.327,21.262 109.851 C 22.408 107.552,25.191 102.487,26.093 101.058 C 26.627 100.211,27.065 99.413,27.065 99.285 C 27.065 97.966,39.028 80.529,44.558 73.788 C 45.116 73.108,45.916 72.123,46.336 71.599 C 50.958 65.838,62.145 54.373,68.626 48.756 C 70.142 47.443,71.575 46.186,71.810 45.964 C 72.046 45.742,73.672 44.430,75.423 43.049 C 77.174 41.668,78.876 40.322,79.204 40.059 C 82.711 37.251,91.768 31.045,92.360 31.045 C 92.531 31.045,92.730 30.900,92.803 30.722 C 92.931 30.410,93.700 29.931,101.190 25.494 C 108.325 21.268,123.983 13.896,130.547 11.672 C 131.532 11.338,132.876 10.833,133.532 10.550 C 134.608 10.086,143.688 7.188,146.667 6.358 C 154.809 4.089,157.634 3.453,168.665 1.407 C 170.475 1.071,172.659 0.796,173.517 0.796 C 174.375 0.796,175.188 0.617,175.323 0.398 C 175.487 0.133,146.206 0.000,87.785 0.000 L 0.000 0.000 0.006 92.040 M227.861 0.398 C 227.996 0.617,228.809 0.796,229.667 0.796 C 231.072 0.796,233.003 1.102,240.000 2.434 C 243.796 3.157,247.727 4.058,248.675 4.424 C 249.178 4.618,249.919 4.776,250.321 4.776 C 250.724 4.776,251.924 5.036,252.989 5.354 C 254.054 5.671,256.537 6.410,258.507 6.995 C 267.124 9.553,276.460 12.956,282.318 15.671 C 284.030 16.465,285.517 17.114,285.621 17.114 C 286.692 17.114,304.879 26.990,309.443 30.050 C 310.096 30.488,310.945 31.025,311.329 31.244 C 312.349 31.825,318.970 36.332,319.204 36.604 C 319.313 36.732,320.746 37.815,322.388 39.012 C 333.598 47.183,347.903 60.758,356.816 71.684 C 359.547 75.031,360.842 76.684,363.070 79.663 C 365.659 83.124,370.049 89.407,370.746 90.651 C 370.965 91.041,371.547 91.921,372.040 92.607 C 372.532 93.293,372.935 93.973,372.935 94.118 C 372.935 94.263,373.355 94.952,373.868 95.648 C 374.381 96.345,375.496 98.169,376.346 99.701 C 377.195 101.234,378.293 103.204,378.785 104.080 C 381.138 108.266,385.703 117.894,387.844 123.184 C 388.641 125.154,389.441 127.124,389.622 127.562 C 389.803 128.000,390.164 128.886,390.426 129.532 C 391.020 130.999,394.955 142.925,395.555 145.075 C 396.411 148.144,397.291 151.456,397.617 152.836 C 397.798 153.602,398.229 155.346,398.575 156.710 C 398.921 158.075,399.204 159.721,399.204 160.369 C 399.204 161.016,399.383 161.656,399.602 161.791 C 399.867 161.955,400.000 134.930,400.000 81.019 L 400.000 0.000 313.807 0.000 C 256.447 0.000,227.697 0.133,227.861 0.398 M77.776 106.042 C 70.384 109.404,68.589 118.712,74.242 124.365 C 80.209 130.332,90.077 127.900,92.910 119.765 C 95.972 110.970,86.274 102.176,77.776 106.042 M302.886 105.790 C 300.049 106.765,296.836 110.249,295.996 113.260 C 292.864 124.497,306.952 132.736,314.897 124.314 C 323.085 115.634,314.185 101.909,302.886 105.790 M0.000 307.638 L 0.000 398.010 79.028 398.010 C 131.613 398.010,157.975 397.877,157.811 397.612 C 157.676 397.393,157.259 397.214,156.885 397.214 C 155.337 397.214,140.304 393.061,136.716 391.643 C 136.279 391.470,135.025 391.026,133.930 390.658 C 132.836 390.289,131.582 389.844,131.144 389.668 C 130.706 389.493,129.542 389.035,128.557 388.650 C 127.572 388.266,126.139 387.695,125.373 387.382 C 124.607 387.068,123.622 386.669,123.184 386.494 C 121.141 385.678,119.897 385.094,112.637 381.539 C 108.368 379.448,103.980 377.197,102.886 376.536 C 101.791 375.875,100.627 375.210,100.299 375.058 C 86.570 368.716,59.512 345.747,45.753 328.756 C 44.778 327.552,43.878 326.478,43.754 326.368 C 43.546 326.186,39.463 320.689,37.882 318.463 C 37.514 317.947,36.990 317.288,36.716 316.999 C 36.443 316.711,36.219 316.365,36.219 316.230 C 36.219 316.096,35.480 314.986,34.577 313.764 C 33.674 312.541,32.727 311.161,32.473 310.696 C 32.219 310.231,31.319 308.787,30.473 307.487 C 28.003 303.692,23.456 295.524,20.820 290.149 C 18.580 285.579,17.956 284.241,15.628 279.005 C 15.190 278.020,14.165 275.423,13.351 273.234 C 12.536 271.045,11.721 268.896,11.541 268.458 C 11.360 268.020,10.906 266.677,10.533 265.473 C 10.160 264.269,9.719 263.009,9.555 262.674 C 9.390 262.338,9.120 261.448,8.955 260.697 C 8.790 259.945,8.511 259.055,8.336 258.720 C 8.160 258.384,7.539 256.229,6.956 253.930 C 6.374 251.632,5.645 248.958,5.336 247.989 C 5.028 247.019,4.776 245.819,4.776 245.321 C 4.776 244.823,4.616 244.004,4.421 243.501 C 4.226 242.998,3.770 240.886,3.408 238.806 C 3.047 236.726,2.593 234.129,2.400 233.035 C 1.571 228.321,1.125 224.837,0.909 221.380 C 0.782 219.348,0.525 217.591,0.339 217.476 C 0.152 217.361,0.000 257.934,0.000 307.638 M399.469 239.469 C 399.323 239.615,399.204 240.210,399.204 240.790 C 399.204 241.371,398.958 242.729,398.658 243.808 C 398.358 244.888,397.885 246.846,397.607 248.159 C 397.328 249.473,396.847 251.443,396.536 252.537 C 396.226 253.632,395.774 255.244,395.533 256.119 C 394.922 258.329,391.030 270.185,390.437 271.642 C 390.169 272.299,389.803 273.194,389.622 273.632 C 389.441 274.070,388.641 276.040,387.843 278.010 C 384.761 285.622,379.810 295.576,375.766 302.287 C 374.975 303.600,374.149 304.988,373.930 305.373 C 371.812 309.091,362.700 322.318,360.152 325.373 C 345.131 343.386,336.063 352.062,319.993 363.799 C 314.751 367.628,303.676 374.925,303.108 374.925 C 302.993 374.925,301.755 375.626,300.356 376.482 C 298.245 377.774,284.725 384.530,281.990 385.660 C 281.552 385.841,280.478 386.288,279.602 386.653 C 277.355 387.591,276.658 387.872,274.627 388.657 C 273.642 389.037,272.478 389.501,272.040 389.686 C 270.766 390.227,259.532 393.880,256.915 394.606 C 255.602 394.970,253.990 395.417,253.333 395.600 C 252.677 395.783,250.796 396.242,249.154 396.620 C 247.512 396.998,245.811 397.453,245.373 397.632 C 244.935 397.810,279.547 397.968,322.289 397.983 L 400.000 398.010 400.000 318.607 C 400.000 274.935,399.940 239.204,399.867 239.204 C 399.794 239.204,399.615 239.323,399.469 239.469 " stroke="none" fill="#ecf3f3" fill-rule="evenodd"></path><path id="path1" d="M74.801 95.672 C 55.308 102.254,56.181 130.026,76.020 134.487 C 78.655 135.079,96.152 134.909,98.308 134.270 C 117.907 128.462,117.364 100.974,97.540 95.341 C 93.847 94.291,78.214 94.519,74.801 95.672 M300.299 95.367 C 280.106 101.302,280.261 128.056,300.526 134.475 C 302.687 135.160,319.785 135.075,322.506 134.366 C 341.906 129.313,342.527 102.012,323.384 95.759 C 319.516 94.496,304.149 94.235,300.299 95.367 M86.094 105.373 C 89.051 106.392,92.346 109.755,93.245 112.672 C 96.908 124.557,82.767 133.319,74.028 124.579 C 65.235 115.787,74.325 101.318,86.094 105.373 M311.710 105.827 C 319.077 109.384,320.773 118.989,315.035 124.653 C 307.591 131.999,295.323 126.874,295.323 116.418 C 295.323 107.830,304.104 102.155,311.710 105.827 M101.095 251.015 C 87.321 253.327,86.967 274.995,100.618 280.196 C 102.718 280.996,103.241 280.999,199.524 280.898 L 296.318 280.796 298.601 279.726 C 310.328 274.230,310.072 257.819,298.173 252.198 L 295.522 250.945 198.806 250.897 C 145.612 250.870,101.642 250.923,101.095 251.015 " stroke="none" fill="#4d2404" fill-rule="evenodd"></path><path id="path2" d="M180.348 0.537 C 180.068 0.875,178.562 1.170,176.298 1.331 C 174.316 1.471,172.358 1.767,171.946 1.987 C 171.534 2.208,170.121 2.388,168.806 2.388 C 167.491 2.388,166.312 2.555,166.186 2.758 C 166.061 2.962,164.931 3.239,163.675 3.375 C 162.420 3.510,161.082 3.791,160.702 4.000 C 160.322 4.208,159.213 4.378,158.238 4.378 C 157.263 4.378,156.357 4.552,156.226 4.765 C 156.095 4.977,155.095 5.269,154.005 5.414 C 152.914 5.559,151.926 5.833,151.808 6.023 C 151.691 6.213,150.934 6.374,150.126 6.381 C 149.318 6.388,148.309 6.656,147.884 6.978 C 147.459 7.299,146.619 7.562,146.017 7.562 C 145.415 7.562,144.824 7.722,144.704 7.916 C 144.583 8.111,143.901 8.357,143.188 8.463 C 141.884 8.657,139.700 9.362,138.413 10.004 C 138.033 10.193,137.317 10.354,136.821 10.361 C 136.326 10.368,135.573 10.637,135.148 10.958 C 134.723 11.279,134.049 11.542,133.650 11.542 C 132.922 11.542,132.662 11.642,130.217 12.868 C 129.487 13.233,128.634 13.532,128.321 13.532 C 128.007 13.532,127.439 13.692,127.059 13.886 C 126.315 14.267,124.309 15.143,122.388 15.925 C 121.731 16.192,120.925 16.570,120.597 16.765 C 120.269 16.960,119.731 17.228,119.403 17.360 C 116.848 18.387,108.168 22.652,107.682 23.120 C 107.474 23.319,106.981 23.483,106.587 23.483 C 106.193 23.483,105.871 23.658,105.871 23.873 C 105.871 24.088,105.423 24.376,104.876 24.513 C 104.328 24.651,103.881 24.923,103.881 25.118 C 103.881 25.313,103.544 25.473,103.133 25.473 C 102.722 25.473,102.177 25.725,101.921 26.033 C 101.665 26.341,100.882 26.883,100.181 27.238 C 98.714 27.980,97.798 28.526,96.119 29.661 C 95.463 30.105,94.254 30.818,93.433 31.245 C 92.612 31.672,91.940 32.160,91.940 32.329 C 91.940 32.498,91.672 32.637,91.343 32.637 C 91.015 32.637,90.746 32.816,90.746 33.035 C 90.746 33.254,90.548 33.433,90.306 33.433 C 90.064 33.433,89.187 33.970,88.358 34.627 C 87.529 35.284,86.653 35.821,86.410 35.821 C 86.168 35.821,85.970 36.000,85.970 36.219 C 85.970 36.438,85.783 36.617,85.555 36.617 C 85.326 36.617,84.656 37.065,84.066 37.612 C 83.476 38.159,82.848 38.607,82.672 38.607 C 82.495 38.607,81.956 39.026,81.474 39.538 C 80.991 40.049,80.060 40.811,79.403 41.229 C 78.224 41.981,77.517 42.543,75.078 44.670 C 74.392 45.269,73.697 45.761,73.532 45.765 C 73.368 45.768,72.552 46.443,71.719 47.264 C 70.886 48.085,69.438 49.383,68.501 50.149 C 67.564 50.915,66.289 52.035,65.668 52.637 C 65.047 53.239,64.468 53.731,64.382 53.731 C 64.193 53.731,55.721 62.129,55.721 62.317 C 55.721 62.390,55.135 63.040,54.418 63.762 C 53.702 64.484,52.444 65.915,51.624 66.943 C 50.803 67.971,49.640 69.314,49.039 69.928 C 48.438 70.542,47.325 71.851,46.564 72.836 C 45.804 73.821,44.847 74.985,44.438 75.423 C 44.028 75.861,42.963 77.204,42.071 78.408 C 41.178 79.612,40.302 80.657,40.124 80.730 C 39.947 80.803,39.801 81.046,39.801 81.269 C 39.801 81.710,37.413 84.890,36.918 85.108 C 36.753 85.181,36.617 85.468,36.617 85.746 C 36.617 86.024,36.169 86.735,35.622 87.326 C 35.075 87.916,34.627 88.616,34.627 88.880 C 34.627 89.145,34.224 89.817,33.731 90.373 C 32.746 91.487,31.976 92.615,31.574 93.532 C 31.431 93.861,30.939 94.664,30.482 95.318 C 29.496 96.730,27.983 99.420,27.625 100.398 C 27.485 100.781,27.231 101.095,27.061 101.095 C 26.892 101.095,26.641 101.542,26.503 102.090 C 26.366 102.637,26.078 103.085,25.863 103.085 C 25.648 103.085,25.473 103.357,25.473 103.690 C 25.473 104.022,25.065 104.963,24.566 105.779 C 24.067 106.596,23.306 107.980,22.874 108.856 C 22.443 109.731,21.955 110.507,21.791 110.580 C 21.627 110.653,21.493 110.950,21.493 111.240 C 21.493 111.530,21.061 112.635,20.533 113.695 C 20.005 114.755,19.254 116.383,18.864 117.313 C 18.474 118.244,18.011 119.005,17.834 119.005 C 17.657 119.005,17.512 119.349,17.512 119.769 C 17.512 120.189,17.260 121.040,16.952 121.659 C 16.644 122.279,16.215 123.234,15.998 123.781 C 15.055 126.160,14.263 128.009,13.911 128.651 C 13.703 129.031,13.527 129.658,13.520 130.044 C 13.513 130.430,13.244 131.094,12.923 131.519 C 12.601 131.944,12.338 132.694,12.338 133.187 C 12.338 133.679,12.159 134.193,11.940 134.328 C 11.721 134.464,11.542 134.977,11.542 135.470 C 11.542 135.962,11.279 136.713,10.958 137.138 C 10.637 137.563,10.368 138.392,10.361 138.981 C 10.354 139.571,10.169 140.163,9.950 140.299 C 9.731 140.434,9.546 141.026,9.538 141.616 C 9.530 142.205,9.268 143.134,8.955 143.682 C 8.642 144.229,8.380 145.159,8.372 145.748 C 8.365 146.337,8.179 146.929,7.960 147.065 C 7.741 147.200,7.562 147.893,7.562 148.604 C 7.562 149.316,7.299 150.245,6.978 150.670 C 6.656 151.095,6.388 152.193,6.381 153.111 C 6.374 154.028,6.215 154.874,6.027 154.990 C 5.839 155.106,5.577 156.120,5.444 157.244 C 5.311 158.369,5.034 159.493,4.829 159.744 C 4.624 159.994,4.361 161.184,4.245 162.388 C 3.828 166.685,3.117 170.951,2.756 171.323 C 2.554 171.531,2.388 172.997,2.388 174.581 C 2.388 176.165,2.208 177.934,1.988 178.512 C 1.769 179.090,1.433 182.811,1.242 186.780 C 1.016 191.488,0.740 194.049,0.448 194.146 C -0.175 194.354,-0.173 206.235,0.450 206.858 C 0.723 207.131,1.033 210.051,1.234 214.242 C 1.417 218.055,1.752 221.661,1.977 222.255 C 2.203 222.849,2.388 224.721,2.388 226.414 C 2.388 228.107,2.554 229.663,2.756 229.871 C 2.958 230.079,3.323 231.682,3.568 233.433 C 4.520 240.262,5.421 244.915,6.012 246.064 C 6.208 246.444,6.368 247.459,6.368 248.320 C 6.368 249.180,6.565 249.949,6.805 250.030 C 7.046 250.110,7.338 251.024,7.455 252.062 C 7.572 253.100,7.823 254.045,8.013 254.162 C 8.203 254.279,8.365 254.857,8.372 255.446 C 8.380 256.035,8.642 256.965,8.955 257.512 C 9.268 258.060,9.530 258.989,9.538 259.579 C 9.546 260.168,9.731 260.760,9.950 260.896 C 10.169 261.031,10.354 261.623,10.361 262.213 C 10.368 262.802,10.637 263.631,10.958 264.056 C 11.279 264.481,11.542 265.232,11.542 265.724 C 11.542 266.217,11.721 266.730,11.940 266.866 C 12.159 267.001,12.344 267.504,12.351 267.984 C 12.358 268.463,12.627 269.203,12.948 269.628 C 13.269 270.053,13.532 270.814,13.532 271.320 C 13.532 271.825,13.711 272.239,13.930 272.239 C 14.149 272.239,14.328 272.525,14.328 272.875 C 14.328 273.225,14.597 274.121,14.925 274.865 C 15.470 276.100,16.242 277.923,17.099 280.000 C 18.457 283.292,26.526 299.569,27.063 300.100 C 27.463 300.496,28.287 301.906,28.516 302.587 C 28.644 302.970,28.908 303.284,29.101 303.284 C 29.295 303.284,29.453 303.564,29.453 303.907 C 29.453 304.250,29.900 305.118,30.448 305.835 C 30.995 306.553,31.443 307.347,31.443 307.600 C 31.443 307.853,31.610 308.060,31.814 308.060 C 32.018 308.060,32.309 308.450,32.460 308.926 C 32.611 309.403,33.161 310.252,33.681 310.813 C 34.201 311.374,34.627 311.981,34.627 312.162 C 34.627 312.343,35.075 313.078,35.622 313.795 C 36.169 314.513,36.617 315.242,36.617 315.415 C 36.617 315.588,37.065 316.145,37.612 316.652 C 38.159 317.159,38.607 317.762,38.607 317.991 C 38.607 318.220,38.774 318.408,38.978 318.408 C 39.182 318.408,39.450 318.721,39.573 319.104 C 39.696 319.488,40.335 320.428,40.992 321.194 C 41.649 321.960,42.188 322.694,42.188 322.825 C 42.189 323.049,42.668 323.649,44.701 325.970 C 45.180 326.517,46.096 327.678,46.736 328.550 C 47.376 329.421,48.453 330.675,49.129 331.336 C 49.805 331.997,51.069 333.433,51.938 334.527 C 53.929 337.036,64.818 347.938,67.446 350.053 C 68.532 350.927,70.296 352.493,71.367 353.532 C 72.438 354.572,73.431 355.426,73.573 355.429 C 73.715 355.433,74.392 355.925,75.078 356.524 C 77.901 358.986,78.428 359.403,78.714 359.403 C 78.878 359.403,79.459 359.814,80.004 360.316 C 80.549 360.819,82.070 362.017,83.383 362.978 C 84.697 363.940,85.831 364.872,85.904 365.050 C 85.977 365.228,86.263 365.373,86.539 365.373 C 86.816 365.373,87.468 365.743,87.989 366.194 C 88.509 366.646,89.612 367.395,90.438 367.859 C 91.264 368.324,91.940 368.831,91.940 368.985 C 91.940 369.140,92.388 369.379,92.935 369.517 C 93.483 369.654,93.930 369.942,93.930 370.157 C 93.930 370.372,94.127 370.547,94.366 370.547 C 94.606 370.547,95.365 370.950,96.052 371.443 C 96.740 371.935,97.701 372.548,98.188 372.804 C 100.355 373.944,101.716 374.763,102.210 375.224 C 102.503 375.498,102.999 375.721,103.312 375.721 C 103.625 375.721,103.881 375.900,103.881 376.119 C 103.881 376.338,104.228 376.517,104.653 376.517 C 105.078 376.517,105.527 376.681,105.651 376.882 C 105.775 377.082,108.875 378.707,112.540 380.492 C 116.205 382.278,119.515 383.905,119.895 384.108 C 120.275 384.311,120.835 384.478,121.140 384.478 C 121.444 384.478,121.917 384.746,122.189 385.075 C 122.462 385.403,123.004 385.672,123.395 385.672 C 123.786 385.672,124.973 386.093,126.033 386.608 C 127.093 387.124,128.945 387.865,130.149 388.256 C 131.353 388.647,132.508 389.121,132.716 389.309 C 132.924 389.498,133.496 389.652,133.986 389.652 C 134.477 389.652,134.989 389.831,135.124 390.050 C 135.260 390.269,135.673 390.449,136.043 390.450 C 136.414 390.452,137.229 390.720,137.856 391.047 C 138.483 391.374,139.314 391.642,139.701 391.642 C 140.089 391.642,140.920 391.909,141.547 392.236 C 142.174 392.563,143.079 392.832,143.559 392.833 C 144.038 392.835,144.541 393.015,144.677 393.234 C 144.812 393.453,145.528 393.632,146.269 393.632 C 147.009 393.632,147.719 393.801,147.846 394.007 C 147.974 394.213,148.882 394.502,149.865 394.650 C 150.848 394.797,151.749 395.076,151.869 395.270 C 151.989 395.463,152.848 395.622,153.778 395.622 C 154.709 395.622,155.817 395.885,156.242 396.206 C 156.667 396.528,157.763 396.796,158.678 396.803 C 159.610 396.810,160.604 397.078,160.938 397.413 C 161.844 398.319,241.786 398.319,242.134 397.413 C 242.292 397.000,242.950 396.812,244.266 396.803 C 245.313 396.796,246.517 396.528,246.942 396.206 C 247.367 395.885,248.309 395.622,249.037 395.622 C 249.764 395.622,250.670 395.464,251.050 395.271 C 251.991 394.793,254.998 394.001,256.816 393.752 C 257.637 393.640,258.308 393.388,258.308 393.192 C 258.308 392.996,258.801 392.829,259.403 392.822 C 260.005 392.814,260.945 392.552,261.493 392.239 C 262.040 391.926,262.935 391.658,263.483 391.643 C 264.030 391.629,264.825 391.354,265.250 391.032 C 265.675 390.711,266.426 390.448,266.918 390.448 C 267.411 390.448,267.924 390.269,268.060 390.050 C 268.195 389.831,268.626 389.652,269.017 389.652 C 269.667 389.652,271.372 388.981,273.129 388.034 C 273.509 387.829,274.270 387.662,274.820 387.662 C 275.371 387.662,275.821 387.497,275.821 387.295 C 275.821 387.094,276.356 386.811,277.010 386.668 C 277.665 386.524,278.302 386.241,278.427 386.039 C 278.552 385.837,279.014 385.672,279.455 385.672 C 279.895 385.672,280.525 385.403,280.853 385.075 C 281.181 384.746,281.785 384.478,282.194 384.478 C 282.603 384.478,283.049 384.299,283.184 384.080 C 283.319 383.861,283.778 383.682,284.203 383.682 C 284.627 383.682,284.975 383.537,284.975 383.360 C 284.975 383.082,285.675 382.727,288.557 381.544 C 288.886 381.409,289.423 381.133,289.751 380.930 C 290.080 380.727,291.871 379.814,293.731 378.901 C 295.592 377.987,298.010 376.731,299.104 376.108 C 300.199 375.486,301.668 374.680,302.370 374.317 C 303.071 373.955,303.854 373.406,304.110 373.098 C 304.366 372.789,304.911 372.537,305.322 372.537 C 305.733 372.537,306.070 372.399,306.070 372.230 C 306.070 372.061,306.741 371.570,307.562 371.139 C 308.383 370.708,309.144 370.265,309.254 370.153 C 309.808 369.588,313.309 367.363,313.643 367.363 C 313.856 367.363,314.030 367.184,314.030 366.965 C 314.030 366.746,314.299 366.567,314.627 366.567 C 314.955 366.567,315.224 366.400,315.224 366.196 C 315.224 365.992,315.537 365.724,315.920 365.602 C 316.303 365.479,317.321 364.750,318.182 363.983 C 319.042 363.215,319.938 362.584,320.172 362.581 C 320.406 362.577,321.403 361.864,322.388 360.995 C 323.373 360.126,324.322 359.413,324.497 359.409 C 324.671 359.406,325.209 358.987,325.691 358.479 C 326.173 357.970,327.552 356.825,328.756 355.934 C 329.960 355.042,331.670 353.622,332.557 352.778 C 334.743 350.696,337.540 348.259,337.743 348.259 C 338.085 348.259,348.155 337.991,350.432 335.320 C 351.737 333.790,353.394 331.947,354.114 331.225 C 354.834 330.503,355.423 329.756,355.423 329.566 C 355.423 329.376,355.559 329.161,355.724 329.088 C 355.890 329.015,356.651 328.150,357.416 327.165 C 358.180 326.181,359.015 325.107,359.270 324.777 C 359.525 324.448,360.513 323.194,361.464 321.990 C 362.415 320.786,363.536 319.267,363.955 318.614 C 364.374 317.960,365.133 316.977,365.642 316.429 C 366.151 315.880,366.567 315.237,366.567 314.999 C 366.567 314.761,367.015 314.146,367.562 313.632 C 368.109 313.118,368.557 312.521,368.557 312.306 C 368.557 312.092,369.005 311.329,369.552 310.611 C 370.100 309.894,370.547 309.188,370.547 309.043 C 370.547 308.898,370.950 308.215,371.443 307.526 C 371.935 306.836,372.674 305.644,373.085 304.877 C 373.495 304.110,373.945 303.393,374.084 303.284 C 374.222 303.174,374.688 302.413,375.119 301.592 C 375.550 300.771,376.041 300.100,376.210 300.100 C 376.379 300.100,376.517 299.763,376.517 299.352 C 376.517 298.941,376.786 298.382,377.114 298.109 C 377.443 297.837,377.711 297.293,377.711 296.900 C 377.711 296.507,377.846 296.126,378.011 296.053 C 378.415 295.874,383.685 285.304,383.683 284.677 C 383.682 284.403,383.861 284.179,384.080 284.179 C 384.299 284.179,384.478 283.843,384.478 283.432 C 384.478 283.021,384.746 282.462,385.075 282.189 C 385.403 281.917,385.672 281.268,385.672 280.747 C 385.672 280.227,385.851 279.801,386.070 279.801 C 386.289 279.801,386.468 279.477,386.468 279.081 C 386.468 278.685,386.731 278.013,387.052 277.589 C 387.373 277.164,387.642 276.413,387.649 275.920 C 387.656 275.428,387.841 275.025,388.060 275.025 C 388.279 275.025,388.459 274.711,388.460 274.328 C 388.462 273.945,388.730 273.119,389.057 272.492 C 389.384 271.865,389.652 271.101,389.652 270.795 C 389.652 270.233,389.774 269.932,390.977 267.530 C 391.343 266.801,391.642 265.781,391.642 265.265 C 391.642 264.748,391.797 264.229,391.988 264.112 C 392.178 263.994,392.448 263.178,392.589 262.297 C 392.730 261.417,393.022 260.697,393.239 260.697 C 393.455 260.697,393.638 260.114,393.646 259.403 C 393.654 258.692,393.916 257.662,394.229 257.114 C 394.542 256.567,394.804 255.637,394.812 255.048 C 394.820 254.459,395.005 253.867,395.224 253.731 C 395.443 253.596,395.622 252.980,395.622 252.363 C 395.622 251.746,395.891 250.599,396.219 249.813 C 396.547 249.027,396.816 247.851,396.816 247.200 C 396.816 246.550,396.995 245.906,397.214 245.771 C 397.433 245.636,397.618 244.775,397.626 243.857 C 397.634 242.940,397.896 241.741,398.209 241.194 C 398.522 240.647,398.784 239.343,398.792 238.296 C 398.802 236.981,398.991 236.322,399.403 236.164 C 399.927 235.963,400.000 231.641,400.000 200.597 C 400.000 169.553,399.927 165.231,399.403 165.030 C 398.979 164.868,398.802 164.192,398.793 162.699 C 398.786 161.485,398.534 160.271,398.196 159.824 C 397.875 159.400,397.612 158.278,397.612 157.331 C 397.612 156.385,397.454 155.300,397.261 154.920 C 396.761 153.937,395.982 150.924,395.743 149.055 C 395.632 148.179,395.380 147.293,395.183 147.085 C 394.987 146.877,394.825 146.339,394.823 145.891 C 394.822 145.442,394.553 144.562,394.226 143.935 C 393.899 143.308,393.632 142.278,393.632 141.646 C 393.632 141.014,393.455 140.498,393.239 140.498 C 393.022 140.498,392.730 139.777,392.589 138.897 C 392.448 138.016,392.178 137.200,391.988 137.082 C 391.797 136.965,391.642 136.352,391.642 135.721 C 391.642 135.091,391.484 134.477,391.292 134.358 C 390.888 134.109,389.652 130.504,389.652 129.577 C 389.652 129.235,389.487 128.955,389.285 128.955 C 389.084 128.955,388.792 128.379,388.638 127.675 C 388.483 126.970,388.220 126.120,388.053 125.784 C 387.695 125.064,386.715 122.798,386.154 121.393 C 385.639 120.103,383.687 115.796,383.269 115.025 C 383.090 114.697,382.383 113.264,381.698 111.841 C 381.012 110.418,380.252 108.896,380.009 108.458 C 379.766 108.020,379.038 106.629,378.391 105.366 C 377.744 104.104,377.058 102.974,376.866 102.855 C 376.674 102.737,376.517 102.292,376.517 101.867 C 376.517 101.442,376.367 101.095,376.183 101.095 C 376.000 101.095,375.507 100.380,375.089 99.507 C 374.671 98.634,374.194 97.918,374.030 97.915 C 373.866 97.913,373.731 97.655,373.731 97.342 C 373.731 97.029,373.507 96.529,373.234 96.231 C 372.508 95.438,371.752 94.230,371.484 93.433 C 371.356 93.050,371.092 92.736,370.899 92.736 C 370.705 92.736,370.547 92.545,370.547 92.312 C 370.547 92.078,370.100 91.300,369.552 90.583 C 369.005 89.865,368.557 89.114,368.557 88.914 C 368.557 88.713,368.109 88.066,367.562 87.476 C 367.015 86.886,366.567 86.298,366.567 86.169 C 366.567 86.041,365.851 84.987,364.975 83.827 C 364.100 82.668,363.383 81.592,363.383 81.437 C 363.383 81.282,362.756 80.509,361.990 79.720 C 361.224 78.931,360.597 78.162,360.597 78.011 C 360.597 77.860,360.135 77.215,359.570 76.579 C 359.005 75.943,357.796 74.447,356.883 73.255 C 355.971 72.062,354.108 69.913,352.745 68.479 C 351.381 67.044,350.262 65.743,350.257 65.586 C 350.245 65.171,338.493 53.452,335.920 51.289 C 334.716 50.277,333.093 48.846,332.312 48.108 C 331.532 47.370,329.920 46.019,328.730 45.107 C 327.540 44.194,326.047 42.985,325.411 42.420 C 324.775 41.855,324.128 41.393,323.974 41.393 C 323.820 41.393,323.029 40.766,322.216 40.000 C 321.404 39.234,320.654 38.607,320.549 38.607 C 320.327 38.607,315.517 35.336,315.224 34.986 C 315.114 34.855,313.771 33.967,312.239 33.014 C 310.706 32.060,309.363 31.182,309.254 31.063 C 309.144 30.943,308.428 30.501,307.662 30.080 C 306.896 29.658,306.179 29.211,306.070 29.085 C 305.798 28.772,304.603 28.060,302.587 27.009 C 301.657 26.524,300.896 25.980,300.896 25.800 C 300.896 25.620,300.623 25.473,300.291 25.473 C 299.958 25.473,299.018 25.065,298.201 24.566 C 297.385 24.067,296.000 23.306,295.124 22.874 C 294.249 22.443,293.473 21.955,293.400 21.791 C 293.327 21.627,293.028 21.493,292.735 21.493 C 292.097 21.493,289.607 20.222,289.420 19.801 C 289.347 19.637,289.050 19.502,288.760 19.502 C 288.470 19.502,287.321 19.055,286.206 18.507 C 285.091 17.960,283.267 17.065,282.152 16.517 C 281.038 15.970,279.829 15.517,279.466 15.510 C 279.103 15.503,278.458 15.234,278.033 14.913 C 277.608 14.591,276.937 14.328,276.541 14.328 C 276.145 14.328,275.821 14.149,275.821 13.930 C 275.821 13.711,275.407 13.532,274.902 13.532 C 274.397 13.532,273.635 13.269,273.210 12.948 C 272.785 12.627,272.035 12.358,271.542 12.351 C 271.050 12.344,270.647 12.180,270.647 11.985 C 270.647 11.791,270.154 11.543,269.552 11.434 C 268.375 11.220,266.101 10.456,264.981 9.897 C 264.600 9.707,263.884 9.547,263.388 9.540 C 262.893 9.533,262.140 9.264,261.715 8.943 C 261.290 8.621,260.526 8.358,260.018 8.358 C 259.510 8.358,258.783 8.189,258.403 7.982 C 258.022 7.775,257.040 7.498,256.219 7.367 C 255.398 7.236,254.726 6.975,254.726 6.788 C 254.726 6.601,253.965 6.357,253.035 6.246 C 250.400 5.931,247.436 5.207,247.001 4.773 C 246.784 4.556,245.834 4.378,244.890 4.378 C 243.946 4.378,242.862 4.208,242.482 4.000 C 242.102 3.791,240.764 3.510,239.509 3.375 C 238.254 3.239,237.124 2.962,236.998 2.758 C 236.872 2.555,235.693 2.388,234.378 2.388 C 233.063 2.388,231.650 2.208,231.238 1.987 C 230.826 1.767,228.853 1.470,226.853 1.328 C 224.655 1.172,223.005 0.858,222.681 0.535 C 221.888 -0.258,181.006 -0.256,180.348 0.537 M97.540 95.341 C 117.364 100.974,117.907 128.462,98.308 134.270 C 96.152 134.909,78.655 135.079,76.020 134.487 C 58.717 130.597,54.969 106.645,70.260 97.684 C 75.234 94.769,90.817 93.430,97.540 95.341 M323.384 95.759 C 342.527 102.012,341.906 129.313,322.506 134.366 C 319.785 135.075,302.687 135.160,300.526 134.475 C 280.261 128.056,280.106 101.302,300.299 95.367 C 304.149 94.235,319.516 94.496,323.384 95.759 M298.173 252.198 C 310.072 257.819,310.328 274.230,298.601 279.726 L 296.318 280.796 199.524 280.898 C 103.241 280.999,102.718 280.996,100.618 280.196 C 86.967 274.995,87.321 253.327,101.095 251.015 C 101.642 250.923,145.612 250.870,198.806 250.897 L 295.522 250.945 298.173 252.198 " stroke="none" fill="#fbbb04" fill-rule="evenodd"></path><path id="path3" d="M175.323 0.398 C 175.188 0.617,174.375 0.796,173.517 0.796 C 172.659 0.796,170.475 1.071,168.665 1.407 C 157.634 3.453,154.809 4.089,146.667 6.358 C 143.688 7.188,134.608 10.086,133.532 10.550 C 132.876 10.833,131.532 11.338,130.547 11.672 C 123.983 13.896,108.325 21.268,101.190 25.494 C 93.700 29.931,92.931 30.410,92.803 30.722 C 92.730 30.900,92.531 31.045,92.360 31.045 C 91.768 31.045,82.711 37.251,79.204 40.059 C 78.876 40.322,77.174 41.668,75.423 43.049 C 73.672 44.430,72.046 45.742,71.810 45.964 C 71.575 46.186,70.142 47.443,68.626 48.756 C 62.145 54.373,50.958 65.838,46.336 71.599 C 45.916 72.123,45.116 73.108,44.558 73.788 C 39.028 80.529,27.065 97.966,27.065 99.285 C 27.065 99.413,26.627 100.211,26.093 101.058 C 25.191 102.487,22.408 107.552,21.262 109.851 C 20.027 112.327,17.114 118.581,17.114 118.755 C 17.114 118.862,16.566 120.171,15.895 121.664 C 15.225 123.157,14.529 124.736,14.350 125.174 C 13.144 128.116,11.897 131.433,11.358 133.134 C 11.012 134.229,10.572 135.483,10.382 135.920 C 9.849 137.147,7.485 145.050,6.454 149.055 C 6.228 149.930,5.759 151.648,5.410 152.871 C 5.061 154.094,4.776 155.425,4.776 155.828 C 4.776 156.231,4.610 157.110,4.407 157.783 C 3.927 159.370,2.970 164.231,2.443 167.761 C 2.214 169.294,1.814 171.891,1.554 173.532 C 0.451 180.496,-0.267 190.254,0.371 189.630 C 0.606 189.400,0.969 186.624,1.176 183.461 C 1.648 176.255,2.004 173.551,3.767 163.781 C 4.905 157.467,5.917 153.083,7.761 146.468 C 8.036 145.483,8.485 143.871,8.759 142.886 C 9.507 140.198,10.374 137.597,10.782 136.821 C 10.981 136.441,11.144 135.865,11.144 135.541 C 11.144 135.217,11.396 134.364,11.704 133.645 C 12.011 132.926,13.191 129.920,14.325 126.965 C 15.460 124.010,16.931 120.428,17.595 119.005 C 20.111 113.616,23.927 105.966,25.437 103.284 C 26.300 101.751,27.264 100.024,27.580 99.446 C 30.899 93.373,39.666 80.582,44.620 74.584 C 45.363 73.685,46.328 72.500,46.766 71.951 C 52.752 64.436,66.836 50.599,75.467 43.754 C 80.442 39.808,81.531 38.979,84.966 36.525 C 86.722 35.271,88.348 34.106,88.579 33.938 C 88.810 33.770,89.347 33.417,89.773 33.154 C 90.199 32.891,92.397 31.503,94.657 30.070 C 96.917 28.636,98.846 27.463,98.944 27.463 C 99.041 27.463,99.788 27.043,100.605 26.530 C 105.540 23.431,116.310 18.090,124.378 14.740 C 124.816 14.558,125.891 14.114,126.766 13.753 C 127.642 13.391,128.669 12.925,129.049 12.717 C 129.429 12.509,129.991 12.338,130.297 12.338 C 130.604 12.338,131.367 12.071,131.994 11.744 C 132.621 11.417,133.412 11.148,133.751 11.147 C 134.091 11.145,134.538 11.002,134.746 10.828 C 134.954 10.654,136.199 10.188,137.512 9.793 C 138.826 9.398,140.212 8.914,140.592 8.717 C 140.972 8.519,141.498 8.358,141.762 8.358 C 142.026 8.358,143.774 7.901,145.648 7.342 C 153.175 5.097,156.661 4.254,164.378 2.814 C 165.582 2.589,168.018 2.133,169.791 1.800 C 171.564 1.467,173.624 1.192,174.368 1.190 C 176.408 1.183,178.706 0.736,178.706 0.346 C 178.706 -0.137,175.625 -0.089,175.323 0.398 M224.478 0.398 C 224.478 0.617,224.701 0.809,224.975 0.824 C 226.817 0.929,232.035 1.626,235.224 2.193 C 237.303 2.562,239.811 3.007,240.796 3.181 C 241.781 3.355,243.841 3.798,245.373 4.165 C 246.905 4.533,248.786 4.978,249.552 5.154 C 252.986 5.944,254.977 6.488,255.616 6.813 C 255.997 7.006,256.539 7.164,256.822 7.164 C 257.104 7.164,258.763 7.612,260.509 8.159 C 267.892 10.473,267.619 10.381,270.448 11.530 C 271.104 11.797,272.448 12.285,273.433 12.615 C 274.418 12.944,275.851 13.486,276.617 13.818 C 277.383 14.151,278.637 14.682,279.403 15.000 C 281.799 15.992,282.304 16.216,285.572 17.738 C 292.942 21.173,297.990 23.793,302.685 26.622 C 306.066 28.659,306.511 28.916,307.942 29.659 C 308.643 30.024,309.426 30.574,309.682 30.882 C 309.938 31.191,310.301 31.443,310.489 31.443 C 310.765 31.443,319.904 37.697,321.393 38.905 C 321.612 39.083,322.507 39.754,323.383 40.397 C 324.259 41.040,325.521 42.020,326.189 42.574 C 326.856 43.129,328.183 44.209,329.138 44.975 C 330.092 45.741,331.516 46.948,332.302 47.657 C 333.088 48.366,334.571 49.620,335.598 50.443 C 337.585 52.037,349.797 64.263,351.405 66.269 C 351.932 66.925,353.096 68.271,353.992 69.260 C 354.889 70.248,356.249 71.851,357.015 72.822 C 357.781 73.793,358.866 75.134,359.425 75.801 C 359.984 76.469,361.673 78.716,363.179 80.796 C 364.684 82.876,366.062 84.637,366.241 84.710 C 366.421 84.783,366.567 85.006,366.567 85.206 C 366.567 85.406,367.463 86.824,368.557 88.358 C 369.652 89.892,370.547 91.248,370.547 91.371 C 370.547 91.495,370.951 92.166,371.444 92.862 C 372.827 94.817,373.336 95.660,373.590 96.418 C 373.719 96.801,373.982 97.114,374.176 97.114 C 374.369 97.114,374.527 97.297,374.527 97.520 C 374.527 97.744,374.947 98.594,375.460 99.411 C 377.971 103.409,386.468 120.217,386.468 121.185 C 386.468 121.323,386.836 122.278,387.285 123.305 C 387.735 124.333,388.293 125.622,388.526 126.169 C 388.758 126.716,389.107 127.475,389.300 127.855 C 389.494 128.235,389.652 128.746,389.652 128.989 C 389.652 129.233,389.908 129.996,390.221 130.686 C 390.534 131.376,391.272 133.463,391.860 135.323 C 392.448 137.184,393.062 139.065,393.225 139.502 C 393.702 140.788,395.748 147.796,396.421 150.448 C 396.615 151.214,397.065 153.095,397.420 154.627 C 397.776 156.159,398.226 158.040,398.420 158.806 C 398.614 159.572,398.881 161.050,399.013 162.090 C 399.145 163.129,399.421 163.980,399.626 163.980 C 400.127 163.980,400.106 162.103,399.602 161.791 C 399.383 161.656,399.204 161.016,399.204 160.369 C 399.204 159.721,398.921 158.075,398.575 156.710 C 398.229 155.346,397.798 153.602,397.617 152.836 C 397.291 151.456,396.411 148.144,395.555 145.075 C 394.955 142.925,391.020 130.999,390.426 129.532 C 390.164 128.886,389.803 128.000,389.622 127.562 C 389.441 127.124,388.641 125.154,387.844 123.184 C 385.703 117.894,381.138 108.266,378.785 104.080 C 378.293 103.204,377.195 101.234,376.346 99.701 C 375.496 98.169,374.381 96.345,373.868 95.648 C 373.355 94.952,372.935 94.263,372.935 94.118 C 372.935 93.973,372.532 93.293,372.040 92.607 C 371.547 91.921,370.965 91.041,370.746 90.651 C 370.049 89.407,365.659 83.124,363.070 79.663 C 360.842 76.684,359.547 75.031,356.816 71.684 C 347.903 60.758,333.598 47.183,322.388 39.012 C 320.746 37.815,319.313 36.732,319.204 36.604 C 318.970 36.332,312.349 31.825,311.329 31.244 C 310.945 31.025,310.096 30.488,309.443 30.050 C 304.879 26.990,286.692 17.114,285.621 17.114 C 285.517 17.114,284.030 16.465,282.318 15.671 C 276.460 12.956,267.124 9.553,258.507 6.995 C 256.537 6.410,254.054 5.671,252.989 5.354 C 251.924 5.036,250.724 4.776,250.321 4.776 C 249.919 4.776,249.178 4.618,248.675 4.424 C 247.727 4.058,243.796 3.157,240.000 2.434 C 233.003 1.102,231.072 0.796,229.667 0.796 C 228.809 0.796,227.996 0.617,227.861 0.398 C 227.725 0.179,226.909 0.000,226.046 0.000 C 225.183 0.000,224.478 0.179,224.478 0.398 M78.010 105.402 C 75.505 106.336,72.031 109.894,71.140 112.438 C 67.078 124.044,81.360 133.310,90.155 124.775 C 99.218 115.981,89.826 101.001,78.010 105.402 M303.483 105.296 C 302.531 105.761,302.490 105.823,303.284 105.603 C 303.831 105.451,305.443 105.326,306.866 105.326 C 308.289 105.326,309.900 105.451,310.448 105.603 C 311.241 105.823,311.201 105.761,310.249 105.296 C 309.592 104.975,308.070 104.713,306.866 104.713 C 305.662 104.713,304.139 104.975,303.483 105.296 M85.536 105.697 C 91.577 107.801,94.881 114.104,92.910 119.765 C 89.415 129.801,76.073 130.405,71.791 120.722 C 67.994 112.137,76.700 102.621,85.536 105.697 M300.487 106.539 C 297.987 108.237,295.293 112.317,295.348 114.324 C 295.361 114.834,295.663 114.314,296.044 113.125 C 296.826 110.684,298.317 108.690,300.593 107.041 C 302.285 105.816,302.193 105.380,300.487 106.539 M312.207 106.392 C 319.676 111.023,319.957 122.246,312.699 126.035 C 312.077 126.360,311.669 126.727,311.793 126.851 C 312.046 127.104,314.644 125.223,315.744 123.990 C 319.179 120.137,319.310 113.346,316.028 109.174 C 315.084 107.974,312.411 105.887,311.841 105.905 C 311.622 105.912,311.787 106.131,312.207 106.392 M295.348 118.512 C 295.293 120.519,297.987 124.599,300.487 126.297 C 302.193 127.456,302.285 127.020,300.593 125.794 C 298.317 124.146,296.826 122.151,296.044 119.711 C 295.663 118.522,295.361 118.002,295.348 118.512 M303.483 127.540 C 304.139 127.861,305.662 128.123,306.866 128.123 C 308.070 128.123,309.592 127.861,310.249 127.540 C 311.201 127.075,311.241 127.013,310.448 127.233 C 309.900 127.385,308.289 127.510,306.866 127.510 C 305.443 127.510,303.831 127.385,303.284 127.233 C 302.490 127.013,302.531 127.075,303.483 127.540 M0.000 214.225 C 0.000 215.898,0.152 217.361,0.339 217.476 C 0.525 217.591,0.782 219.348,0.909 221.380 C 1.125 224.837,1.571 228.321,2.400 233.035 C 2.593 234.129,3.047 236.726,3.408 238.806 C 3.770 240.886,4.226 242.998,4.421 243.501 C 4.616 244.004,4.776 244.823,4.776 245.321 C 4.776 245.819,5.028 247.019,5.336 247.989 C 5.645 248.958,6.374 251.632,6.956 253.930 C 7.539 256.229,8.160 258.384,8.336 258.720 C 8.511 259.055,8.790 259.945,8.955 260.697 C 9.120 261.448,9.390 262.338,9.555 262.674 C 9.719 263.009,10.160 264.269,10.533 265.473 C 10.906 266.677,11.360 268.020,11.541 268.458 C 11.721 268.896,12.536 271.045,13.350 273.234 C 14.164 275.423,15.231 278.109,15.720 279.204 C 16.210 280.299,17.008 282.090,17.495 283.184 C 20.683 290.358,26.894 301.989,30.473 307.487 C 31.319 308.787,32.219 310.231,32.473 310.696 C 32.727 311.161,33.674 312.541,34.577 313.764 C 35.480 314.986,36.219 316.096,36.219 316.230 C 36.219 316.365,36.443 316.711,36.716 316.999 C 36.990 317.288,37.514 317.947,37.882 318.463 C 39.463 320.689,43.546 326.186,43.754 326.368 C 43.878 326.478,44.778 327.552,45.753 328.756 C 52.391 336.954,63.757 348.399,72.836 356.029 C 79.255 361.423,96.200 373.164,100.299 375.058 C 100.627 375.210,101.791 375.875,102.886 376.536 C 104.649 377.602,119.140 384.826,121.194 385.664 C 121.632 385.842,122.706 386.288,123.582 386.653 C 125.829 387.591,126.526 387.872,128.557 388.657 C 129.542 389.037,130.706 389.493,131.144 389.668 C 131.582 389.844,132.836 390.289,133.930 390.658 C 135.025 391.026,136.279 391.471,136.716 391.646 C 137.154 391.821,139.393 392.536,141.692 393.235 C 143.990 393.934,146.318 394.655,146.866 394.837 C 147.413 395.019,149.920 395.646,152.438 396.230 C 154.955 396.815,157.326 397.454,157.706 397.651 C 158.592 398.111,160.000 398.115,160.000 397.658 C 160.000 397.247,158.622 396.829,157.242 396.821 C 156.710 396.818,155.725 396.643,155.053 396.431 C 153.924 396.075,151.415 395.389,147.463 394.354 C 142.748 393.119,132.142 389.578,129.094 388.220 C 128.404 387.913,127.677 387.662,127.477 387.662 C 127.277 387.662,126.186 387.214,125.052 386.667 C 123.917 386.119,122.807 385.672,122.584 385.672 C 122.361 385.672,121.867 385.503,121.487 385.297 C 121.107 385.092,117.303 383.211,113.035 381.118 C 108.766 379.025,104.378 376.778,103.284 376.124 C 102.189 375.471,101.025 374.808,100.697 374.651 C 88.326 368.749,61.948 347.124,50.542 333.532 C 49.347 332.109,48.174 330.766,47.934 330.547 C 47.422 330.081,43.564 325.211,40.995 321.789 C 40.010 320.477,38.980 319.166,38.706 318.877 C 38.433 318.588,38.209 318.219,38.209 318.057 C 38.209 317.895,37.896 317.414,37.512 316.989 C 36.261 315.601,28.177 303.139,27.331 301.294 C 27.181 300.965,26.678 300.070,26.213 299.303 C 23.823 295.359,16.318 279.814,16.318 278.806 C 16.318 278.503,16.166 278.162,15.979 278.046 C 15.793 277.931,15.328 276.980,14.947 275.933 C 14.565 274.886,14.002 273.465,13.694 272.776 C 13.386 272.086,13.134 271.322,13.134 271.079 C 13.134 270.835,12.977 270.325,12.785 269.945 C 11.937 268.267,11.144 266.194,11.144 265.653 C 11.144 265.329,10.981 264.753,10.781 264.373 C 9.878 262.657,6.459 250.523,5.203 244.577 C 3.834 238.093,3.483 236.311,3.130 234.030 C 2.060 227.124,1.573 223.005,1.203 217.733 C 0.757 211.389,0.000 209.181,0.000 214.225 M399.281 237.737 C 399.020 238.354,398.806 239.465,398.806 240.206 C 398.806 240.948,398.640 241.966,398.437 242.469 C 398.233 242.972,397.768 244.816,397.401 246.567 C 397.035 248.318,396.595 250.199,396.422 250.746 C 396.250 251.294,395.794 252.905,395.409 254.328 C 395.024 255.751,394.284 258.259,393.764 259.900 C 393.245 261.542,392.540 263.781,392.197 264.876 C 391.854 265.970,391.425 267.224,391.242 267.662 C 391.059 268.100,390.432 269.801,389.848 271.443 C 389.265 273.085,388.547 274.965,388.255 275.622 C 387.962 276.279,387.261 277.851,386.697 279.115 C 386.133 280.380,385.672 281.507,385.672 281.620 C 385.672 281.907,383.509 286.533,381.497 290.547 C 378.139 297.251,376.265 300.626,373.430 305.084 C 373.155 305.517,372.810 306.139,372.663 306.468 C 372.516 306.796,372.286 307.154,372.150 307.264 C 372.015 307.373,371.127 308.716,370.176 310.249 C 368.126 313.552,360.978 323.579,359.235 325.597 C 358.561 326.377,357.533 327.630,356.950 328.383 C 355.777 329.897,355.452 330.277,351.579 334.667 C 348.110 338.599,339.783 346.908,335.754 350.458 C 334.021 351.984,332.316 353.502,331.966 353.831 C 331.615 354.159,330.078 355.409,328.550 356.607 C 327.021 357.806,325.682 358.901,325.572 359.041 C 324.612 360.264,305.315 373.313,302.488 374.650 C 302.159 374.805,301.264 375.314,300.498 375.781 C 297.991 377.308,283.658 384.359,280.398 385.669 C 278.647 386.372,276.677 387.172,276.020 387.445 C 275.363 387.719,273.751 388.342,272.438 388.829 C 271.124 389.316,269.462 389.969,268.743 390.280 C 268.024 390.591,267.113 390.846,266.719 390.846 C 266.326 390.846,265.887 390.962,265.746 391.103 C 265.363 391.486,261.402 392.808,260.592 392.823 C 260.206 392.830,259.579 393.004,259.199 393.210 C 258.818 393.417,257.433 393.874,256.119 394.227 C 254.806 394.581,253.194 395.026,252.537 395.218 C 250.828 395.717,246.427 396.718,244.677 397.005 C 243.856 397.140,243.184 397.421,243.184 397.630 C 243.184 398.106,244.062 398.117,245.255 397.658 C 245.758 397.464,247.512 396.997,249.154 396.619 C 250.796 396.242,252.677 395.783,253.333 395.600 C 253.990 395.417,255.602 394.970,256.915 394.606 C 259.532 393.880,270.766 390.227,272.040 389.686 C 272.478 389.501,273.642 389.035,274.627 388.650 C 275.612 388.266,277.045 387.695,277.811 387.382 C 278.577 387.068,279.562 386.669,280.000 386.494 C 281.925 385.725,283.207 385.127,290.300 381.685 C 294.432 379.679,298.958 377.338,300.356 376.482 C 301.755 375.626,302.993 374.925,303.108 374.925 C 303.676 374.925,314.751 367.628,319.993 363.799 C 336.063 352.062,345.131 343.386,360.152 325.373 C 362.700 322.318,371.812 309.091,373.930 305.373 C 374.149 304.988,374.975 303.600,375.766 302.287 C 379.810 295.576,384.761 285.622,387.843 278.010 C 388.641 276.040,389.441 274.070,389.622 273.632 C 389.803 273.194,390.169 272.299,390.437 271.642 C 391.030 270.185,394.922 258.329,395.533 256.119 C 395.774 255.244,396.226 253.632,396.536 252.537 C 396.847 251.443,397.328 249.473,397.607 248.159 C 397.885 246.846,398.358 244.888,398.658 243.808 C 398.958 242.729,399.204 241.377,399.204 240.803 C 399.204 240.230,399.397 239.568,399.633 239.332 C 399.869 239.096,399.993 238.389,399.909 237.760 L 399.756 236.617 399.281 237.737 " stroke="none" fill="#f5cf64" fill-rule="evenodd"></path><path id="path4" d="M178.706 0.372 C 178.706 0.576,178.214 0.818,177.612 0.909 C 176.818 1.029,176.969 1.091,178.160 1.134 C 179.196 1.172,179.986 0.974,180.299 0.597 C 180.718 0.092,180.633 0.000,179.750 0.000 C 179.176 0.000,178.706 0.167,178.706 0.372 M222.488 0.355 C 222.488 0.890,223.573 1.201,225.207 1.134 C 226.409 1.085,226.473 1.045,225.572 0.909 C 224.970 0.818,224.478 0.576,224.478 0.372 C 224.478 0.167,224.030 0.000,223.483 0.000 C 222.935 0.000,222.488 0.160,222.488 0.355 M169.950 1.830 L 167.761 2.357 169.751 2.199 C 170.846 2.112,172.547 1.873,173.532 1.668 L 175.323 1.294 173.731 1.299 C 172.856 1.302,171.154 1.541,169.950 1.830 M229.652 1.635 C 230.637 1.855,232.249 2.105,233.234 2.190 L 235.025 2.345 233.433 1.957 C 232.557 1.744,230.945 1.494,229.851 1.402 L 227.861 1.234 229.652 1.635 M163.980 2.816 C 163.214 2.997,161.423 3.407,160.000 3.728 C 158.100 4.157,157.758 4.320,158.712 4.345 C 159.426 4.363,160.322 4.208,160.702 4.000 C 161.082 3.791,162.420 3.510,163.675 3.375 C 164.931 3.239,166.061 2.962,166.186 2.758 C 166.447 2.337,165.965 2.349,163.980 2.816 M236.959 2.696 C 237.106 2.934,238.254 3.239,239.509 3.375 C 240.764 3.510,242.102 3.791,242.482 4.000 C 242.862 4.208,243.668 4.363,244.273 4.344 L 245.373 4.310 244.179 3.927 C 243.522 3.717,242.000 3.381,240.796 3.182 C 239.592 2.983,238.176 2.695,237.649 2.542 C 237.003 2.353,236.779 2.404,236.959 2.696 M154.229 4.874 C 151.597 5.528,149.705 6.324,150.723 6.348 C 151.202 6.359,151.691 6.213,151.808 6.023 C 151.926 5.833,152.914 5.559,154.005 5.414 C 155.095 5.269,156.095 4.977,156.226 4.765 C 156.497 4.326,156.417 4.331,154.229 4.874 M246.982 4.714 C 247.358 5.125,248.833 5.539,252.139 6.161 C 253.292 6.377,253.299 6.370,252.338 5.951 C 251.791 5.713,250.627 5.373,249.751 5.196 C 248.876 5.019,247.801 4.736,247.363 4.568 C 246.779 4.343,246.678 4.382,246.982 4.714 M146.468 6.990 C 145.212 7.465,145.175 7.519,146.093 7.540 C 146.653 7.552,147.459 7.299,147.884 6.978 C 148.813 6.275,148.347 6.279,146.468 6.990 M254.726 6.748 C 254.726 7.191,257.432 7.776,257.796 7.411 C 257.932 7.275,257.576 7.164,257.005 7.164 C 256.434 7.164,255.857 6.985,255.721 6.766 C 255.409 6.260,254.726 6.248,254.726 6.748 M143.483 7.960 C 142.715 8.290,142.718 8.303,143.559 8.330 C 144.038 8.346,144.541 8.179,144.677 7.960 C 144.968 7.489,144.578 7.489,143.483 7.960 M258.507 7.960 C 258.643 8.179,259.146 8.346,259.625 8.330 C 260.466 8.303,260.469 8.290,259.701 7.960 C 258.606 7.489,258.217 7.489,258.507 7.960 M140.498 8.741 C 140.169 8.926,139.097 9.316,138.114 9.609 C 137.005 9.939,136.606 10.194,137.062 10.282 C 137.466 10.359,137.992 10.227,138.231 9.988 C 138.471 9.748,139.034 9.546,139.483 9.538 C 139.931 9.530,140.746 9.268,141.294 8.955 C 141.855 8.634,142.028 8.390,141.692 8.396 C 141.363 8.401,140.826 8.556,140.498 8.741 M261.692 8.889 C 262.129 9.240,262.970 9.533,263.559 9.540 C 264.148 9.547,264.740 9.731,264.876 9.950 C 265.011 10.169,265.514 10.337,265.994 10.323 C 267.022 10.293,265.898 9.725,263.682 9.155 C 263.025 8.986,262.129 8.714,261.692 8.550 L 260.896 8.251 261.692 8.889 M134.706 10.708 C 134.499 10.905,133.970 11.153,133.532 11.258 C 132.756 11.445,132.756 11.451,133.556 11.496 C 134.006 11.522,134.723 11.279,135.148 10.958 C 135.573 10.637,135.732 10.368,135.502 10.361 C 135.273 10.354,134.914 10.510,134.706 10.708 M267.983 10.986 C 268.598 11.319,269.404 11.512,269.774 11.414 C 270.266 11.284,270.213 11.224,269.576 11.190 C 269.096 11.165,268.593 10.965,268.458 10.746 C 268.322 10.527,267.909 10.355,267.539 10.364 C 267.089 10.375,267.236 10.581,267.983 10.986 M128.557 12.968 C 127.685 13.453,127.660 13.520,128.358 13.514 C 128.796 13.510,129.502 13.244,129.927 12.923 C 130.926 12.167,129.943 12.199,128.557 12.968 M273.210 12.948 C 273.635 13.269,274.352 13.525,274.802 13.517 C 275.407 13.505,275.270 13.349,274.283 12.920 C 272.595 12.187,272.218 12.197,273.210 12.948 M123.781 14.959 C 123.161 15.303,123.020 15.513,123.407 15.517 C 123.748 15.520,124.375 15.259,124.800 14.938 C 125.766 14.207,125.111 14.221,123.781 14.959 M278.033 14.913 C 278.458 15.234,279.164 15.502,279.602 15.507 C 280.239 15.515,280.170 15.398,279.258 14.923 C 277.795 14.160,277.030 14.154,278.033 14.913 M119.227 16.928 C 118.609 17.396,118.579 17.512,119.079 17.512 C 119.423 17.512,119.926 17.244,120.199 16.915 C 120.829 16.156,120.238 16.164,119.227 16.928 M282.810 16.903 C 283.234 17.224,283.840 17.493,284.156 17.500 C 284.560 17.509,284.501 17.340,283.957 16.928 C 283.532 16.607,282.926 16.338,282.610 16.331 C 282.206 16.322,282.265 16.491,282.810 16.903 M115.821 18.526 C 114.836 19.037,114.220 19.466,114.453 19.479 C 114.962 19.507,118.209 17.971,118.209 17.702 C 118.209 17.379,117.679 17.562,115.821 18.526 M284.975 17.702 C 284.975 17.970,288.220 19.507,288.731 19.482 C 288.964 19.470,288.270 19.022,287.189 18.487 C 285.099 17.450,284.975 17.406,284.975 17.702 M111.744 20.402 C 110.924 20.859,110.325 21.303,110.412 21.390 C 110.598 21.577,113.831 19.972,113.831 19.693 C 113.831 19.361,113.277 19.549,111.744 20.402 M289.364 19.806 C 289.376 20.162,292.513 21.649,292.750 21.412 C 292.842 21.320,292.116 20.855,291.136 20.379 C 290.155 19.902,289.358 19.645,289.364 19.806 M107.662 22.519 C 106.786 23.042,106.283 23.472,106.544 23.476 C 107.039 23.483,109.851 21.932,109.851 21.652 C 109.851 21.337,109.227 21.583,107.662 22.519 M293.346 21.791 C 293.361 22.124,296.196 23.538,296.414 23.321 C 296.548 23.186,293.858 21.493,293.510 21.493 C 293.413 21.493,293.339 21.627,293.346 21.791 M104.145 24.402 C 103.305 24.869,102.833 25.323,103.096 25.410 C 103.359 25.498,103.688 25.393,103.827 25.177 C 103.966 24.961,104.483 24.658,104.975 24.504 C 105.468 24.351,105.871 24.058,105.871 23.854 C 105.871 23.408,106.014 23.363,104.145 24.402 M296.915 23.642 C 296.915 23.921,299.726 25.473,300.222 25.468 C 300.483 25.465,299.917 25.017,298.964 24.473 C 297.216 23.473,296.915 23.352,296.915 23.642 M100.992 26.234 C 99.626 27.110,99.264 27.463,99.735 27.461 C 99.935 27.460,100.637 27.018,101.294 26.480 C 102.685 25.339,102.554 25.233,100.992 26.234 M300.898 25.785 C 300.901 26.138,303.331 27.548,303.553 27.325 C 303.643 27.236,303.081 26.789,302.306 26.331 C 301.530 25.874,300.897 25.628,300.898 25.785 M97.114 28.445 C 96.348 28.958,94.404 30.212,92.794 31.231 C 91.184 32.250,89.999 33.207,90.162 33.358 C 90.324 33.508,90.537 33.408,90.635 33.134 C 90.733 32.861,91.066 32.637,91.376 32.637 C 91.687 32.637,91.940 32.498,91.940 32.329 C 91.940 32.160,92.612 31.672,93.433 31.245 C 94.254 30.818,95.480 30.061,96.157 29.563 C 96.834 29.064,97.574 28.657,97.800 28.657 C 98.026 28.657,98.434 28.388,98.706 28.060 C 99.422 27.197,98.722 27.367,97.114 28.445 M304.448 28.024 C 304.737 28.372,305.220 28.657,305.521 28.657 C 305.823 28.657,306.070 28.795,306.070 28.964 C 306.070 29.133,306.741 29.624,307.562 30.055 C 308.383 30.486,309.144 30.937,309.254 31.059 C 309.363 31.180,310.706 32.060,312.239 33.014 C 313.771 33.967,315.114 34.855,315.224 34.986 C 315.594 35.429,320.357 38.607,320.651 38.607 C 320.811 38.607,318.667 36.995,315.886 35.025 C 313.106 33.055,310.677 31.443,310.489 31.443 C 310.301 31.443,309.938 31.191,309.682 30.882 C 309.426 30.574,308.643 30.029,307.942 29.672 C 307.241 29.314,306.049 28.654,305.295 28.206 C 304.317 27.625,304.074 27.573,304.448 28.024 M88.690 33.731 C 88.617 33.896,87.780 34.536,86.829 35.154 C 85.879 35.773,85.232 36.399,85.391 36.547 C 85.551 36.695,85.761 36.592,85.859 36.318 C 85.957 36.045,86.245 35.816,86.501 35.810 C 87.125 35.796,89.878 33.457,89.287 33.444 C 89.032 33.438,88.763 33.567,88.690 33.731 M83.383 37.646 C 82.726 38.172,82.368 38.598,82.587 38.592 C 83.078 38.578,84.948 37.053,84.733 36.842 C 84.647 36.757,84.040 37.119,83.383 37.646 M81.407 38.982 C 81.262 39.217,79.856 40.378,78.283 41.561 C 74.461 44.437,72.952 45.741,73.433 45.750 C 73.652 45.755,74.392 45.269,75.078 44.670 C 77.498 42.559,78.221 41.982,79.393 41.226 C 81.037 40.164,82.175 39.057,81.901 38.784 C 81.775 38.657,81.553 38.746,81.407 38.982 M321.200 38.817 C 321.193 39.277,322.185 40.191,323.854 41.265 C 324.471 41.662,325.541 42.494,326.233 43.114 C 327.957 44.660,331.291 47.017,329.937 45.732 C 328.701 44.560,325.524 41.981,323.383 40.412 C 322.507 39.771,321.659 39.057,321.499 38.827 C 321.305 38.549,321.204 38.546,321.200 38.817 M69.254 49.019 C 67.612 50.571,66.627 51.595,67.065 51.295 C 68.807 50.101,73.064 46.165,72.593 46.183 C 72.398 46.190,70.896 47.466,69.254 49.019 M331.150 46.754 C 331.144 47.150,331.712 47.688,335.774 51.139 C 337.058 52.230,340.760 55.788,344.000 59.046 C 347.239 62.304,349.961 64.898,350.049 64.810 C 350.276 64.583,337.845 52.351,334.527 49.538 C 332.995 48.239,331.610 46.994,331.449 46.772 C 331.272 46.527,331.154 46.520,331.150 46.754 M64.884 52.788 C 64.341 53.307,64.035 53.731,64.204 53.731 C 64.619 53.731,66.254 52.187,66.041 51.996 C 65.947 51.913,65.427 52.269,64.884 52.788 M61.692 55.920 C 60.725 56.905,60.023 57.711,60.133 57.711 C 60.242 57.711,61.123 56.905,62.090 55.920 C 63.056 54.935,63.758 54.129,63.648 54.129 C 63.539 54.129,62.658 54.935,61.692 55.920 M53.889 63.788 C 51.531 66.396,47.659 70.830,46.766 71.945 C 45.348 73.715,41.801 78.172,40.673 79.602 C 38.385 82.501,36.561 85.174,36.882 85.159 C 37.290 85.140,39.801 81.773,39.801 81.244 C 39.801 81.034,39.947 80.803,40.124 80.730 C 40.302 80.657,41.178 79.612,42.071 78.408 C 42.963 77.204,44.028 75.861,44.438 75.423 C 44.847 74.985,45.804 73.821,46.564 72.836 C 47.325 71.851,48.438 70.542,49.039 69.928 C 49.640 69.314,50.803 67.971,51.624 66.943 C 52.444 65.915,53.713 64.473,54.442 63.739 C 55.172 63.004,55.695 62.329,55.605 62.238 C 55.514 62.147,54.742 62.845,53.889 63.788 M350.264 65.498 C 350.282 65.957,354.986 71.020,355.193 70.803 C 355.275 70.717,354.196 69.404,352.795 67.886 C 351.395 66.367,350.256 65.293,350.264 65.498 M356.525 72.772 C 357.198 73.723,358.263 75.066,358.893 75.757 C 359.522 76.449,360.377 77.591,360.793 78.296 C 361.209 79.001,361.790 79.669,362.084 79.782 C 362.377 79.894,362.121 79.318,361.514 78.501 C 358.547 74.503,354.290 69.615,356.525 72.772 M363.383 81.379 C 363.383 81.935,366.260 85.614,366.504 85.370 C 366.635 85.239,366.553 85.006,366.321 84.854 C 366.089 84.702,365.333 83.789,364.641 82.826 C 363.949 81.863,363.383 81.212,363.383 81.379 M35.492 86.819 C 34.983 87.446,34.738 87.960,34.949 87.960 C 35.339 87.960,36.788 85.993,36.549 85.789 C 36.477 85.727,36.001 86.191,35.492 86.819 M366.567 86.187 C 366.567 86.306,367.040 86.888,367.618 87.480 L 368.669 88.557 367.790 87.264 C 366.960 86.042,366.567 85.696,366.567 86.187 M33.529 89.767 C 33.034 90.525,32.765 91.139,32.932 91.132 C 33.383 91.113,34.704 89.184,34.556 88.759 C 34.486 88.556,34.023 89.010,33.529 89.767 M368.561 88.955 C 368.561 89.174,369.002 89.891,369.540 90.547 C 370.078 91.204,370.519 91.562,370.519 91.343 C 370.519 91.124,370.078 90.408,369.540 89.751 C 369.002 89.095,368.561 88.736,368.561 88.955 M370.562 92.239 C 370.554 92.512,370.726 92.736,370.945 92.736 C 371.164 92.736,371.343 92.983,371.343 93.285 C 371.343 93.586,371.612 94.056,371.940 94.328 C 372.872 95.101,372.638 94.257,371.555 92.935 C 371.016 92.279,370.569 91.965,370.562 92.239 M30.312 94.908 C 29.854 95.684,29.551 96.318,29.638 96.318 C 29.950 96.318,31.526 93.881,31.337 93.691 C 31.230 93.585,30.769 94.133,30.312 94.908 M28.308 98.115 C 27.381 99.686,27.269 100.067,27.835 99.717 C 28.295 99.433,29.513 97.042,29.305 96.834 C 29.222 96.751,28.773 97.327,28.308 98.115 M374.606 98.607 C 375.543 100.528,375.898 101.095,376.170 101.095 C 376.346 101.095,376.121 100.468,375.669 99.701 C 374.974 98.524,374.155 97.680,374.606 98.607 M26.808 100.770 C 25.945 102.114,25.551 103.085,25.867 103.085 C 26.059 103.085,26.341 102.682,26.494 102.189 C 26.648 101.697,26.969 101.169,27.206 101.017 C 27.444 100.864,27.527 100.629,27.392 100.493 C 27.256 100.357,26.993 100.481,26.808 100.770 M376.517 101.965 C 376.517 102.308,376.786 102.812,377.114 103.085 C 377.874 103.715,377.866 103.124,377.102 102.113 C 376.634 101.494,376.517 101.465,376.517 101.965 M24.376 105.151 C 23.882 106.055,23.547 106.863,23.630 106.947 C 23.857 107.174,25.524 104.232,25.389 103.842 C 25.326 103.658,24.870 104.247,24.376 105.151 M377.711 104.065 C 377.711 104.378,379.776 108.035,380.191 108.458 C 380.406 108.677,380.023 107.736,379.340 106.368 C 378.256 104.197,377.711 103.427,377.711 104.065 M22.719 108.198 C 22.069 109.413,22.203 109.752,22.926 108.720 C 23.277 108.219,23.470 107.716,23.356 107.602 C 23.242 107.488,22.955 107.756,22.719 108.198 M380.498 109.238 C 380.498 109.742,382.974 114.635,383.345 114.864 C 383.858 115.181,383.788 114.995,382.274 112.040 C 380.824 109.208,380.498 108.693,380.498 109.238 M20.384 112.921 C 19.912 113.946,19.601 114.858,19.691 114.948 C 19.781 115.038,20.247 114.280,20.725 113.262 C 21.203 112.245,21.515 111.333,21.418 111.235 C 21.320 111.138,20.855 111.897,20.384 112.921 M18.430 117.221 C 17.978 118.202,17.732 119.005,17.882 119.005 C 18.218 119.005,19.648 115.834,19.417 115.603 C 19.325 115.511,18.881 116.239,18.430 117.221 M383.682 115.945 C 383.682 116.343,385.358 119.451,385.498 119.312 C 385.692 119.117,384.156 115.821,383.871 115.821 C 383.767 115.821,383.682 115.877,383.682 115.945 M16.815 120.588 C 16.091 121.746,16.206 122.526,16.945 121.471 C 17.290 120.979,17.513 120.400,17.441 120.185 C 17.370 119.969,17.088 120.151,16.815 120.588 M386.470 122.212 C 386.469 122.554,386.731 123.181,387.052 123.606 C 387.812 124.611,387.820 124.175,387.067 122.732 C 386.740 122.105,386.471 121.871,386.470 122.212 M14.781 125.626 C 14.094 127.312,13.617 128.775,13.720 128.878 C 13.824 128.981,14.096 128.548,14.325 127.916 C 14.770 126.691,15.236 125.587,15.987 123.981 C 16.243 123.434,16.357 122.891,16.240 122.774 C 16.124 122.658,15.467 123.941,14.781 125.626 M387.671 125.051 C 387.666 125.421,387.820 125.822,388.015 125.942 C 388.209 126.062,388.485 126.789,388.630 127.558 C 388.774 128.326,389.063 128.955,389.272 128.955 C 389.745 128.955,389.749 128.732,389.290 127.855 C 389.091 127.475,388.647 126.537,388.304 125.771 C 387.961 125.005,387.676 124.681,387.671 125.051 M13.064 129.950 C 12.933 130.388,12.695 131.104,12.533 131.542 C 12.282 132.225,12.337 132.209,12.914 131.435 C 13.285 130.939,13.523 130.222,13.444 129.843 C 13.320 129.246,13.270 129.260,13.064 129.950 M389.654 129.875 C 389.648 130.637,390.978 134.164,391.359 134.400 C 391.632 134.568,391.669 134.394,391.465 133.896 C 391.294 133.477,391.053 132.781,390.930 132.349 C 390.650 131.364,389.657 129.440,389.654 129.875 M11.627 133.904 C 11.361 134.486,11.144 135.302,11.144 135.717 C 11.144 136.131,10.965 136.581,10.746 136.716 C 10.527 136.852,10.354 137.176,10.361 137.436 C 10.383 138.272,11.542 136.398,11.542 135.526 C 11.542 135.064,11.742 134.487,11.985 134.244 C 12.229 134.000,12.356 133.586,12.269 133.323 C 12.181 133.060,11.892 133.322,11.627 133.904 M391.657 135.996 C 391.649 136.476,391.797 136.965,391.988 137.082 C 392.178 137.200,392.448 138.016,392.589 138.897 C 392.730 139.777,393.022 140.498,393.239 140.498 C 393.750 140.498,393.747 139.819,393.234 139.502 C 393.015 139.367,392.836 138.929,392.836 138.530 C 392.836 137.388,391.677 134.897,391.657 135.996 M9.606 140.104 C 9.312 141.087,8.911 142.302,8.715 142.805 C 8.163 144.219,8.320 144.792,8.955 143.682 C 9.268 143.134,9.530 142.230,9.538 141.672 C 9.546 141.113,9.748 140.461,9.988 140.221 C 10.227 139.982,10.359 139.456,10.282 139.052 C 10.194 138.595,9.938 138.993,9.606 140.104 M393.647 142.144 C 393.639 142.502,393.899 143.308,394.226 143.935 C 394.991 145.401,395.005 144.583,394.244 142.832 C 393.925 142.095,393.656 141.785,393.647 142.144 M8.006 145.540 C 7.981 145.795,7.844 146.333,7.703 146.734 C 7.503 147.299,7.556 147.361,7.939 147.007 C 8.211 146.757,8.347 146.220,8.243 145.813 C 8.138 145.407,8.032 145.284,8.006 145.540 M7.067 148.756 C 6.963 149.358,6.749 150.209,6.591 150.647 C 6.307 151.431,6.312 151.432,6.933 150.670 C 7.279 150.245,7.562 149.395,7.562 148.780 C 7.562 147.354,7.309 147.342,7.067 148.756 M395.663 148.910 C 395.640 149.486,395.899 150.561,396.238 151.298 C 396.896 152.729,396.845 152.049,396.083 149.254 C 395.746 148.018,395.699 147.979,395.663 148.910 M5.683 154.428 C 5.429 155.413,5.134 156.756,5.027 157.413 C 4.920 158.070,4.699 158.950,4.537 159.369 C 4.338 159.883,4.387 160.042,4.685 159.857 C 4.929 159.707,5.240 158.737,5.377 157.702 C 5.515 156.667,5.811 155.441,6.037 154.978 C 6.262 154.514,6.379 153.798,6.295 153.386 C 6.201 152.921,5.969 153.316,5.683 154.428 M396.844 153.907 C 396.829 154.386,396.995 154.890,397.214 155.025 C 397.685 155.316,397.685 154.926,397.214 153.831 C 396.884 153.063,396.871 153.066,396.844 153.907 M397.658 157.436 C 397.631 158.375,397.874 159.375,398.238 159.824 C 398.842 160.569,398.855 160.561,398.602 159.602 C 398.457 159.055,398.196 157.980,398.021 157.214 L 397.703 155.821 397.658 157.436 M3.667 164.378 C 3.385 166.020,2.982 168.127,2.772 169.060 C 2.293 171.178,2.290 171.650,2.755 171.363 C 2.957 171.238,3.238 169.929,3.379 168.454 C 3.521 166.978,3.817 165.298,4.038 164.719 C 4.259 164.141,4.381 163.156,4.309 162.530 C 4.224 161.788,4.001 162.430,3.667 164.378 M398.943 163.551 C 399.003 164.874,400.000 165.873,400.000 164.610 C 400.000 164.264,399.833 163.980,399.630 163.980 C 399.426 163.980,399.174 163.577,399.071 163.085 C 398.966 162.589,398.909 162.798,398.943 163.551 M1.653 177.313 C 1.358 179.284,1.197 181.433,1.295 182.090 C 1.428 182.983,1.488 182.823,1.532 181.452 C 1.565 180.445,1.782 179.075,2.015 178.408 C 2.247 177.741,2.382 176.416,2.313 175.463 C 2.208 173.994,2.108 174.274,1.653 177.313 M0.868 187.738 C 0.828 188.655,0.617 189.516,0.398 189.652 C -0.104 189.962,-0.130 194.229,0.369 194.229 C 0.860 194.229,1.293 190.553,1.096 188.060 C 0.944 186.125,0.938 186.116,0.868 187.738 M-0.000 208.796 C -0.000 210.109,0.167 211.354,0.371 211.562 C 0.576 211.770,0.828 212.657,0.931 213.532 C 1.035 214.408,1.071 213.367,1.012 211.218 C 0.890 206.807,0.000 204.675,-0.000 208.796 M1.424 220.697 C 1.521 222.229,1.766 224.378,1.968 225.473 C 2.331 227.442,2.333 227.435,2.166 224.876 C 2.074 223.453,1.829 221.303,1.622 220.100 L 1.246 217.910 1.424 220.697 M2.544 230.647 C 2.685 231.303,2.978 233.005,3.194 234.428 C 3.411 235.851,3.759 237.642,3.968 238.408 L 4.348 239.801 4.182 238.209 C 3.731 233.889,3.081 230.208,2.706 229.851 C 2.417 229.575,2.367 229.820,2.544 230.647 M399.071 236.285 C 398.925 236.431,398.807 237.013,398.808 237.579 L 398.811 238.607 399.405 237.467 C 400.150 236.039,399.967 235.390,399.071 236.285 M398.075 241.410 C 397.820 241.969,397.626 242.999,397.643 243.700 C 397.661 244.401,397.728 244.796,397.794 244.577 C 397.860 244.358,398.143 243.417,398.424 242.486 C 399.002 240.569,398.775 239.872,398.075 241.410 M4.608 241.791 C 4.762 242.448,5.025 243.701,5.194 244.577 C 5.362 245.453,5.680 246.706,5.900 247.363 L 6.300 248.557 6.334 247.486 C 6.353 246.897,6.215 246.320,6.027 246.204 C 5.839 246.088,5.579 245.092,5.448 243.989 C 5.318 242.887,5.012 241.673,4.769 241.291 C 4.413 240.732,4.382 240.828,4.608 241.791 M397.106 245.813 C 396.947 245.972,396.827 246.566,396.841 247.131 L 396.866 248.159 397.251 247.198 C 397.664 246.163,397.579 245.340,397.106 245.813 M396.096 250.088 C 395.835 250.809,395.636 251.835,395.653 252.367 C 395.671 252.898,395.738 253.154,395.804 252.935 C 395.870 252.716,396.153 251.775,396.434 250.844 C 397.044 248.821,396.773 248.216,396.096 250.088 M6.574 250.647 C 6.734 251.030,7.003 251.881,7.173 252.537 C 7.456 253.637,7.484 253.652,7.516 252.736 C 7.565 251.345,7.146 249.950,6.677 249.950 C 6.456 249.950,6.411 250.257,6.574 250.647 M395.091 253.798 C 394.945 253.944,394.837 254.436,394.851 254.892 C 394.874 255.655,394.907 255.645,395.258 254.768 C 395.647 253.794,395.567 253.322,395.091 253.798 M7.590 254.205 C 7.680 255.239,8.302 256.115,8.330 255.247 C 8.346 254.768,8.179 254.265,7.960 254.129 C 7.741 253.994,7.575 254.028,7.590 254.205 M394.114 257.287 C 393.849 257.869,393.639 258.651,393.647 259.024 C 393.656 259.396,393.929 259.088,394.254 258.338 C 394.952 256.731,394.820 255.738,394.114 257.287 M8.378 256.915 C 8.374 257.134,8.628 258.030,8.944 258.905 C 9.398 260.167,9.518 260.291,9.521 259.502 C 9.523 258.955,9.268 258.060,8.955 257.512 C 8.642 256.965,8.383 256.697,8.378 256.915 M392.589 262.297 C 392.448 263.178,392.178 263.994,391.988 264.112 C 391.797 264.229,391.651 264.718,391.662 265.198 C 391.678 265.849,391.813 265.717,392.198 264.677 C 393.293 261.714,393.550 260.697,393.204 260.697 C 393.007 260.697,392.730 261.417,392.589 262.297 M10.361 263.758 C 10.354 264.018,10.527 264.342,10.746 264.478 C 10.965 264.613,11.151 265.116,11.158 265.596 C 11.176 266.680,12.303 268.796,12.324 267.785 C 12.332 267.415,12.159 267.001,11.940 266.866 C 11.721 266.730,11.542 266.217,11.542 265.724 C 11.542 264.815,10.384 262.887,10.361 263.758 M390.818 267.710 C 390.567 268.340,390.202 269.167,390.007 269.547 C 389.812 269.927,389.661 270.554,389.672 270.940 C 389.684 271.326,389.965 270.925,390.299 270.050 C 390.632 269.174,391.083 268.127,391.301 267.722 C 391.519 267.318,391.602 266.892,391.485 266.775 C 391.369 266.659,391.069 267.079,390.818 267.710 M12.351 269.274 C 12.344 269.503,12.500 269.862,12.698 270.070 C 12.895 270.278,13.143 270.806,13.249 271.244 C 13.435 272.020,13.441 272.020,13.486 271.220 C 13.512 270.770,13.269 270.053,12.948 269.628 C 12.627 269.203,12.358 269.044,12.351 269.274 M388.867 272.807 C 388.642 273.398,388.458 274.140,388.458 274.454 C 388.458 274.768,388.279 275.025,388.060 275.025 C 387.841 275.025,387.667 275.338,387.674 275.721 C 387.689 276.619,388.399 275.510,389.128 273.448 C 389.703 271.823,389.464 271.236,388.867 272.807 M14.337 274.096 C 14.323 274.833,15.917 278.345,16.157 278.105 C 16.276 277.986,16.198 277.558,15.984 277.153 C 15.770 276.749,15.314 275.791,14.970 275.025 C 14.627 274.259,14.342 273.841,14.337 274.096 M386.898 277.751 C 386.661 278.193,386.469 278.790,386.470 279.078 C 386.471 279.366,386.743 279.083,387.074 278.448 C 387.405 277.814,387.598 277.216,387.502 277.121 C 387.406 277.025,387.135 277.309,386.898 277.751 M16.335 279.005 C 16.349 279.719,17.478 281.791,17.498 281.140 C 17.506 280.891,17.245 280.175,16.918 279.548 C 16.591 278.921,16.329 278.677,16.335 279.005 M17.512 281.916 C 17.512 282.299,19.464 285.899,19.482 285.547 C 19.507 285.036,17.970 281.791,17.702 281.791 C 17.598 281.791,17.512 281.847,17.512 281.916 M384.955 282.269 C 384.693 282.531,384.478 283.069,384.478 283.463 C 384.478 283.857,384.299 284.179,384.080 284.179 C 383.861 284.179,383.682 284.484,383.682 284.856 C 383.682 285.794,384.270 285.102,385.017 283.284 C 385.684 281.662,385.677 281.547,384.955 282.269 M380.856 290.827 C 379.469 293.628,378.172 296.034,377.974 296.173 C 377.776 296.312,377.698 296.670,377.800 296.969 C 377.910 297.291,378.309 296.865,378.781 295.920 C 379.219 295.045,380.513 292.475,381.658 290.211 C 382.802 287.946,383.657 286.012,383.559 285.913 C 383.460 285.815,382.244 288.026,380.856 290.827 M19.502 286.331 C 19.502 286.714,21.252 289.727,21.393 289.586 C 21.577 289.401,19.970 286.169,19.693 286.169 C 19.588 286.169,19.502 286.242,19.502 286.331 M21.493 290.311 C 21.493 290.694,23.242 293.707,23.383 293.566 C 23.567 293.381,21.960 290.149,21.683 290.149 C 21.578 290.149,21.493 290.222,21.493 290.311 M23.483 294.267 C 23.483 294.368,24.109 295.560,24.876 296.915 C 25.642 298.271,26.269 299.520,26.269 299.691 C 26.269 299.862,26.537 300.225,26.866 300.498 C 27.226 300.797,27.463 300.829,27.463 300.579 C 27.463 300.352,27.328 300.106,27.164 300.033 C 27.000 299.960,26.266 298.692,25.534 297.214 C 24.396 294.917,23.483 293.605,23.483 294.267 M376.988 298.196 C 376.729 298.455,376.517 298.939,376.517 299.273 C 376.517 299.689,376.717 299.593,377.155 298.968 C 377.853 297.971,377.740 297.444,376.988 298.196 M375.211 301.350 C 374.239 303.058,374.533 303.138,375.630 301.464 C 376.122 300.714,376.389 300.101,376.223 300.102 C 376.056 300.103,375.601 300.665,375.211 301.350 M27.463 301.421 C 27.463 302.109,29.234 304.537,29.391 304.065 C 29.491 303.767,29.366 303.454,29.114 303.370 C 28.863 303.286,28.657 302.985,28.657 302.702 C 28.657 302.419,28.388 301.964,28.060 301.692 C 27.731 301.419,27.463 301.297,27.463 301.421 M373.310 304.378 C 372.430 306.134,372.413 306.194,372.858 305.918 C 373.420 305.571,374.552 303.284,374.163 303.284 C 373.996 303.284,373.612 303.776,373.310 304.378 M30.312 306.286 C 30.769 307.061,31.230 307.609,31.337 307.503 C 31.526 307.313,29.950 304.876,29.638 304.876 C 29.551 304.876,29.854 305.510,30.312 306.286 M371.343 307.662 C 370.858 308.344,370.555 308.996,370.671 309.112 C 370.786 309.227,371.101 308.904,371.371 308.392 C 371.640 307.881,372.052 307.338,372.287 307.186 C 372.521 307.034,372.604 306.799,372.470 306.665 C 372.336 306.531,371.829 306.980,371.343 307.662 M369.337 310.869 C 368.860 311.538,368.557 312.173,368.663 312.279 C 368.770 312.385,369.231 311.837,369.688 311.062 C 370.710 309.330,370.511 309.221,369.337 310.869 M33.449 311.267 C 33.926 311.936,34.403 312.396,34.510 312.289 C 34.757 312.042,33.345 310.079,32.908 310.062 C 32.729 310.055,32.973 310.597,33.449 311.267 M35.460 314.030 C 36.613 315.817,36.617 315.821,36.615 315.390 C 36.614 315.189,36.151 314.488,35.587 313.831 L 34.561 312.637 35.460 314.030 M367.365 313.829 C 366.851 314.376,366.532 314.923,366.655 315.046 C 366.778 315.169,367.268 314.722,367.745 314.053 C 368.794 312.579,368.630 312.482,367.365 313.829 M365.474 316.586 C 365.013 317.117,364.311 318.057,363.914 318.676 C 363.518 319.295,362.415 320.786,361.464 321.990 C 359.604 324.344,359.510 324.464,357.423 327.165 C 356.663 328.150,355.862 329.080,355.644 329.232 C 355.425 329.384,355.352 329.614,355.480 329.742 C 355.608 329.870,356.230 329.309,356.861 328.495 C 357.493 327.681,358.557 326.377,359.227 325.597 C 359.896 324.817,361.669 322.478,363.167 320.398 C 364.665 318.318,366.065 316.393,366.278 316.119 C 366.973 315.226,366.334 315.597,365.474 316.586 M38.099 317.922 C 38.478 318.518,38.884 319.095,39.001 319.204 C 39.119 319.313,39.921 320.343,40.784 321.493 C 41.647 322.642,42.426 323.582,42.516 323.582 C 42.752 323.582,41.383 321.548,40.534 320.637 C 40.136 320.209,39.706 319.533,39.580 319.134 C 39.453 318.735,39.182 318.408,38.978 318.408 C 38.774 318.408,38.607 318.158,38.607 317.854 C 38.607 317.549,38.338 317.196,38.009 317.069 C 37.517 316.881,37.533 317.032,38.099 317.922 M43.383 324.975 C 43.897 325.522,44.385 325.970,44.466 325.970 C 44.797 325.970,43.157 324.004,42.816 323.993 C 42.614 323.986,42.869 324.428,43.383 324.975 M46.240 328.557 C 47.180 329.761,48.093 330.746,48.269 330.746 C 48.445 330.746,48.211 330.343,47.750 329.851 C 47.289 329.358,46.551 328.373,46.110 327.662 C 45.669 326.950,45.133 326.368,44.919 326.368 C 44.705 326.368,45.300 327.353,46.240 328.557 M353.797 331.447 C 353.268 332.051,351.761 333.796,350.448 335.324 C 349.134 336.851,347.836 338.340,347.562 338.631 C 347.289 338.923,347.070 339.283,347.077 339.431 C 347.084 339.580,347.558 339.164,348.130 338.507 C 349.901 336.474,354.400 331.448,354.954 330.884 C 355.243 330.589,355.317 330.348,355.119 330.348 C 354.921 330.348,354.326 330.843,353.797 331.447 M50.466 333.433 C 51.545 334.692,52.762 336.124,53.169 336.617 C 53.575 337.109,54.092 337.510,54.317 337.506 C 54.588 337.502,54.592 337.401,54.328 337.208 C 53.883 336.881,52.145 334.865,50.376 332.623 C 49.735 331.810,49.051 331.144,48.856 331.144 C 48.662 331.144,49.386 332.174,50.466 333.433 M60.308 343.788 C 66.194 349.559,71.265 354.163,72.438 354.799 C 73.248 355.239,69.854 352.018,67.432 350.050 C 66.355 349.174,63.081 346.085,60.156 343.184 C 57.230 340.284,54.723 337.913,54.583 337.917 C 54.443 337.921,57.019 340.563,60.308 343.788 M343.987 342.160 C 342.622 343.544,341.643 344.677,341.810 344.677 C 342.214 344.677,346.871 339.961,346.644 339.783 C 346.547 339.706,345.351 340.776,343.987 342.160 M340.079 346.054 C 339.452 346.592,339.022 347.107,339.122 347.198 C 339.222 347.289,339.841 346.848,340.498 346.219 C 341.957 344.822,341.653 344.701,340.079 346.054 M336.702 348.988 C 336.366 349.353,335.202 350.397,334.115 351.308 C 333.029 352.218,332.231 353.056,332.343 353.170 C 332.455 353.283,333.799 352.231,335.328 350.831 C 336.858 349.431,337.930 348.294,337.711 348.305 C 337.493 348.316,337.039 348.624,336.702 348.988 M331.338 353.840 C 331.200 354.063,330.081 354.989,328.853 355.897 C 325.926 358.059,325.174 358.715,325.174 359.109 C 325.174 359.288,325.519 359.114,325.940 358.722 C 326.361 358.330,327.785 357.204,329.103 356.219 C 330.422 355.234,331.594 354.204,331.708 353.930 C 331.957 353.332,331.692 353.267,331.338 353.840 M73.453 355.747 C 76.086 358.002,78.010 359.393,78.010 359.042 C 78.010 358.803,77.876 358.604,77.711 358.601 C 77.547 358.597,76.607 357.884,75.622 357.015 C 74.637 356.146,73.661 355.433,73.453 355.429 C 73.214 355.425,73.214 355.542,73.453 355.747 M78.408 359.558 C 78.408 359.644,80.109 360.979,82.189 362.526 C 84.269 364.072,85.970 365.211,85.969 365.057 C 85.969 364.902,85.118 364.196,84.079 363.487 C 83.039 362.779,81.473 361.573,80.597 360.808 C 79.162 359.555,78.408 359.125,78.408 359.558 M322.388 361.045 L 320.597 362.674 322.520 361.346 C 324.470 359.998,325.085 359.398,324.501 359.409 C 324.324 359.413,323.373 360.149,322.388 361.045 M318.812 363.365 C 318.268 363.783,317.910 364.210,318.016 364.315 C 318.122 364.420,318.746 364.075,319.403 363.548 C 320.808 362.422,320.261 362.251,318.812 363.365 M316.319 365.310 C 315.718 365.673,315.225 366.117,315.225 366.296 C 315.224 366.475,315.761 366.239,316.418 365.771 C 318.186 364.512,318.124 364.221,316.319 365.310 M88.358 366.757 C 88.358 366.850,89.164 367.481,90.149 368.159 C 91.134 368.837,91.940 369.247,91.940 369.071 C 91.940 368.895,91.134 368.264,90.149 367.669 C 89.164 367.074,88.358 366.663,88.358 366.757 M314.030 366.965 C 314.030 367.184,313.871 367.363,313.677 367.363 C 313.178 367.363,309.305 369.891,309.277 370.234 C 309.250 370.569,314.340 367.430,314.657 366.917 C 314.776 366.724,314.683 366.567,314.451 366.567 C 314.220 366.567,314.030 366.746,314.030 366.965 M94.328 370.707 C 94.328 370.795,95.000 371.246,95.821 371.710 L 97.313 372.553 96.119 371.552 C 95.024 370.634,94.328 370.306,94.328 370.707 M307.165 371.280 C 306.563 371.643,306.071 372.087,306.070 372.266 C 306.070 372.521,307.548 371.667,308.823 370.676 C 309.354 370.263,308.083 370.726,307.165 371.280 M98.844 373.568 C 99.678 374.134,100.444 374.515,100.545 374.413 C 100.735 374.224,98.083 372.537,97.596 372.537 C 97.449 372.537,98.010 373.001,98.844 373.568 M303.483 373.545 C 301.930 374.817,302.513 374.809,304.392 373.532 C 305.197 372.985,305.591 372.544,305.267 372.552 C 304.942 372.559,304.139 373.006,303.483 373.545 M300.896 375.124 C 300.619 375.457,300.576 375.721,300.798 375.721 C 301.017 375.721,301.419 375.453,301.692 375.124 C 301.968 374.791,302.011 374.527,301.789 374.527 C 301.570 374.527,301.168 374.796,300.896 375.124 M298.573 376.311 C 296.844 377.264,296.704 377.805,298.408 376.951 C 299.338 376.485,300.100 376.017,300.100 375.912 C 300.100 375.618,299.591 375.750,298.573 376.311 M104.899 377.102 C 105.910 377.866,106.501 377.874,105.871 377.114 C 105.598 376.786,105.094 376.517,104.751 376.517 C 104.251 376.517,104.281 376.634,104.899 377.102 M106.667 377.901 C 106.667 378.146,109.949 379.736,110.114 379.571 C 110.234 379.451,107.160 377.711,106.828 377.711 C 106.739 377.711,106.667 377.797,106.667 377.901 M293.509 379.092 C 293.084 379.413,292.915 379.676,293.134 379.676 C 293.353 379.676,293.880 379.413,294.305 379.092 C 294.730 378.770,294.898 378.507,294.680 378.507 C 294.461 378.507,293.934 378.770,293.509 379.092 M110.647 379.891 C 110.647 380.176,113.943 381.712,114.137 381.518 C 114.230 381.425,113.538 380.979,112.601 380.525 C 110.770 379.641,110.647 379.601,110.647 379.891 M289.353 381.095 C 288.723 381.854,289.314 381.846,290.325 381.082 C 290.943 380.614,290.973 380.498,290.473 380.498 C 290.130 380.498,289.626 380.766,289.353 381.095 M114.627 381.881 C 114.627 382.166,117.923 383.702,118.117 383.508 C 118.210 383.415,117.519 382.969,116.581 382.515 C 114.750 381.631,114.627 381.591,114.627 381.881 M286.269 382.412 C 285.557 382.752,284.975 383.180,284.975 383.363 C 284.975 383.637,287.949 382.362,288.524 381.842 C 288.928 381.476,287.444 381.851,286.269 382.412 M120.373 384.698 C 122.669 385.836,122.853 385.874,122.189 385.075 C 121.917 384.746,121.368 384.478,120.970 384.478 C 120.572 384.478,120.135 384.299,120.000 384.080 C 119.865 383.861,119.451 383.691,119.081 383.703 C 118.711 383.714,119.292 384.162,120.373 384.698 M283.216 384.028 C 283.098 384.219,282.461 384.483,281.799 384.615 C 281.138 384.748,280.597 385.033,280.597 385.250 C 280.597 385.466,281.444 385.280,282.479 384.836 C 284.652 383.905,284.960 383.682,284.070 383.682 C 283.718 383.682,283.334 383.838,283.216 384.028 M125.144 386.685 C 126.221 387.219,127.179 387.581,127.272 387.488 C 127.481 387.278,124.186 385.664,123.607 385.693 C 123.374 385.704,124.066 386.151,125.144 386.685 M277.811 386.302 C 277.258 386.609,277.081 386.850,277.413 386.846 C 277.741 386.841,278.458 386.582,279.005 386.269 C 279.552 385.956,279.731 385.711,279.403 385.725 C 279.075 385.738,278.358 385.998,277.811 386.302 M128.955 388.150 C 130.973 389.038,132.711 389.611,132.878 389.444 C 132.972 389.350,132.710 389.152,132.296 389.005 C 131.881 388.858,130.938 388.496,130.200 388.200 C 128.607 387.561,127.517 387.517,128.955 388.150 M273.035 388.083 C 272.706 388.290,271.920 388.642,271.288 388.867 C 270.656 389.092,270.223 389.360,270.326 389.464 C 270.429 389.567,271.573 389.211,272.869 388.673 C 274.164 388.135,274.866 387.698,274.428 387.702 C 273.990 387.706,273.363 387.877,273.035 388.083 M133.367 389.797 C 133.754 390.137,138.279 391.605,138.441 391.443 C 138.656 391.227,136.681 390.448,135.918 390.448 C 135.617 390.448,135.260 390.269,135.124 390.050 C 134.989 389.831,134.501 389.652,134.040 389.652 C 133.578 389.652,133.275 389.717,133.367 389.797 M268.060 390.050 C 267.924 390.269,267.411 390.448,266.918 390.448 C 266.009 390.448,264.081 391.606,264.952 391.629 C 265.212 391.636,265.536 391.463,265.672 391.244 C 265.807 391.025,266.310 390.839,266.790 390.832 C 267.874 390.814,269.990 389.687,268.979 389.666 C 268.609 389.658,268.195 389.831,268.060 390.050 M140.444 392.254 C 142.195 393.015,143.013 393.001,141.547 392.236 C 140.920 391.909,140.114 391.649,139.755 391.657 C 139.397 391.666,139.707 391.935,140.444 392.254 M261.493 392.239 C 260.186 392.985,261.032 392.996,262.740 392.254 C 263.665 391.853,263.833 391.672,263.284 391.671 C 262.846 391.671,262.040 391.926,261.493 392.239 M146.468 394.093 C 147.234 394.302,148.308 394.546,148.856 394.635 C 149.444 394.731,149.525 394.706,149.055 394.574 C 148.617 394.451,148.089 394.189,147.881 393.991 C 147.673 393.794,146.956 393.650,146.289 393.673 L 145.075 393.713 146.468 394.093 M254.527 394.243 C 252.942 394.969,254.103 394.967,256.119 394.240 C 257.350 393.797,257.485 393.670,256.716 393.682 C 256.169 393.690,255.184 393.943,254.527 394.243 M250.945 395.224 C 250.632 395.731,251.554 395.731,252.338 395.224 C 252.824 394.910,252.772 394.837,252.063 394.832 C 251.584 394.829,251.081 395.005,250.945 395.224 M153.831 396.030 C 157.173 396.946,157.094 396.939,156.242 396.248 C 155.817 395.904,154.832 395.640,154.053 395.663 L 152.637 395.703 153.831 396.030 M246.942 396.206 C 245.999 396.919,246.065 396.920,248.557 396.228 C 250.482 395.694,250.501 395.675,249.131 395.649 C 248.352 395.634,247.367 395.885,246.942 396.206 M159.303 397.090 C 159.687 397.190,160.000 397.438,160.000 397.641 C 160.000 397.844,160.269 398.010,160.597 398.010 C 160.925 398.010,161.194 397.850,161.194 397.655 C 161.194 397.220,160.172 396.799,159.271 396.862 C 158.686 396.903,158.690 396.930,159.303 397.090 M242.255 397.081 C 241.797 397.539,241.966 398.010,242.587 398.010 C 242.915 398.010,243.184 397.844,243.184 397.641 C 243.184 397.438,243.498 397.190,243.881 397.090 C 244.337 396.971,244.223 396.892,243.549 396.862 C 242.983 396.837,242.401 396.935,242.255 397.081 " stroke="none" fill="#fcc42f" fill-rule="evenodd"></path></g></svg>