<svg id="svg" version="1.1" xmlns="http://www.w3.org/2000/svg" xmlns:xlink="http://www.w3.org/1999/xlink" width="400" height="392.9292929292929" viewBox="0, 0, 400,392.9292929292929"><g id="svgg"><path id="path0" d="M0.000 84.051 C 0.000 160.568,0.152 173.910,0.920 164.798 C 1.038 163.392,1.417 160.826,1.762 159.095 C 2.107 157.365,2.535 155.152,2.713 154.179 C 2.891 153.206,3.257 151.524,3.525 150.442 C 3.793 149.361,4.183 147.768,4.390 146.903 C 4.741 145.442,5.493 142.634,6.288 139.823 C 6.472 139.174,6.738 138.070,6.881 137.369 C 7.024 136.669,7.304 135.995,7.503 135.871 C 7.703 135.748,7.866 135.265,7.866 134.798 C 7.866 134.052,8.469 132.058,9.440 129.597 C 9.610 129.164,10.048 127.925,10.412 126.844 C 11.202 124.496,11.683 123.290,12.426 121.797 C 12.730 121.185,12.979 120.430,12.979 120.120 C 12.979 119.810,13.148 119.249,13.354 118.874 C 13.559 118.498,14.020 117.483,14.376 116.618 C 15.980 112.724,21.649 101.048,23.638 97.542 C 24.313 96.352,25.404 94.405,26.063 93.215 C 27.387 90.825,28.386 89.190,28.707 88.889 C 28.822 88.781,29.264 88.029,29.690 87.217 C 30.116 86.406,30.601 85.742,30.768 85.742 C 30.935 85.742,31.072 85.554,31.072 85.323 C 31.072 85.092,31.514 84.323,32.055 83.614 C 32.596 82.905,33.038 82.205,33.038 82.058 C 33.038 81.801,39.223 73.165,39.695 72.763 C 39.822 72.655,40.709 71.504,41.667 70.206 C 42.625 68.909,43.515 67.758,43.645 67.650 C 43.775 67.542,44.249 66.974,44.699 66.388 C 45.575 65.244,48.817 61.515,52.295 57.648 C 55.107 54.521,61.156 48.547,65.315 44.789 C 68.539 41.876,70.092 40.548,73.461 37.821 C 75.209 36.406,76.609 35.259,77.368 34.619 C 77.629 34.399,77.946 34.218,78.073 34.218 C 78.199 34.218,78.693 33.850,79.171 33.399 C 81.313 31.378,95.460 21.936,98.722 20.350 C 99.263 20.087,99.939 19.648,100.225 19.375 C 100.511 19.102,100.983 18.879,101.274 18.879 C 101.565 18.879,101.862 18.746,101.934 18.584 C 102.006 18.422,103.038 17.778,104.228 17.154 C 108.225 15.057,116.212 11.084,117.601 10.502 C 118.358 10.184,119.840 9.539,120.895 9.067 C 121.949 8.595,123.719 7.862,124.828 7.437 C 125.937 7.012,127.198 6.514,127.630 6.329 C 128.063 6.145,129.213 5.686,130.187 5.310 C 131.160 4.933,132.311 4.485,132.743 4.312 C 133.176 4.140,133.884 3.911,134.317 3.803 C 135.073 3.615,136.996 2.963,138.643 2.336 C 140.304 1.704,143.537 0.787,144.102 0.787 C 144.427 0.787,144.802 0.610,144.936 0.393 C 145.098 0.132,120.882 -0.000,72.590 -0.000 L 0.000 0.000 0.000 84.051 M257.030 0.393 C 257.164 0.610,257.655 0.787,258.122 0.787 C 258.860 0.787,260.306 1.219,263.324 2.343 C 265.943 3.318,266.982 3.651,267.950 3.827 C 268.547 3.935,269.133 4.180,269.251 4.372 C 269.370 4.563,269.739 4.720,270.072 4.720 C 270.405 4.720,271.235 4.964,271.917 5.264 C 272.599 5.563,273.776 6.032,274.533 6.306 C 276.033 6.849,277.722 7.538,279.804 8.456 C 280.540 8.781,281.336 9.046,281.574 9.046 C 281.811 9.046,282.006 9.223,282.006 9.440 C 282.006 9.656,282.316 9.834,282.694 9.835 C 283.073 9.836,287.011 11.663,291.445 13.896 C 298.631 17.513,300.676 18.611,303.456 20.343 C 303.881 20.608,304.795 21.111,305.488 21.461 C 306.181 21.811,306.955 22.347,307.208 22.652 C 307.461 22.956,307.838 23.206,308.046 23.206 C 308.840 23.206,324.482 34.206,327.241 36.704 C 328.000 37.392,329.432 38.574,330.422 39.331 C 336.828 44.230,351.874 59.279,356.735 65.649 C 357.493 66.641,358.686 68.073,359.387 68.830 C 360.088 69.587,360.663 70.327,360.665 70.473 C 360.667 70.620,360.893 70.974,361.167 71.260 C 361.946 72.073,365.815 77.359,368.169 80.826 C 369.344 82.557,370.393 84.061,370.501 84.169 C 370.733 84.401,371.367 85.413,372.473 87.316 C 372.913 88.073,373.716 89.400,374.256 90.265 C 374.797 91.131,375.453 92.281,375.714 92.822 C 375.975 93.363,376.298 93.894,376.433 94.002 C 377.020 94.475,383.235 106.536,385.451 111.504 C 385.933 112.586,386.484 113.778,386.674 114.154 C 386.865 114.530,387.021 115.083,387.021 115.384 C 387.021 115.685,387.286 116.152,387.611 116.421 C 387.935 116.690,388.201 117.210,388.201 117.575 C 388.201 117.941,388.547 118.957,388.971 119.835 C 389.825 121.602,390.675 123.870,391.599 126.844 C 391.935 127.925,392.459 129.280,392.762 129.854 C 393.065 130.428,393.314 131.259,393.314 131.699 C 393.314 132.140,393.491 132.610,393.707 132.743 C 393.923 132.877,394.107 133.463,394.114 134.045 C 394.122 134.627,394.381 135.546,394.690 136.087 C 394.999 136.627,395.259 137.521,395.266 138.073 C 395.274 138.624,395.439 139.244,395.632 139.449 C 395.975 139.814,396.714 142.564,397.106 144.936 C 397.213 145.585,397.466 146.470,397.669 146.903 C 398.134 147.893,398.832 151.078,399.091 153.392 C 399.862 160.264,400.000 148.768,400.000 77.955 L 400.000 0.000 328.394 0.000 C 280.756 0.000,256.869 0.132,257.030 0.393 M84.562 89.881 C 74.108 91.896,64.624 100.016,61.683 109.471 C 58.042 121.172,60.403 127.446,69.047 129.044 C 72.498 129.682,103.186 129.283,105.211 128.574 C 111.004 126.547,112.205 122.945,112.020 108.161 C 111.846 94.285,110.902 91.835,104.982 89.899 C 102.626 89.128,88.532 89.116,84.562 89.881 M310.324 89.735 C 297.279 92.375,288.196 101.564,285.569 114.779 C 284.180 121.767,286.912 127.282,292.429 128.628 C 295.928 129.481,327.334 129.470,330.187 128.614 C 336.059 126.852,337.070 124.010,337.070 109.265 C 337.070 94.615,336.258 92.227,330.549 90.091 C 328.178 89.204,314.167 88.957,310.324 89.735 M0.000 307.689 L 0.000 393.314 78.545 393.314 C 124.948 393.314,156.937 393.169,156.716 392.961 C 156.510 392.766,155.634 392.516,154.769 392.404 C 152.147 392.065,149.318 391.363,148.905 390.950 C 148.691 390.736,148.097 390.560,147.586 390.560 C 146.585 390.560,143.007 389.554,141.893 388.959 C 141.518 388.758,140.898 388.593,140.517 388.591 C 140.135 388.590,139.316 388.325,138.696 388.002 C 138.077 387.678,137.247 387.414,136.851 387.414 C 136.456 387.414,136.036 387.257,135.918 387.066 C 135.800 386.875,135.214 386.624,134.616 386.509 C 133.026 386.203,127.692 384.274,127.257 383.847 C 127.051 383.646,126.652 383.481,126.370 383.481 C 126.087 383.481,124.939 383.038,123.818 382.498 C 122.697 381.957,121.649 381.514,121.489 381.514 C 120.900 381.514,107.868 375.348,107.375 374.835 C 107.266 374.723,106.382 374.239,105.408 373.760 C 103.156 372.650,99.733 370.718,97.845 369.489 C 97.039 368.964,96.299 368.535,96.201 368.535 C 96.104 368.535,94.989 367.871,93.725 367.060 C 92.460 366.249,91.131 365.408,90.772 365.192 C 89.340 364.330,83.302 360.139,82.865 359.704 C 82.609 359.449,81.868 358.901,81.219 358.486 C 80.039 357.733,75.305 354.147,74.499 353.397 C 74.265 353.178,73.294 352.380,72.342 351.622 C 71.390 350.865,69.813 349.525,68.836 348.643 C 67.859 347.762,66.352 346.440,65.487 345.706 C 63.278 343.833,51.196 331.660,49.677 329.778 C 48.985 328.921,47.835 327.579,47.120 326.796 C 46.406 326.012,45.556 325.038,45.231 324.631 C 40.195 318.313,39.303 317.128,34.520 310.405 C 33.705 309.260,33.038 308.169,33.038 307.980 C 33.038 307.791,32.891 307.578,32.711 307.506 C 32.337 307.356,28.815 302.041,28.063 300.492 C 27.905 300.167,27.204 299.002,26.504 297.903 C 24.397 294.591,18.136 282.490,16.346 278.269 C 15.980 277.404,15.490 276.254,15.257 275.713 C 14.718 274.455,13.980 272.690,13.366 271.190 C 13.101 270.541,12.640 269.540,12.341 268.966 C 12.043 268.392,11.799 267.637,11.799 267.289 C 11.799 266.941,11.644 266.349,11.454 265.973 C 10.563 264.211,9.833 262.249,9.833 261.619 C 9.833 261.237,9.692 260.756,9.520 260.551 C 9.348 260.345,8.888 259.115,8.498 257.817 C 8.107 256.519,7.632 255.155,7.441 254.786 C 7.250 254.417,6.979 253.395,6.839 252.516 C 6.698 251.636,6.429 250.822,6.241 250.706 C 6.053 250.589,5.900 249.896,5.900 249.164 C 5.900 248.433,5.728 247.728,5.518 247.598 C 5.308 247.468,5.019 246.480,4.876 245.403 C 4.733 244.325,4.462 243.349,4.275 243.232 C 4.087 243.116,3.930 242.457,3.927 241.766 C 3.924 241.076,3.666 239.803,3.355 238.938 C 3.043 238.073,2.780 236.787,2.770 236.081 C 2.761 235.375,2.586 234.490,2.382 234.115 C 1.946 233.314,1.155 228.544,0.900 225.172 C 0.162 215.452,0.000 230.276,0.000 307.689 M399.452 235.037 C 399.321 235.379,399.213 236.119,399.213 236.681 C 399.213 237.243,399.052 238.246,398.854 238.910 C 398.355 240.588,397.652 243.362,397.252 245.231 C 396.770 247.485,396.049 250.216,395.695 251.131 C 395.528 251.563,395.083 252.979,394.706 254.277 C 394.330 255.575,393.863 256.945,393.668 257.320 C 393.473 257.696,393.314 258.414,393.314 258.917 C 393.314 259.419,393.054 260.174,392.736 260.593 C 392.419 261.013,392.153 261.745,392.146 262.219 C 392.139 262.693,391.957 263.190,391.740 263.324 C 391.524 263.457,391.347 263.839,391.347 264.172 C 391.347 264.505,391.102 265.336,390.803 266.017 C 390.504 266.699,390.035 267.876,389.761 268.633 C 389.245 270.058,388.493 271.903,387.597 273.943 C 387.312 274.592,386.778 275.831,386.411 276.696 C 385.518 278.798,383.134 283.996,382.663 284.863 C 382.457 285.245,381.342 287.368,380.187 289.583 C 379.031 291.797,377.709 294.228,377.248 294.985 C 376.788 295.742,376.251 296.716,376.057 297.148 C 375.862 297.581,375.063 298.882,374.282 300.040 C 373.501 301.197,372.861 302.242,372.861 302.362 C 372.861 302.482,372.419 303.161,371.878 303.870 C 371.337 304.579,370.895 305.268,370.895 305.401 C 370.895 305.751,367.607 310.496,367.257 310.652 C 367.094 310.724,366.962 310.992,366.962 311.246 C 366.962 311.501,366.563 312.150,366.077 312.688 C 365.590 313.227,364.749 314.311,364.208 315.097 C 361.766 318.648,356.492 325.185,352.349 329.794 C 351.766 330.442,350.908 331.416,350.443 331.957 C 346.782 336.213,333.085 349.254,329.582 351.819 C 328.991 352.252,327.050 353.756,325.269 355.162 C 323.488 356.568,321.742 357.896,321.389 358.112 C 321.036 358.328,320.659 358.603,320.551 358.722 C 320.442 358.842,319.469 359.550,318.387 360.296 C 317.306 361.042,316.332 361.748,316.224 361.866 C 315.776 362.354,310.994 365.388,310.673 365.388 C 310.481 365.388,310.324 365.525,310.324 365.692 C 310.324 365.859,309.661 366.344,308.850 366.770 C 308.038 367.196,307.286 367.652,307.178 367.784 C 307.070 367.916,305.929 368.606,304.642 369.318 C 303.355 370.029,300.877 371.428,299.136 372.426 C 293.511 375.647,281.292 381.514,280.207 381.514 C 279.899 381.514,279.646 381.677,279.646 381.876 C 279.646 382.075,279.117 382.355,278.471 382.497 C 277.824 382.639,277.194 382.918,277.071 383.118 C 276.947 383.317,276.517 383.481,276.115 383.481 C 275.713 383.481,274.794 383.776,274.073 384.137 C 271.646 385.353,271.399 385.447,270.628 385.447 C 270.206 385.447,269.759 385.611,269.635 385.810 C 269.512 386.010,268.843 386.298,268.150 386.450 C 267.457 386.603,266.618 386.864,266.286 387.031 C 265.955 387.199,264.621 387.643,263.324 388.020 C 262.026 388.396,260.610 388.843,260.177 389.012 C 259.744 389.182,258.328 389.612,257.030 389.968 C 252.568 391.193,250.342 391.814,249.136 392.170 C 248.472 392.366,247.499 392.530,246.973 392.533 C 246.448 392.536,245.752 392.711,245.428 392.920 C 245.046 393.167,272.186 393.304,322.419 393.308 L 400.000 393.314 400.000 313.864 C 400.000 270.167,399.930 234.415,399.845 234.415 C 399.760 234.415,399.583 234.695,399.452 235.037 M115.241 246.608 C 110.446 247.634,109.282 248.072,104.031 250.825 C 101.535 252.134,95.439 258.830,93.906 261.947 C 90.520 268.833,90.070 271.818,90.069 287.406 C 90.069 302.186,90.224 302.886,94.002 305.165 L 95.379 305.995 198.280 305.997 C 310.565 305.998,302.663 306.163,304.854 303.769 C 306.783 301.660,306.824 301.251,306.658 286.118 C 306.494 271.226,306.345 269.651,304.697 265.383 C 300.752 255.169,292.357 248.482,280.881 246.414 C 275.357 245.418,119.952 245.601,115.241 246.608 " stroke="none" fill="#f1f6f6" fill-rule="evenodd"></path><path id="path1" d="M147.427 0.390 C 147.300 0.770,144.171 1.796,141.790 2.239 C 141.141 2.360,140.433 2.589,140.216 2.749 C 140.000 2.908,138.761 3.349,137.463 3.728 C 136.165 4.107,134.572 4.645,133.923 4.923 C 133.274 5.201,131.947 5.695,130.973 6.020 C 130.000 6.346,128.673 6.830,128.024 7.098 C 127.375 7.365,126.224 7.836,125.467 8.145 C 124.710 8.454,123.648 8.895,123.107 9.125 C 122.566 9.356,121.770 9.690,121.337 9.867 C 118.819 10.900,106.913 16.587,106.588 16.912 C 106.480 17.021,105.683 17.460,104.818 17.890 C 103.476 18.556,101.982 19.426,96.561 22.698 C 96.127 22.960,95.506 23.299,95.182 23.451 C 94.857 23.603,94.065 24.096,93.420 24.548 C 92.776 24.999,91.938 25.546,91.558 25.762 C 90.619 26.297,84.090 30.743,83.494 31.253 C 82.099 32.448,81.811 32.645,81.465 32.645 C 81.258 32.645,81.029 32.782,80.957 32.950 C 80.885 33.118,78.879 34.752,76.500 36.580 C 74.120 38.409,71.819 40.235,71.386 40.638 C 70.954 41.041,69.732 42.106,68.671 43.006 C 62.769 48.009,55.115 55.671,49.752 61.947 C 48.458 63.461,47.044 65.057,46.610 65.492 C 46.176 65.928,45.082 67.255,44.178 68.442 C 40.059 73.852,39.191 74.935,38.879 75.057 C 38.695 75.129,38.545 75.439,38.545 75.746 C 38.545 76.052,38.408 76.303,38.241 76.303 C 38.074 76.303,37.603 76.922,37.196 77.679 C 36.788 78.437,36.305 79.056,36.123 79.056 C 35.941 79.056,35.792 79.241,35.792 79.466 C 35.792 79.692,35.127 80.798,34.315 81.924 C 33.503 83.051,32.622 84.326,32.357 84.759 C 32.093 85.192,30.899 87.093,29.704 88.983 C 28.509 90.874,27.532 92.599,27.532 92.818 C 27.532 93.036,27.376 93.215,27.185 93.215 C 26.993 93.215,26.730 93.525,26.599 93.904 C 26.468 94.282,25.569 96.008,24.600 97.738 C 21.509 103.263,17.242 112.124,14.752 118.191 C 13.703 120.747,13.485 121.264,12.823 122.773 C 12.476 123.563,12.193 124.482,12.193 124.815 C 12.193 125.148,12.016 125.530,11.799 125.664 C 11.583 125.797,11.406 126.328,11.406 126.844 C 11.406 127.359,11.243 127.881,11.043 128.005 C 10.843 128.128,10.555 128.797,10.403 129.490 C 10.251 130.184,9.994 131.022,9.832 131.354 C 9.670 131.685,9.229 133.019,8.852 134.317 C 8.475 135.615,8.036 137.119,7.875 137.660 C 7.715 138.201,7.307 139.617,6.969 140.806 C 6.631 141.996,6.075 143.919,5.734 145.080 C 5.392 146.240,5.113 147.601,5.113 148.105 C 5.113 148.608,4.959 149.115,4.771 149.231 C 4.582 149.348,4.323 150.287,4.194 151.319 C 4.065 152.351,3.678 154.523,3.334 156.146 C 2.990 157.768,2.552 160.289,2.362 161.749 C 2.171 163.208,1.907 164.577,1.775 164.790 C 1.643 165.004,1.390 166.899,1.212 169.003 C 1.025 171.227,0.704 172.889,0.445 172.975 C -0.310 173.227,-0.173 216.294,0.588 217.752 C 0.911 218.372,1.182 219.764,1.191 220.846 C 1.200 221.927,1.461 223.963,1.770 225.369 C 2.079 226.775,2.338 228.648,2.346 229.531 C 2.354 230.415,2.492 231.270,2.654 231.432 C 2.816 231.594,3.167 232.906,3.433 234.349 C 3.700 235.791,4.083 237.856,4.285 238.938 C 4.487 240.020,4.944 241.967,5.301 243.265 C 5.658 244.562,6.106 246.332,6.296 247.198 C 6.609 248.618,7.399 251.360,7.940 252.901 C 8.054 253.225,8.459 254.553,8.839 255.851 C 9.220 257.148,9.661 258.564,9.820 258.997 C 9.979 259.430,10.320 260.403,10.580 261.160 C 12.290 266.157,12.721 267.298,13.028 267.630 C 13.217 267.836,13.373 268.308,13.373 268.680 C 13.373 269.052,13.622 269.857,13.926 270.470 C 14.231 271.082,14.695 272.114,14.957 272.763 C 15.220 273.412,15.679 274.413,15.977 274.987 C 16.275 275.561,16.519 276.313,16.519 276.659 C 16.519 277.004,16.696 277.286,16.912 277.286 C 17.129 277.286,17.306 277.515,17.306 277.795 C 17.306 278.075,18.030 279.801,18.915 281.630 C 19.800 283.459,20.818 285.575,21.177 286.332 C 21.535 287.089,21.918 287.797,22.028 287.906 C 22.137 288.014,22.812 289.253,23.528 290.659 C 24.244 292.065,25.194 293.835,25.640 294.592 C 26.086 295.349,26.738 296.500,27.090 297.150 C 27.441 297.800,28.127 298.889,28.614 299.571 C 29.100 300.252,29.499 300.927,29.499 301.070 C 29.499 301.214,29.941 301.911,30.482 302.620 C 31.023 303.329,31.465 304.007,31.465 304.127 C 31.465 304.247,32.129 305.314,32.940 306.498 C 33.751 307.682,35.428 310.133,36.667 311.946 C 38.634 314.823,39.384 315.818,41.290 318.076 C 41.511 318.337,41.691 318.721,41.691 318.928 C 41.691 319.135,41.836 319.364,42.012 319.436 C 42.188 319.508,43.191 320.629,44.241 321.927 C 50.700 329.916,60.362 340.096,66.639 345.528 C 68.138 346.825,69.908 348.381,70.572 348.986 C 71.236 349.591,72.974 350.997,74.435 352.111 C 75.895 353.225,77.089 354.279,77.089 354.453 C 77.089 354.627,77.340 354.769,77.647 354.769 C 77.953 354.769,78.263 354.904,78.335 355.068 C 78.463 355.360,82.389 358.328,86.332 361.113 C 87.414 361.877,89.980 363.550,92.035 364.830 C 94.090 366.111,95.831 367.291,95.903 367.453 C 95.975 367.616,96.193 367.748,96.388 367.748 C 96.677 367.748,99.529 369.356,102.655 371.280 C 104.762 372.578,111.595 376.008,112.072 376.008 C 112.301 376.008,112.488 376.185,112.488 376.401 C 112.488 376.618,112.672 376.794,112.897 376.794 C 113.123 376.794,114.751 377.502,116.517 378.368 C 118.282 379.233,119.863 379.941,120.029 379.941 C 120.196 379.941,121.267 380.360,122.408 380.872 C 123.550 381.383,125.280 382.115,126.254 382.498 C 127.227 382.881,128.555 383.416,129.204 383.686 C 129.853 383.956,131.799 384.655,133.530 385.238 C 135.261 385.822,137.030 386.441,137.463 386.614 C 137.896 386.787,139.312 387.240,140.610 387.620 C 141.908 388.000,143.324 388.450,143.756 388.619 C 144.189 388.789,144.985 389.019,145.526 389.131 C 146.765 389.387,149.860 390.206,150.639 390.485 C 151.733 390.877,155.542 391.771,157.433 392.081 C 158.466 392.250,159.519 392.597,159.773 392.851 C 160.434 393.512,242.147 393.521,242.367 392.860 C 242.450 392.610,243.394 392.264,244.465 392.090 C 247.456 391.604,250.849 390.777,251.170 390.456 C 251.329 390.297,251.840 390.167,252.306 390.167 C 252.772 390.167,253.938 389.922,254.896 389.623 C 255.853 389.324,257.434 388.865,258.407 388.602 C 259.381 388.340,260.758 387.877,261.469 387.573 C 262.179 387.269,263.088 387.021,263.489 387.021 C 263.889 387.021,264.724 386.756,265.343 386.433 C 265.963 386.110,266.769 385.844,267.135 385.843 C 267.501 385.842,267.883 385.706,267.985 385.541 C 268.087 385.377,269.336 384.890,270.762 384.460 C 272.187 384.030,273.353 383.545,273.353 383.382 C 273.353 383.220,273.693 383.088,274.108 383.088 C 274.523 383.088,275.364 382.838,275.976 382.534 C 276.588 382.229,277.620 381.768,278.269 381.509 C 282.535 379.806,287.042 377.663,297.148 372.530 C 298.230 371.981,299.174 371.388,299.246 371.213 C 299.318 371.038,299.716 370.895,300.131 370.895 C 300.546 370.895,300.885 370.721,300.885 370.509 C 300.885 370.297,301.327 370.012,301.868 369.876 C 302.409 369.741,302.852 369.512,302.852 369.368 C 302.852 369.225,303.515 368.765,304.326 368.346 C 305.138 367.927,306.332 367.223,306.980 366.781 C 307.628 366.340,308.752 365.658,309.479 365.267 C 310.205 364.876,311.002 364.385,311.250 364.176 C 312.338 363.260,316.291 360.669,316.602 360.669 C 316.791 360.669,317.004 360.524,317.076 360.347 C 317.148 360.170,318.889 358.803,320.944 357.310 C 330.873 350.097,343.596 338.531,350.996 329.990 C 352.589 328.151,354.311 326.183,354.822 325.616 C 355.850 324.477,356.294 323.931,358.299 321.336 C 359.050 320.363,359.759 319.479,359.873 319.371 C 360.516 318.762,368.285 307.995,368.861 306.914 C 369.112 306.444,369.539 305.824,369.812 305.537 C 370.084 305.250,370.656 304.351,371.084 303.540 C 371.511 302.729,371.976 302.065,372.118 302.065 C 372.260 302.065,372.487 301.755,372.622 301.377 C 372.757 300.998,373.391 299.803,374.031 298.722 C 374.671 297.640,375.372 296.401,375.590 295.969 C 375.808 295.536,376.697 293.943,377.566 292.429 C 380.090 288.033,386.627 274.568,386.627 273.767 C 386.627 273.575,386.876 272.916,387.181 272.303 C 387.485 271.691,387.944 270.659,388.201 270.010 C 388.457 269.361,388.916 268.329,389.220 267.716 C 389.525 267.104,389.774 266.274,389.774 265.871 C 389.774 265.469,389.951 265.030,390.167 264.897 C 390.383 264.763,390.560 264.381,390.560 264.048 C 390.560 263.715,390.803 262.885,391.099 262.203 C 391.395 261.521,391.962 259.902,392.359 258.604 C 392.757 257.306,393.223 256.076,393.394 255.870 C 393.566 255.665,393.707 255.157,393.707 254.743 C 393.707 253.958,394.750 250.452,395.336 249.268 C 395.522 248.892,395.674 248.162,395.674 247.644 C 395.674 247.127,395.939 246.068,396.264 245.292 C 396.588 244.515,396.853 243.429,396.853 242.878 C 396.853 242.328,397.011 241.570,397.203 241.194 C 397.616 240.386,398.403 236.660,398.796 233.651 C 398.949 232.474,399.283 231.442,399.537 231.357 C 400.213 231.132,400.205 159.654,399.529 158.979 C 399.270 158.720,398.937 157.578,398.787 156.442 C 398.638 155.305,398.216 153.137,397.850 151.622 C 397.483 150.108,397.032 148.161,396.847 147.296 C 396.298 144.721,395.604 142.229,395.234 141.500 C 395.043 141.124,394.887 140.464,394.887 140.033 C 394.887 139.602,394.643 138.582,394.345 137.766 C 394.047 136.950,393.479 135.221,393.084 133.923 C 392.689 132.625,392.225 131.395,392.053 131.190 C 391.881 130.984,391.740 130.546,391.740 130.215 C 391.740 129.513,389.955 124.531,387.924 119.567 C 387.614 118.810,387.219 117.837,387.045 117.404 C 386.871 116.971,386.281 115.644,385.734 114.454 C 385.187 113.265,384.268 111.229,383.691 109.931 C 382.784 107.889,381.697 105.672,379.881 102.160 C 379.630 101.675,379.304 101.013,379.155 100.688 C 378.698 99.687,376.327 95.457,375.356 93.911 C 374.849 93.105,374.435 92.325,374.435 92.179 C 374.435 92.033,373.992 91.333,373.451 90.624 C 372.911 89.915,372.468 89.207,372.468 89.051 C 372.468 88.894,372.026 88.186,371.485 87.477 C 370.944 86.768,370.501 86.076,370.501 85.939 C 370.501 85.802,370.059 85.110,369.518 84.401 C 368.977 83.692,368.535 82.983,368.535 82.826 C 368.535 82.668,368.314 82.309,368.043 82.026 C 367.773 81.743,367.331 81.181,367.061 80.776 C 365.145 77.899,359.839 70.768,358.145 68.793 C 357.478 68.016,356.592 66.954,356.177 66.433 C 355.762 65.913,354.506 64.425,353.386 63.127 C 352.267 61.829,350.925 60.246,350.405 59.610 C 349.194 58.127,337.985 46.912,336.457 45.655 C 335.129 44.561,330.285 40.413,329.990 40.117 C 328.433 38.553,313.739 27.532,313.211 27.532 C 313.063 27.532,312.663 27.279,312.321 26.969 C 311.979 26.660,311.257 26.167,310.717 25.875 C 310.177 25.582,308.496 24.537,306.981 23.553 C 305.467 22.570,303.255 21.223,302.065 20.562 C 300.875 19.900,298.928 18.812,297.738 18.145 C 295.131 16.682,286.120 12.218,283.382 11.034 C 282.301 10.566,280.973 9.991,280.433 9.756 C 278.211 8.791,277.029 8.311,273.353 6.877 C 272.380 6.497,271.025 5.945,270.344 5.650 C 269.662 5.355,268.907 5.113,268.667 5.113 C 268.426 5.113,267.922 4.957,267.546 4.767 C 267.171 4.577,265.890 4.120,264.700 3.751 C 263.510 3.382,262.183 2.931,261.750 2.749 C 261.318 2.568,260.521 2.326,259.980 2.212 C 257.391 1.668,255.089 0.862,254.953 0.453 C 254.754 -0.143,147.627 -0.206,147.427 0.390 M106.588 89.442 C 112.059 92.278,112.488 93.728,112.488 109.379 C 112.488 124.756,112.043 126.224,106.540 129.032 C 104.164 130.244,67.644 130.208,65.258 128.991 C 59.931 126.273,57.866 119.502,60.005 111.762 C 63.504 99.095,73.483 90.294,85.939 88.891 C 91.387 88.277,105.044 88.641,106.588 89.442 M331.916 89.482 C 337.269 92.295,337.660 93.659,337.660 109.538 C 337.660 124.387,337.775 123.670,334.891 126.714 C 331.907 129.863,332.447 129.794,311.111 129.794 C 288.590 129.794,288.168 129.694,285.327 123.707 C 284.519 122.003,284.376 113.107,285.145 112.338 C 285.365 112.117,285.546 111.536,285.546 111.046 C 285.546 110.556,285.801 109.573,286.112 108.863 C 286.424 108.153,286.989 106.819,287.368 105.900 C 287.747 104.980,288.200 104.228,288.375 104.228 C 288.549 104.228,288.692 104.029,288.692 103.785 C 288.692 103.175,292.307 98.348,293.675 97.131 C 297.770 93.487,302.939 90.554,306.981 89.580 C 312.196 88.324,329.581 88.255,331.916 89.482 M284.143 246.055 C 289.623 247.495,293.878 249.846,298.310 253.884 C 299.571 255.033,302.851 259.160,303.273 260.130 C 303.473 260.588,303.799 261.229,303.999 261.554 C 304.744 262.767,306.037 265.981,306.266 267.187 C 306.396 267.874,306.698 268.685,306.938 268.988 C 307.242 269.373,307.375 274.513,307.375 285.901 L 307.375 302.262 306.227 303.762 C 303.656 307.123,315.507 306.802,198.113 306.689 L 94.137 306.588 92.660 305.461 C 89.574 303.107,89.679 303.783,89.677 286.210 C 89.675 269.296,89.642 269.627,91.953 263.913 C 94.048 258.736,98.512 253.315,103.048 250.442 C 105.675 248.779,110.227 246.619,111.193 246.578 C 111.581 246.561,112.517 246.309,113.274 246.018 C 115.541 245.145,280.817 245.181,284.143 246.055 " stroke="none" fill="#dc543c" fill-rule="evenodd"></path><path id="path2" d="M146.313 0.393 C 146.313 0.610,146.018 0.787,145.657 0.787 C 145.297 0.787,145.111 0.896,145.246 1.031 C 145.600 1.385,147.493 0.841,147.493 0.386 C 147.493 0.174,147.227 0.000,146.903 0.000 C 146.578 0.000,146.313 0.177,146.313 0.393 M254.964 0.492 C 255.053 0.762,255.554 1.016,256.078 1.056 C 256.651 1.100,256.757 1.049,256.342 0.929 C 255.964 0.819,255.654 0.565,255.654 0.364 C 255.654 0.164,255.462 0.000,255.228 0.000 C 254.993 0.000,254.875 0.221,254.964 0.492 M142.183 1.781 C 141.180 2.111,140.914 2.310,141.449 2.330 C 141.911 2.346,142.885 2.101,143.613 1.785 C 145.241 1.078,144.323 1.075,142.183 1.781 M258.354 1.785 C 259.082 2.101,260.055 2.348,260.517 2.334 C 260.989 2.319,260.582 2.063,259.587 1.750 C 257.306 1.031,256.659 1.049,258.354 1.785 M137.266 3.371 C 135.860 3.875,134.942 4.296,135.226 4.307 C 135.947 4.334,139.744 3.104,140.197 2.696 C 140.749 2.199,140.152 2.336,137.266 3.371 M264.647 3.752 C 265.375 4.068,266.260 4.313,266.613 4.297 C 266.967 4.280,266.637 4.028,265.880 3.736 C 264.017 3.019,262.989 3.032,264.647 3.752 M130.580 5.703 C 129.289 6.441,130.125 6.451,131.813 5.718 C 132.727 5.322,132.893 5.143,132.350 5.142 C 131.917 5.142,131.121 5.394,130.580 5.703 M270.350 5.705 C 270.969 6.029,271.677 6.287,271.923 6.279 C 272.566 6.259,270.519 5.143,269.813 5.129 C 269.489 5.123,269.730 5.382,270.350 5.705 M128.024 6.682 C 127.591 6.866,125.821 7.580,124.090 8.269 C 122.360 8.957,120.776 9.679,120.570 9.873 C 120.092 10.325,120.558 10.328,121.441 9.879 C 122.161 9.512,123.199 9.066,125.467 8.149 C 127.922 7.157,129.606 6.343,129.204 6.345 C 128.987 6.346,128.456 6.497,128.024 6.682 M273.746 6.962 C 274.503 7.302,275.521 7.763,276.007 7.986 C 276.494 8.209,276.986 8.297,277.101 8.182 C 277.217 8.067,276.730 7.757,276.020 7.493 C 275.310 7.230,274.422 6.852,274.047 6.654 C 273.671 6.455,273.140 6.304,272.867 6.318 C 272.593 6.332,272.989 6.622,273.746 6.962 M278.293 8.837 C 278.712 9.155,279.280 9.420,279.553 9.427 C 279.826 9.434,280.357 9.610,280.733 9.819 C 281.109 10.028,282.301 10.580,283.382 11.046 C 284.464 11.511,286.044 12.224,286.892 12.630 C 287.741 13.035,288.500 13.303,288.578 13.225 C 288.724 13.079,288.076 12.752,283.500 10.667 C 278.201 8.253,276.928 7.805,278.293 8.837 M117.642 11.049 C 116.691 11.471,115.997 11.900,116.099 12.002 C 116.201 12.104,117.156 11.756,118.221 11.228 C 120.525 10.085,120.106 9.956,117.642 11.049 M110.833 14.284 C 108.733 15.388,107.075 16.350,107.148 16.423 C 107.221 16.496,108.701 15.840,110.437 14.964 C 112.174 14.089,113.744 13.367,113.926 13.360 C 114.108 13.353,114.601 13.088,115.021 12.770 C 116.586 11.587,114.602 12.304,110.833 14.284 M289.086 13.553 C 289.086 13.798,294.696 16.547,294.861 16.382 C 294.982 16.260,289.591 13.373,289.242 13.373 C 289.156 13.373,289.086 13.454,289.086 13.553 M295.575 16.821 C 295.792 17.035,297.030 17.786,298.328 18.490 C 299.626 19.194,300.914 19.949,301.189 20.167 C 301.465 20.386,301.783 20.472,301.896 20.359 C 302.008 20.247,301.340 19.713,300.411 19.173 C 297.972 17.756,295.116 16.368,295.575 16.821 M99.003 20.735 C 97.752 21.502,96.802 22.203,96.892 22.294 C 96.982 22.384,98.183 21.742,99.560 20.869 C 100.938 19.995,101.888 19.293,101.672 19.310 C 101.455 19.326,100.255 19.967,99.003 20.735 M306.638 23.304 C 310.908 26.062,311.630 26.479,311.351 26.029 C 311.077 25.585,304.163 21.239,303.732 21.239 C 303.573 21.239,304.881 22.168,306.638 23.304 M94.887 23.201 C 94.184 23.630,93.609 24.058,93.609 24.153 C 93.609 24.427,95.929 23.195,96.181 22.787 C 96.503 22.266,96.332 22.320,94.887 23.201 M92.035 24.975 C 91.762 25.305,91.720 25.565,91.939 25.565 C 92.155 25.565,92.553 25.300,92.822 24.975 C 93.095 24.646,93.138 24.385,92.918 24.385 C 92.702 24.385,92.305 24.651,92.035 24.975 M89.466 26.678 C 82.679 31.176,72.699 38.841,68.798 42.553 C 67.590 43.701,66.965 44.376,67.409 44.051 C 68.315 43.388,68.499 43.231,70.643 41.289 C 71.485 40.527,74.120 38.408,76.500 36.580 C 78.879 34.752,80.885 33.118,80.957 32.950 C 81.029 32.782,81.263 32.645,81.477 32.645 C 81.691 32.645,82.112 32.424,82.414 32.153 C 83.442 31.231,83.974 30.847,87.437 28.525 C 89.342 27.248,90.990 26.059,91.098 25.884 C 91.376 25.434,91.248 25.497,89.466 26.678 M312.291 26.942 C 312.560 27.266,312.958 27.532,313.174 27.532 C 313.393 27.532,313.351 27.271,313.078 26.942 C 312.808 26.618,312.411 26.352,312.195 26.352 C 311.975 26.352,312.018 26.613,312.291 26.942 M313.864 27.654 C 313.864 27.774,315.413 28.980,317.306 30.335 C 319.199 31.690,321.455 33.348,322.321 34.020 C 324.723 35.883,329.769 39.895,329.990 40.117 C 330.098 40.226,331.426 41.374,332.940 42.669 C 334.454 43.964,335.782 45.114,335.890 45.225 C 335.998 45.337,336.529 45.764,337.070 46.176 C 339.369 47.925,332.305 41.438,329.189 38.938 C 328.245 38.181,326.933 37.107,326.273 36.551 C 325.613 35.995,322.773 33.890,319.961 31.873 C 317.148 29.856,314.626 28.032,314.356 27.821 C 314.086 27.609,313.864 27.534,313.864 27.654 M61.649 48.878 C 59.754 50.658,58.206 52.260,58.207 52.439 C 58.209 52.618,58.716 52.264,59.334 51.653 C 59.952 51.041,61.446 49.611,62.655 48.475 C 64.648 46.601,65.542 45.609,65.215 45.634 C 65.148 45.639,63.543 47.099,61.649 48.878 M339.036 47.671 C 339.036 47.816,341.249 50.152,343.953 52.862 C 346.657 55.572,348.869 57.660,348.869 57.502 C 348.869 57.344,346.657 55.008,343.953 52.311 C 341.249 49.613,339.036 47.525,339.036 47.671 M55.887 54.597 C 49.539 61.414,45.476 66.077,45.882 66.077 C 46.077 66.077,46.568 65.678,46.973 65.192 C 50.403 61.073,54.751 56.213,56.798 54.210 C 57.427 53.594,57.865 53.014,57.773 52.922 C 57.680 52.829,56.831 53.583,55.887 54.597 M350.049 59.164 C 350.374 59.613,350.728 60.069,350.836 60.177 C 351.201 60.542,355.416 65.479,356.177 66.433 C 356.592 66.954,357.478 68.016,358.145 68.793 C 360.233 71.227,366.416 79.609,366.695 80.384 C 366.782 80.627,366.954 80.735,367.077 80.624 C 367.415 80.318,360.950 71.502,356.671 66.435 C 352.912 61.984,348.916 57.596,350.049 59.164 M43.247 69.125 C 42.080 70.585,40.523 72.532,39.787 73.451 C 39.052 74.371,38.604 75.119,38.792 75.115 C 38.981 75.110,40.020 73.937,41.101 72.507 C 42.183 71.077,43.660 69.133,44.384 68.188 C 46.464 65.472,45.592 66.190,43.247 69.125 M35.969 78.761 C 32.290 83.956,31.470 85.561,34.542 81.556 C 35.229 80.660,35.792 79.730,35.792 79.491 C 35.792 79.252,35.930 79.056,36.100 79.056 C 36.270 79.056,36.722 78.525,37.106 77.876 C 38.212 76.002,37.567 76.505,35.969 78.761 M368.535 82.854 C 368.535 82.996,368.977 83.692,369.518 84.401 C 370.059 85.110,370.508 85.834,370.516 86.011 C 370.523 86.188,370.991 86.863,371.555 87.512 C 372.720 88.853,372.437 88.293,370.116 84.661 C 368.836 82.659,368.535 82.315,368.535 82.854 M31.964 84.651 C 31.461 85.282,27.514 91.714,26.357 93.787 C 25.752 94.870,25.680 95.183,26.117 94.820 C 26.463 94.534,26.745 94.055,26.745 93.757 C 26.745 93.459,26.879 93.215,27.043 93.215 C 27.206 93.215,27.562 92.713,27.834 92.099 C 28.106 91.484,29.299 89.507,30.485 87.704 C 32.339 84.886,33.210 83.088,31.964 84.651 M92.154 88.789 C 94.275 88.860,97.637 88.860,99.627 88.788 C 101.617 88.717,99.882 88.659,95.772 88.660 C 91.662 88.660,90.034 88.718,92.154 88.789 M317.306 88.789 C 319.307 88.860,322.581 88.860,324.582 88.789 C 326.583 88.717,324.946 88.659,320.944 88.659 C 316.942 88.659,315.305 88.717,317.306 88.789 M82.989 89.282 C 82.263 89.752,83.308 89.752,85.152 89.282 L 86.332 88.982 84.956 88.941 C 84.199 88.919,83.314 89.073,82.989 89.282 M105.505 89.486 C 107.756 90.312,109.682 91.972,110.944 94.172 L 112.087 96.165 112.091 109.059 C 112.095 124.660,111.530 126.473,105.935 128.811 C 103.518 129.821,67.944 129.675,65.618 128.646 C 62.616 127.317,60.377 124.600,59.759 121.534 C 59.527 120.387,59.473 120.329,59.436 121.191 C 59.326 123.703,62.052 127.355,65.258 128.991 C 67.644 130.208,104.164 130.244,106.540 129.032 C 108.468 128.048,110.615 125.889,111.661 123.882 C 112.890 121.525,112.942 97.485,111.724 94.740 C 110.505 91.992,106.723 88.839,104.739 88.917 C 104.350 88.932,104.695 89.188,105.505 89.486 M308.358 89.294 C 307.946 89.568,308.301 89.609,309.538 89.430 C 311.741 89.110,312.055 88.887,310.292 88.895 C 309.553 88.898,308.682 89.078,308.358 89.294 M330.775 89.545 C 332.908 90.291,334.157 91.215,335.595 93.110 C 336.190 93.894,336.676 94.343,336.676 94.108 C 336.676 92.721,331.604 88.867,329.831 88.908 C 329.361 88.918,329.767 89.192,330.775 89.545 M372.482 89.161 C 372.490 89.336,372.947 90.010,373.498 90.659 L 374.499 91.839 373.880 90.585 C 373.275 89.362,372.454 88.525,372.482 89.161 M76.827 91.447 C 73.486 93.060,70.039 95.486,67.641 97.914 C 65.482 100.099,61.341 106.657,61.369 107.845 C 61.376 108.127,62.090 107.015,62.955 105.373 C 66.650 98.365,72.541 93.216,79.839 90.617 C 81.385 90.066,82.010 89.705,81.416 89.706 C 80.875 89.706,78.810 90.490,76.827 91.447 M304.425 90.351 C 300.032 92.344,300.086 92.313,296.952 94.578 C 293.379 97.159,288.117 102.998,288.774 103.654 C 288.873 103.753,289.509 102.976,290.188 101.928 C 293.136 97.380,299.315 92.714,305.134 90.642 C 306.656 90.101,307.353 89.709,306.785 89.715 C 306.244 89.721,305.182 90.007,304.425 90.351 M374.435 92.116 C 374.435 92.487,377.244 97.148,377.468 97.148 C 377.571 97.148,377.169 96.308,376.574 95.280 C 375.228 92.956,374.435 91.782,374.435 92.116 M336.704 95.060 C 336.793 96.081,337.408 96.947,337.435 96.090 C 337.451 95.616,337.286 95.119,337.070 94.985 C 336.853 94.852,336.689 94.885,336.704 95.060 M23.861 98.197 C 23.062 99.634,22.479 100.879,22.564 100.965 C 22.649 101.050,23.368 99.939,24.161 98.497 C 24.954 97.055,25.537 95.809,25.458 95.730 C 25.378 95.650,24.660 96.761,23.861 98.197 M337.638 109.341 C 337.638 116.155,337.692 118.943,337.757 115.536 C 337.823 112.129,337.823 106.554,337.757 103.147 C 337.692 99.739,337.638 102.527,337.638 109.341 M377.587 97.618 C 377.579 97.974,379.182 100.688,379.400 100.688 C 379.492 100.688,379.304 100.202,378.982 99.607 C 378.181 98.126,377.594 97.291,377.587 97.618 M379.548 101.365 C 379.548 101.841,381.085 104.621,381.348 104.621 C 381.554 104.621,380.679 102.629,380.057 101.682 C 379.777 101.256,379.548 101.113,379.548 101.365 M21.239 103.048 C 20.776 103.955,20.486 104.786,20.594 104.894 C 20.702 105.002,21.156 104.335,21.602 103.411 C 22.660 101.222,22.336 100.898,21.239 103.048 M287.368 105.900 C 286.989 106.819,286.424 108.153,286.112 108.863 C 285.801 109.573,285.552 110.547,285.560 111.026 C 285.569 111.506,285.988 110.740,286.492 109.324 C 286.996 107.908,287.702 106.183,288.060 105.489 C 288.419 104.796,288.565 104.228,288.385 104.228 C 288.204 104.228,287.747 104.980,287.368 105.900 M381.514 105.258 C 381.514 105.474,381.774 105.995,382.092 106.415 C 382.409 106.834,382.669 107.001,382.669 106.785 C 382.669 106.568,382.409 106.048,382.092 105.628 C 381.774 105.208,381.514 105.041,381.514 105.258 M19.698 106.135 C 19.055 107.336,19.188 107.670,19.902 106.650 C 20.249 106.155,20.440 105.658,20.328 105.546 C 20.215 105.433,19.931 105.698,19.698 106.135 M382.713 107.440 C 382.674 107.991,384.298 111.409,384.501 111.205 C 384.619 111.088,384.269 110.133,383.723 109.085 C 383.177 108.036,382.723 107.296,382.713 107.440 M60.803 108.990 C 59.903 111.746,59.399 114.301,59.442 115.891 C 59.492 117.738,59.503 117.718,59.808 115.241 C 59.981 113.835,60.394 111.808,60.726 110.736 C 61.057 109.665,61.250 108.710,61.155 108.615 C 61.060 108.520,60.902 108.689,60.803 108.990 M17.582 110.606 C 16.333 113.237,15.324 115.750,15.460 115.886 C 15.537 115.963,15.784 115.628,16.009 115.142 C 16.234 114.656,16.907 113.234,17.505 111.984 C 18.103 110.733,18.503 109.620,18.394 109.511 C 18.285 109.402,17.919 109.895,17.582 110.606 M384.661 111.970 C 384.661 112.478,386.324 115.675,386.498 115.501 C 386.594 115.406,386.288 114.511,385.820 113.514 C 385.022 111.817,384.661 111.336,384.661 111.970 M285.021 112.357 C 284.877 112.501,284.778 113.342,284.802 114.225 L 284.845 115.831 285.188 114.086 C 285.535 112.314,285.494 111.884,285.021 112.357 M386.641 116.328 C 386.634 116.601,386.804 117.132,387.020 117.508 C 387.237 117.883,387.596 118.702,387.818 119.327 C 388.041 119.952,388.314 120.371,388.426 120.259 C 388.538 120.147,388.186 119.105,387.642 117.943 C 387.099 116.781,386.649 116.055,386.641 116.328 M14.212 118.440 C 13.746 119.561,13.450 120.563,13.554 120.667 C 13.659 120.771,13.930 120.345,14.156 119.720 C 14.383 119.095,14.772 118.186,15.020 117.700 C 15.268 117.213,15.379 116.722,15.265 116.609 C 15.151 116.495,14.677 117.319,14.212 118.440 M388.623 121.141 C 388.622 121.707,389.731 123.959,389.760 123.447 C 389.768 123.310,389.515 122.602,389.199 121.874 C 388.883 121.146,388.624 120.816,388.623 121.141 M12.684 122.215 C 11.985 123.708,12.078 124.319,12.796 122.943 C 13.125 122.312,13.345 121.654,13.285 121.481 C 13.225 121.308,12.955 121.638,12.684 122.215 M284.787 122.199 C 284.772 122.673,284.936 123.170,285.152 123.304 C 285.618 123.591,285.618 123.206,285.152 122.124 C 284.827 121.365,284.813 121.368,284.787 122.199 M336.758 123.072 C 336.009 125.173,334.446 126.950,332.227 128.223 L 330.187 129.393 311.393 129.397 C 289.558 129.401,289.871 129.454,286.627 125.179 C 286.032 124.395,285.546 123.944,285.546 124.177 C 285.546 125.031,288.870 128.281,290.505 129.026 C 293.126 130.220,329.116 130.212,331.740 129.016 C 334.444 127.784,337.694 123.929,337.364 122.346 C 337.290 121.987,337.037 122.290,336.758 123.072 M389.801 124.050 C 389.760 124.586,391.437 129.048,391.614 128.871 C 391.699 128.786,391.332 127.587,390.798 126.207 C 390.265 124.827,389.816 123.856,389.801 124.050 M10.718 127.502 C 10.046 129.367,10.104 129.841,10.833 128.442 C 11.165 127.807,11.385 127.029,11.322 126.713 C 11.260 126.397,10.988 126.752,10.718 127.502 M391.740 130.043 C 391.740 130.468,391.888 130.984,392.067 131.190 C 392.247 131.395,392.614 132.333,392.881 133.273 C 393.149 134.214,393.461 134.891,393.574 134.778 C 393.756 134.596,392.257 129.849,391.887 129.433 C 391.806 129.343,391.740 129.617,391.740 130.043 M8.733 133.378 C 8.454 134.272,8.304 135.082,8.400 135.178 C 8.641 135.419,9.534 132.633,9.372 132.146 C 9.299 131.929,9.012 132.484,8.733 133.378 M393.724 135.746 C 393.715 136.100,393.966 136.985,394.282 137.713 C 395.024 139.424,395.043 138.715,394.308 136.676 C 393.997 135.811,393.734 135.393,393.724 135.746 M7.456 137.720 C 7.200 138.660,6.810 139.922,6.589 140.524 C 6.368 141.126,6.287 141.718,6.409 141.840 C 6.532 141.963,6.841 141.293,7.097 140.353 C 7.352 139.413,7.742 138.151,7.963 137.549 C 8.185 136.947,8.265 136.355,8.143 136.232 C 8.021 136.110,7.712 136.779,7.456 137.720 M394.893 140.291 C 394.890 140.765,395.064 141.263,395.280 141.396 C 395.781 141.706,395.781 140.795,395.280 140.020 C 394.970 139.540,394.898 139.591,394.893 140.291 M395.718 142.773 C 395.713 143.314,395.952 144.287,396.249 144.936 C 396.963 146.495,396.981 145.773,396.284 143.559 C 395.891 142.314,395.724 142.081,395.718 142.773 M5.586 144.236 C 4.912 146.485,5.035 147.231,5.746 145.204 C 6.073 144.270,6.277 143.315,6.200 143.082 C 6.122 142.849,5.846 143.369,5.586 144.236 M396.878 147.572 C 396.865 147.941,397.014 148.649,397.210 149.146 C 397.406 149.643,397.776 151.081,398.032 152.341 C 398.288 153.602,398.567 154.563,398.652 154.478 C 398.738 154.392,398.547 153.072,398.228 151.544 C 397.580 148.435,396.919 146.489,396.878 147.572 M4.765 147.755 C 4.740 148.008,4.605 148.539,4.465 148.935 C 4.268 149.494,4.320 149.555,4.699 149.206 C 4.967 148.959,5.102 148.428,4.999 148.026 C 4.896 147.625,4.790 147.503,4.765 147.755 M3.571 152.903 C 3.268 154.472,3.137 155.873,3.280 156.016 C 3.423 156.160,3.540 155.831,3.540 155.286 C 3.540 154.742,3.730 153.749,3.964 153.081 C 4.197 152.412,4.328 151.457,4.255 150.957 C 4.182 150.458,3.875 151.333,3.571 152.903 M398.883 156.562 C 398.848 157.332,399.080 158.305,399.398 158.725 C 399.961 159.470,399.975 159.467,399.987 158.604 C 399.994 158.117,399.834 157.719,399.632 157.719 C 399.429 157.719,399.192 157.144,399.105 156.441 L 398.946 155.162 398.883 156.562 M2.578 157.649 C 2.417 158.367,2.382 159.052,2.500 159.170 C 2.796 159.466,3.265 157.479,3.047 156.851 C 2.950 156.571,2.739 156.930,2.578 157.649 M1.883 161.652 C 1.729 162.842,1.508 164.523,1.391 165.388 C 1.253 166.409,1.391 166.133,1.785 164.602 C 2.118 163.304,2.340 161.622,2.277 160.865 C 2.181 159.704,2.119 159.827,1.883 161.652 M0.846 169.397 C 0.813 170.087,0.610 170.761,0.393 170.895 C -0.108 171.205,-0.124 173.058,0.375 173.058 C 0.864 173.058,1.292 170.749,1.074 169.285 L 0.904 168.142 0.846 169.397 M0.000 218.210 C 0.000 218.903,0.166 219.469,0.370 219.469 C 0.573 219.469,0.815 220.044,0.908 220.747 C 1.000 221.450,1.040 221.090,0.996 219.947 C 0.907 217.617,0.000 216.036,0.000 218.210 M1.251 224.189 C 1.246 224.730,1.477 226.411,1.763 227.925 C 2.119 229.807,2.291 230.243,2.305 229.302 C 2.316 228.545,2.086 226.863,1.793 225.565 C 1.500 224.267,1.256 223.648,1.251 224.189 M2.399 231.737 C 2.517 233.280,3.068 234.234,3.107 232.963 C 3.129 232.273,2.970 231.599,2.753 231.465 C 2.537 231.331,2.378 231.454,2.399 231.737 M398.992 232.212 C 398.861 232.731,398.834 233.571,398.931 234.080 C 399.094 234.940,399.110 234.930,399.160 233.947 C 399.189 233.364,399.390 232.779,399.607 232.645 C 400.113 232.332,400.119 231.268,399.614 231.268 C 399.402 231.268,399.122 231.693,398.992 232.212 M3.190 235.202 C 3.185 235.742,3.427 237.070,3.727 238.151 C 4.058 239.344,4.277 239.731,4.283 239.135 C 4.288 238.594,4.046 237.266,3.746 236.185 C 3.414 234.992,3.196 234.605,3.190 235.202 M398.040 237.606 C 397.765 238.821,397.636 240.060,397.755 240.359 C 397.874 240.659,397.985 240.444,398.002 239.882 C 398.019 239.319,398.226 238.305,398.462 237.629 C 398.698 236.952,398.813 236.173,398.717 235.898 C 398.621 235.623,398.316 236.392,398.040 237.606 M4.338 241.101 C 4.338 241.426,4.510 241.957,4.720 242.281 C 5.059 242.806,5.101 242.806,5.101 242.281 C 5.101 241.957,4.929 241.426,4.720 241.101 C 4.381 240.577,4.338 240.577,4.338 241.101 M397.140 241.339 C 396.983 241.497,396.865 242.083,396.878 242.642 L 396.903 243.658 397.283 242.708 C 397.692 241.685,397.607 240.872,397.140 241.339 M5.136 244.051 C 5.130 244.484,5.380 245.546,5.692 246.411 C 6.010 247.295,6.263 247.639,6.270 247.198 C 6.276 246.765,6.026 245.703,5.714 244.838 C 5.396 243.954,5.143 243.609,5.136 244.051 M396.142 245.564 C 395.884 246.277,395.685 247.290,395.699 247.816 C 395.714 248.353,395.975 247.842,396.296 246.647 C 396.942 244.247,396.850 243.606,396.142 245.564 M113.274 246.053 C 112.517 246.364,112.340 246.486,112.881 246.324 C 115.569 245.519,281.490 245.784,284.429 246.599 C 285.986 247.030,287.343 247.302,287.443 247.202 C 287.648 246.996,287.462 246.931,284.143 246.057 C 280.704 245.150,115.481 245.147,113.274 246.053 M108.596 247.430 C 107.645 247.852,106.964 248.294,107.082 248.413 C 107.201 248.532,107.625 248.436,108.025 248.201 C 108.424 247.965,109.459 247.523,110.324 247.218 C 111.190 246.913,111.544 246.663,111.111 246.663 C 110.678 246.663,109.546 247.008,108.596 247.430 M290.699 248.995 C 295.988 251.783,300.526 256.151,303.266 261.091 C 303.784 262.026,304.276 262.591,304.357 262.346 C 304.439 262.102,304.222 261.588,303.875 261.205 C 303.528 260.822,303.245 260.336,303.245 260.126 C 303.245 259.676,299.568 255.021,298.314 253.884 C 295.113 250.980,289.497 247.376,288.222 247.407 C 287.940 247.413,289.055 248.128,290.699 248.995 M6.511 249.164 C 6.638 249.597,6.847 250.482,6.975 251.131 C 7.353 253.036,8.225 254.877,8.244 253.809 C 8.253 253.335,8.083 252.838,7.866 252.704 C 7.650 252.570,7.465 252.073,7.455 251.599 C 7.445 251.125,7.177 250.206,6.859 249.558 C 6.541 248.909,6.385 248.732,6.511 249.164 M103.441 250.194 C 99.967 252.384,96.617 255.816,93.889 259.980 C 92.734 261.744,90.666 266.609,90.951 266.893 C 91.071 267.013,91.456 266.244,91.808 265.185 C 93.497 260.100,98.516 253.938,103.787 250.479 C 107.309 248.168,107.026 247.934,103.441 250.194 M395.149 249.230 C 395.005 249.374,394.898 249.861,394.912 250.311 C 394.935 251.065,394.967 251.055,395.314 250.189 C 395.699 249.226,395.619 248.760,395.149 249.230 M394.199 252.576 C 393.513 254.479,393.611 255.355,394.326 253.708 C 394.650 252.962,394.864 252.095,394.802 251.782 C 394.741 251.469,394.469 251.826,394.199 252.576 M8.281 255.064 C 8.276 255.280,8.526 256.165,8.838 257.030 C 9.150 257.896,9.413 258.314,9.422 257.961 C 9.432 257.607,9.181 256.722,8.865 255.994 C 8.549 255.266,8.286 254.848,8.281 255.064 M392.187 258.999 C 391.902 259.787,391.749 260.513,391.848 260.612 C 392.115 260.879,393.023 258.520,392.852 258.006 C 392.771 257.763,392.472 258.210,392.187 258.999 M10.240 261.410 C 10.232 261.656,10.491 262.364,10.814 262.984 C 11.137 263.603,11.396 263.845,11.390 263.520 C 11.376 262.815,10.260 260.767,10.240 261.410 M390.965 262.508 C 390.742 263.093,390.560 263.815,390.560 264.113 C 390.560 264.410,390.383 264.763,390.167 264.897 C 389.951 265.030,389.774 265.424,389.774 265.772 C 389.774 266.120,389.869 266.309,389.986 266.192 C 390.362 265.816,391.732 261.807,391.547 261.623 C 391.449 261.525,391.187 261.923,390.965 262.508 M305.315 265.584 C 305.799 267.016,306.258 268.009,306.335 267.791 C 306.494 267.344,305.287 263.913,304.772 263.349 C 304.587 263.147,304.832 264.152,305.315 265.584 M11.433 264.390 C 11.379 264.957,13.063 269.074,13.266 268.871 C 13.381 268.756,13.217 268.080,12.901 267.369 C 12.584 266.658,12.131 265.634,11.893 265.093 C 11.654 264.553,11.447 264.236,11.433 264.390 M388.953 268.091 C 388.702 268.714,388.311 269.621,388.085 270.108 C 387.860 270.594,387.768 271.085,387.881 271.198 C 387.995 271.312,388.469 270.488,388.935 269.367 C 389.400 268.247,389.698 267.246,389.596 267.144 C 389.494 267.042,389.204 267.468,388.953 268.091 M90.157 269.043 C 89.892 269.893,89.702 271.431,89.734 272.462 C 89.771 273.614,89.846 273.881,89.929 273.156 C 90.004 272.507,90.259 271.033,90.495 269.881 C 91.012 267.363,90.826 266.902,90.157 269.043 M306.615 270.069 C 306.979 272.078,307.178 272.228,307.178 270.492 C 307.178 269.711,306.990 268.957,306.760 268.814 C 306.475 268.638,306.429 269.039,306.615 270.069 M13.691 270.403 C 13.890 270.836,14.151 271.455,14.272 271.780 C 14.461 272.289,14.495 272.286,14.522 271.757 C 14.539 271.419,14.277 270.800,13.941 270.380 C 13.339 269.629,13.335 269.629,13.691 270.403 M387.104 272.579 C 386.842 272.999,386.634 273.566,386.643 273.839 C 386.652 274.113,386.931 273.834,387.264 273.220 C 387.955 271.945,387.825 271.424,387.104 272.579 M307.356 286.529 C 307.356 294.533,307.409 297.751,307.473 293.681 C 307.536 289.611,307.536 283.062,307.472 279.129 C 307.408 275.195,307.356 278.525,307.356 286.529 M15.352 274.586 C 15.345 274.724,15.604 275.343,15.927 275.963 C 16.250 276.583,16.515 276.814,16.517 276.476 C 16.519 275.900,15.379 274.049,15.352 274.586 M385.516 276.432 C 385.046 277.473,384.667 278.489,384.675 278.690 C 384.682 278.891,385.133 278.105,385.676 276.944 C 386.219 275.782,386.598 274.765,386.517 274.685 C 386.437 274.605,385.987 275.391,385.516 276.432 M17.306 278.982 C 17.306 279.050,17.636 279.802,18.041 280.654 C 18.445 281.506,19.087 282.873,19.469 283.692 C 19.850 284.510,20.241 285.101,20.338 285.004 C 20.529 284.813,17.755 278.859,17.475 278.859 C 17.382 278.859,17.306 278.915,17.306 278.982 M381.971 284.036 C 380.662 286.693,379.651 288.927,379.725 289.001 C 379.799 289.075,380.939 286.970,382.258 284.323 C 383.577 281.676,384.588 279.442,384.504 279.359 C 384.421 279.275,383.281 281.380,381.971 284.036 M20.477 285.742 C 20.477 285.959,20.737 286.479,21.055 286.899 C 21.372 287.319,21.632 287.486,21.632 287.269 C 21.632 287.053,21.372 286.532,21.055 286.113 C 20.737 285.693,20.477 285.526,20.477 285.742 M22.872 290.259 C 23.567 291.554,24.190 292.559,24.255 292.493 C 24.462 292.286,22.238 287.941,21.916 287.923 C 21.747 287.913,22.178 288.965,22.872 290.259 M378.729 290.330 C 378.460 290.835,377.890 291.868,377.464 292.625 C 377.037 293.382,376.346 294.621,375.928 295.379 C 375.510 296.136,374.839 297.286,374.437 297.935 C 373.657 299.193,373.393 300.132,374.000 299.489 C 374.641 298.809,379.566 289.759,379.390 289.584 C 379.296 289.489,378.998 289.825,378.729 290.330 M25.096 294.399 C 26.103 296.317,27.526 298.439,27.529 298.026 C 27.531 297.859,27.089 297.022,26.549 296.165 C 26.008 295.308,25.565 294.449,25.565 294.255 C 25.565 294.060,25.274 293.660,24.919 293.365 C 24.415 292.947,24.454 293.175,25.096 294.399 M28.381 299.918 C 28.833 300.685,29.289 301.226,29.394 301.121 C 29.581 300.934,28.023 298.525,27.715 298.525 C 27.629 298.525,27.928 299.152,28.381 299.918 M89.717 300.885 C 89.665 302.218,90.874 304.099,92.660 305.461 L 94.137 306.588 198.113 306.689 C 300.338 306.787,302.113 306.776,303.583 306.026 C 305.266 305.168,307.194 302.878,307.146 301.796 C 307.123 301.274,306.987 301.367,306.642 302.144 C 306.012 303.564,304.530 305.101,303.106 305.812 C 302.091 306.318,288.862 306.391,198.465 306.385 L 94.985 306.378 93.449 305.500 C 91.615 304.451,90.497 303.038,90.070 301.230 C 89.811 300.134,89.749 300.074,89.717 300.885 M30.347 303.065 C 30.799 303.831,31.255 304.373,31.360 304.268 C 31.547 304.081,29.990 301.672,29.682 301.672 C 29.596 301.672,29.895 302.299,30.347 303.065 M371.177 303.301 C 370.216 304.989,370.507 305.068,371.591 303.413 C 372.078 302.672,372.341 302.066,372.177 302.067 C 372.012 302.069,371.563 302.624,371.177 303.301 M32.629 306.686 C 36.059 312.224,46.020 325.122,50.321 329.597 C 52.601 331.969,52.556 331.888,49.693 328.487 C 47.996 326.470,45.648 323.638,44.475 322.194 C 43.302 320.749,42.196 319.508,42.017 319.436 C 41.838 319.364,41.691 319.130,41.691 318.917 C 41.691 318.703,41.470 318.290,41.200 318.000 C 39.949 316.657,36.324 311.604,33.224 306.883 C 31.533 304.308,31.059 304.151,32.629 306.686 M369.138 306.490 C 368.201 308.093,360.552 318.728,359.873 319.371 C 359.759 319.479,359.055 320.364,358.309 321.337 C 357.563 322.311,356.859 323.196,356.746 323.304 C 356.632 323.412,356.298 323.854,356.003 324.287 C 355.709 324.720,356.124 324.366,356.926 323.500 C 358.744 321.540,362.646 316.513,365.169 312.881 C 366.221 311.367,367.867 309.022,368.826 307.670 C 369.786 306.318,370.416 305.211,370.227 305.211 C 370.039 305.211,369.549 305.787,369.138 306.490 M354.666 325.823 C 354.362 326.127,352.759 327.941,351.103 329.854 C 349.447 331.768,345.610 335.794,342.576 338.802 C 339.542 341.810,337.116 344.327,337.185 344.396 C 337.347 344.557,349.555 332.258,351.288 330.187 C 352.013 329.322,352.783 328.437,353.000 328.220 C 354.244 326.978,355.669 325.270,355.461 325.270 C 355.327 325.270,354.970 325.519,354.666 325.823 M56.644 336.517 C 63.209 343.152,77.089 355.337,77.089 354.465 C 77.089 354.285,75.895 353.225,74.435 352.111 C 72.974 350.997,71.236 349.591,70.572 348.986 C 69.908 348.381,68.138 346.826,66.639 345.530 C 65.140 344.234,61.469 340.738,58.482 337.762 C 55.495 334.785,52.932 332.350,52.786 332.350 C 52.641 332.350,54.377 334.225,56.644 336.517 M333.137 347.531 C 327.430 352.592,327.665 352.579,333.841 347.493 C 335.761 345.911,337.083 344.486,336.566 344.554 C 336.519 344.560,334.975 345.900,333.137 347.531 M326.220 353.302 C 325.120 354.217,322.603 356.116,320.627 357.522 C 318.650 358.928,317.028 360.222,317.022 360.397 C 317.011 360.710,318.781 359.467,324.526 355.130 C 327.056 353.220,328.830 351.604,328.367 351.631 C 328.286 351.636,327.320 352.388,326.220 353.302 M77.483 354.934 C 77.483 355.115,83.543 359.578,85.742 361.016 C 87.846 362.392,85.853 360.770,81.955 357.933 C 80.036 356.537,78.407 355.254,78.335 355.082 C 78.201 354.761,77.483 354.637,77.483 354.934 M313.864 362.265 C 312.675 363.106,311.490 363.974,311.232 364.193 C 310.974 364.412,310.043 364.966,309.165 365.424 C 307.706 366.184,306.794 366.962,307.360 366.962 C 307.673 366.962,316.618 361.041,316.618 360.834 C 316.618 360.452,315.906 360.822,313.864 362.265 M87.316 362.042 C 87.316 362.304,94.769 367.221,96.360 368.009 C 96.683 368.169,98.317 369.149,99.991 370.187 C 103.196 372.175,103.852 372.453,103.048 371.485 C 102.779 371.160,102.406 370.895,102.220 370.895 C 102.034 370.895,100.725 370.187,99.312 369.322 C 97.898 368.456,96.582 367.748,96.388 367.748 C 96.193 367.748,95.975 367.609,95.903 367.438 C 95.831 367.267,94.887 366.587,93.805 365.926 C 92.724 365.265,90.821 364.072,89.577 363.274 C 88.333 362.477,87.316 361.922,87.316 362.042 M304.720 368.069 C 303.692 368.640,302.852 369.231,302.852 369.383 C 302.852 369.719,306.293 367.832,306.608 367.323 C 306.896 366.857,306.914 366.850,304.720 368.069 M299.001 371.500 C 298.350 372.238,298.888 372.221,299.879 371.472 C 300.415 371.066,300.474 370.899,300.075 370.910 C 299.763 370.918,299.280 371.183,299.001 371.500 M103.835 372.266 C 103.835 372.371,104.941 373.009,106.293 373.684 C 109.083 375.077,108.934 374.670,106.082 373.107 C 104.159 372.052,103.835 371.931,103.835 372.266 M296.165 372.946 C 294.783 373.766,288.607 376.889,285.827 378.175 C 285.008 378.554,284.415 378.941,284.510 379.036 C 284.728 379.254,297.674 372.891,297.963 372.423 C 298.302 371.874,297.658 372.062,296.165 372.946 M108.948 374.922 C 109.439 375.427,112.488 376.776,112.488 376.488 C 112.488 376.311,111.824 375.910,111.013 375.597 C 110.202 375.284,109.361 374.959,109.145 374.874 C 108.928 374.790,108.840 374.811,108.948 374.922 M114.985 378.020 C 116.251 378.673,117.363 379.130,117.457 379.036 C 117.638 378.855,113.451 376.781,112.969 376.813 C 112.812 376.824,113.720 377.367,114.985 378.020 M120.497 380.533 C 121.117 380.857,121.825 381.115,122.071 381.107 C 122.714 381.087,120.666 379.971,119.961 379.957 C 119.636 379.951,119.878 380.210,120.497 380.533 M280.652 380.543 C 279.681 381.278,280.320 381.270,281.613 380.531 C 282.183 380.205,282.348 379.968,282.006 379.967 C 281.681 379.967,281.072 380.226,280.652 380.543 M278.073 381.495 C 277.748 381.676,276.973 382.026,276.350 382.274 C 275.728 382.521,275.306 382.812,275.414 382.920 C 275.523 383.028,276.563 382.682,277.727 382.151 C 278.891 381.620,279.577 381.181,279.253 381.176 C 278.928 381.171,278.397 381.315,278.073 381.495 M125.414 382.513 C 126.142 382.829,126.850 383.081,126.987 383.074 C 127.499 383.045,125.247 381.936,124.680 381.937 C 124.356 381.938,124.686 382.197,125.414 382.513 M128.810 383.864 C 129.676 384.254,130.826 384.683,131.367 384.816 L 132.350 385.058 131.367 384.600 C 128.512 383.269,128.065 383.090,127.668 383.121 C 127.431 383.139,127.945 383.473,128.810 383.864 M270.796 384.450 C 269.205 385.178,270.160 385.206,271.833 384.480 C 272.561 384.163,272.891 383.906,272.566 383.907 C 272.242 383.909,271.445 384.153,270.796 384.450 M133.333 385.644 C 133.874 385.953,134.671 386.205,135.103 386.205 C 135.646 386.204,135.480 386.025,134.566 385.629 C 132.878 384.896,132.043 384.906,133.333 385.644 M268.043 385.447 C 267.910 385.664,267.412 385.861,266.938 385.886 C 266.309 385.920,266.256 385.979,266.742 386.107 C 267.108 386.204,267.905 386.014,268.512 385.684 C 269.250 385.284,269.396 385.080,268.951 385.070 C 268.586 385.061,268.177 385.231,268.043 385.447 M139.180 387.626 C 139.908 387.942,140.793 388.194,141.146 388.185 C 141.500 388.177,141.194 387.911,140.466 387.595 C 139.738 387.279,138.853 387.028,138.500 387.036 C 138.146 387.045,138.452 387.310,139.180 387.626 M261.554 387.611 C 260.263 388.348,261.099 388.359,262.787 387.626 C 263.701 387.229,263.867 387.051,263.324 387.050 C 262.891 387.049,262.094 387.301,261.554 387.611 M142.576 388.594 C 143.659 389.059,144.044 389.059,143.756 388.594 C 143.622 388.378,143.125 388.213,142.651 388.228 C 141.820 388.255,141.818 388.268,142.576 388.594 M258.014 388.623 C 257.473 388.810,256.234 389.234,255.261 389.567 C 253.393 390.204,254.284 390.123,257.193 389.391 C 259.135 388.903,260.609 388.203,259.587 388.254 C 259.263 388.271,258.555 388.437,258.014 388.623 M145.919 389.598 C 148.201 390.316,148.847 390.298,147.152 389.562 C 146.425 389.246,145.451 388.999,144.989 389.014 C 144.517 389.028,144.924 389.284,145.919 389.598 M148.705 390.308 C 149.169 390.708,151.074 390.947,150.846 390.576 C 150.706 390.351,150.131 390.167,149.567 390.167 C 149.003 390.167,148.615 390.231,148.705 390.308 M251.131 390.560 C 250.997 390.777,250.500 390.955,250.026 390.956 C 248.920 390.959,246.084 391.741,246.321 391.978 C 246.519 392.176,249.443 391.526,251.917 390.733 C 253.271 390.300,253.343 390.225,252.432 390.198 C 251.850 390.181,251.264 390.344,251.131 390.560 M153.353 391.577 C 154.521 391.891,155.555 392.069,155.651 391.973 C 155.886 391.737,153.005 390.952,152.016 390.982 C 151.583 390.995,152.185 391.263,153.353 391.577 M157.522 392.414 C 157.955 392.518,158.477 392.763,158.682 392.959 C 158.888 393.154,159.330 393.308,159.666 393.301 C 160.150 393.291,160.118 393.170,159.512 392.711 C 159.092 392.394,158.295 392.154,157.742 392.179 C 156.930 392.216,156.888 392.262,157.522 392.414 M242.773 392.394 C 242.088 392.671,242.157 393.314,242.871 393.314 C 243.196 393.314,243.461 393.148,243.461 392.946 C 243.461 392.745,243.948 392.506,244.543 392.415 C 245.617 392.253,245.616 392.251,244.444 392.224 C 243.795 392.208,243.043 392.285,242.773 392.394 " stroke="none" fill="#e5927f" fill-rule="evenodd"></path><path id="path3" d="M53.269 57.129 L 52.114 58.407 53.392 57.252 C 54.584 56.175,54.851 55.851,54.548 55.851 C 54.480 55.851,53.905 56.426,53.269 57.129 M68.225 98.033 L 66.273 100.098 68.338 98.147 C 70.257 96.333,70.584 95.969,70.290 95.969 C 70.228 95.969,69.299 96.898,68.225 98.033 M59.490 118.977 C 59.494 119.843,59.574 120.150,59.669 119.661 C 59.763 119.172,59.759 118.464,59.661 118.088 C 59.562 117.712,59.485 118.112,59.490 118.977 M298.115 254.572 C 299.080 255.600,299.920 256.441,299.984 256.441 C 300.279 256.441,299.967 256.087,298.230 254.458 L 296.362 252.704 298.115 254.572 M89.852 287.119 C 89.852 294.366,89.905 297.330,89.970 293.707 C 90.035 290.084,90.035 284.154,89.970 280.531 C 89.905 276.908,89.852 279.872,89.852 287.119 M345.511 336.382 L 343.559 338.446 345.624 336.495 C 347.543 334.681,347.870 334.317,347.576 334.317 C 347.514 334.317,346.585 335.246,345.511 336.382 M340.990 340.905 L 338.840 343.166 341.101 341.016 C 343.202 339.019,343.543 338.643,343.251 338.643 C 343.190 338.643,342.172 339.661,340.990 340.905 M67.257 346.632 C 67.257 346.700,67.832 347.275,68.535 347.911 L 69.813 349.066 68.658 347.788 C 67.581 346.596,67.257 346.329,67.257 346.632 " stroke="none" fill="#e5a495" fill-rule="evenodd"></path><path id="path4" d="M141.200 1.450 C 140.226 1.760,139.122 2.180,138.747 2.383 C 138.371 2.587,137.752 2.759,137.370 2.767 C 136.989 2.775,136.234 3.034,135.693 3.343 C 134.120 4.242,135.187 4.002,140.020 2.368 C 144.200 0.954,145.202 0.175,141.200 1.450 M258.997 1.388 C 261.045 2.126,262.140 2.105,260.427 1.361 C 259.699 1.045,258.725 0.794,258.264 0.804 C 257.720 0.815,257.980 1.021,258.997 1.388 M265.093 3.343 C 266.913 4.044,267.499 4.044,266.273 3.343 C 265.733 3.034,264.936 2.788,264.503 2.797 C 263.988 2.808,264.192 2.996,265.093 3.343 M132.547 4.317 C 132.222 4.503,131.376 4.870,130.666 5.134 C 129.956 5.397,129.435 5.672,129.508 5.746 C 129.639 5.876,134.158 4.359,134.480 4.077 C 134.818 3.781,133.113 3.993,132.547 4.317 M267.486 4.077 C 267.869 4.413,272.341 5.863,272.500 5.704 C 272.714 5.490,270.761 4.720,270.007 4.720 C 269.710 4.720,269.357 4.543,269.223 4.326 C 269.090 4.110,268.607 3.933,268.151 3.933 C 267.695 3.933,267.396 3.998,267.486 4.077 M127.040 6.522 C 126.494 6.826,126.319 7.064,126.647 7.060 C 126.971 7.055,127.679 6.799,128.220 6.490 C 128.761 6.181,128.938 5.939,128.614 5.952 C 128.289 5.966,127.581 6.222,127.040 6.522 M273.943 6.486 C 277.574 8.135,282.006 9.749,282.006 9.423 C 282.006 9.216,281.811 9.046,281.574 9.046 C 281.336 9.046,280.495 8.763,279.705 8.416 C 275.632 6.629,273.720 5.896,273.207 5.925 C 272.963 5.939,273.294 6.191,273.943 6.486 M123.304 8.093 C 122.222 8.623,121.691 8.948,122.124 8.815 C 124.117 8.201,125.301 7.732,125.644 7.419 C 126.310 6.814,125.345 7.091,123.304 8.093 M117.994 10.226 C 117.670 10.416,115.850 11.316,113.952 12.224 C 112.053 13.132,110.567 13.943,110.649 14.025 C 110.732 14.108,112.817 13.207,115.282 12.023 C 117.747 10.838,119.499 9.871,119.174 9.874 C 118.850 9.877,118.319 10.035,117.994 10.226 M283.579 10.500 C 284.336 10.858,286.359 11.825,288.074 12.650 C 289.789 13.475,291.259 14.083,291.342 14.001 C 291.553 13.789,283.350 9.831,282.722 9.842 C 282.436 9.847,282.822 10.143,283.579 10.500 M107.571 15.365 C 106.490 15.996,104.808 16.912,103.835 17.400 C 102.861 17.889,101.976 18.397,101.868 18.531 C 101.760 18.664,101.273 18.897,100.787 19.049 C 100.300 19.201,99.902 19.487,99.902 19.685 C 99.902 19.884,100.565 19.671,101.377 19.212 C 102.188 18.754,104.356 17.581,106.195 16.606 C 109.563 14.819,110.617 14.133,109.912 14.189 C 109.706 14.205,108.653 14.734,107.571 15.365 M291.839 14.347 C 291.839 14.589,295.082 16.160,295.245 15.997 C 295.364 15.878,292.326 14.159,291.998 14.159 C 291.911 14.159,291.839 14.244,291.839 14.347 M295.988 16.471 C 296.194 16.661,297.424 17.397,298.722 18.106 C 300.020 18.816,301.742 19.811,302.549 20.318 C 304.241 21.380,304.729 21.489,304.031 20.649 C 303.762 20.324,303.412 20.059,303.253 20.059 C 303.094 20.059,301.426 19.174,299.547 18.092 C 296.302 16.225,295.158 15.704,295.988 16.471 M97.525 20.944 C 96.766 21.431,95.850 22.006,95.489 22.222 C 90.789 25.039,80.730 31.928,79.171 33.399 C 78.693 33.850,78.199 34.218,78.073 34.218 C 77.946 34.218,77.629 34.399,77.368 34.619 C 76.609 35.259,75.209 36.406,73.461 37.821 C 70.092 40.548,68.539 41.876,65.315 44.789 C 61.156 48.547,55.107 54.521,52.295 57.648 C 48.817 61.515,45.575 65.244,44.699 66.388 C 44.249 66.974,43.775 67.542,43.645 67.650 C 43.515 67.758,42.625 68.909,41.667 70.206 C 40.709 71.504,39.822 72.655,39.695 72.763 C 39.223 73.165,33.038 81.801,33.038 82.058 C 33.038 82.205,32.578 82.929,32.015 83.666 C 31.453 84.404,31.054 85.066,31.130 85.137 C 31.206 85.208,33.481 82.150,36.185 78.341 C 44.880 66.092,58.298 50.958,66.238 44.444 C 67.161 43.687,69.317 41.856,71.028 40.374 C 77.267 34.973,87.731 27.472,97.017 21.744 C 98.495 20.832,99.525 20.079,99.305 20.072 C 99.084 20.065,98.284 20.457,97.525 20.944 M305.408 21.870 C 306.826 22.963,307.796 23.271,306.588 22.245 C 305.939 21.694,305.231 21.248,305.015 21.253 C 304.798 21.259,304.975 21.537,305.408 21.870 M308.181 23.525 C 308.386 23.700,310.147 24.889,312.094 26.167 C 315.692 28.529,322.552 33.365,322.911 33.792 C 323.019 33.921,323.815 34.549,324.680 35.188 C 334.778 42.642,349.065 56.685,358.308 68.240 C 359.692 69.971,361.522 72.243,362.373 73.289 C 363.974 75.258,370.154 84.345,372.409 88.047 C 373.116 89.206,373.787 90.061,373.902 89.946 C 374.017 89.831,373.741 89.192,373.289 88.526 C 372.838 87.861,372.114 86.792,371.681 86.152 C 371.249 85.511,370.895 84.818,370.895 84.611 C 370.895 84.404,370.762 84.176,370.600 84.104 C 370.438 84.031,369.344 82.557,368.169 80.826 C 365.815 77.359,361.946 72.073,361.167 71.260 C 360.893 70.974,360.667 70.620,360.665 70.473 C 360.663 70.327,360.088 69.587,359.387 68.830 C 358.686 68.073,357.493 66.641,356.735 65.649 C 351.874 59.279,336.828 44.230,330.422 39.331 C 329.432 38.574,328.000 37.392,327.241 36.704 C 324.643 34.352,308.852 23.206,308.116 23.206 C 307.946 23.206,307.975 23.349,308.181 23.525 M29.781 86.978 C 28.820 88.666,29.110 88.745,30.195 87.091 C 30.681 86.349,30.945 85.743,30.780 85.745 C 30.616 85.746,30.167 86.301,29.781 86.978 M27.786 90.170 C 27.386 90.871,26.523 92.419,25.870 93.609 C 25.217 94.798,24.527 95.940,24.337 96.146 C 24.148 96.351,23.992 96.700,23.992 96.921 C 23.992 97.444,24.610 96.523,27.071 92.330 C 28.182 90.438,28.961 88.890,28.803 88.891 C 28.645 88.893,28.187 89.468,27.786 90.170 M91.740 89.182 C 93.850 89.253,97.301 89.253,99.410 89.182 C 101.519 89.111,99.794 89.054,95.575 89.054 C 91.357 89.054,89.631 89.111,91.740 89.182 M317.130 89.182 C 319.250 89.253,322.613 89.253,324.603 89.182 C 326.592 89.110,324.857 89.052,320.747 89.053 C 316.637 89.053,315.009 89.111,317.130 89.182 M83.776 89.676 L 82.793 89.990 83.776 89.983 C 84.317 89.979,85.290 89.841,85.939 89.676 L 87.119 89.375 85.939 89.368 C 85.290 89.364,84.317 89.502,83.776 89.676 M103.835 89.464 C 103.835 89.564,104.508 89.826,105.331 90.048 C 108.331 90.856,110.940 94.101,111.830 98.132 C 111.969 98.763,112.011 98.724,112.045 97.935 C 112.111 96.385,110.395 93.138,108.744 91.688 C 106.926 90.092,103.835 88.691,103.835 89.464 M308.948 89.676 L 307.768 89.976 308.948 89.983 C 309.597 89.987,310.570 89.849,311.111 89.676 L 312.094 89.361 311.111 89.368 C 310.570 89.372,309.597 89.510,308.948 89.676 M330.661 90.110 C 333.070 91.036,336.043 94.080,336.430 96.016 C 336.569 96.708,336.787 97.169,336.915 97.041 C 338.403 95.553,332.125 89.211,329.254 89.303 C 328.902 89.314,329.535 89.677,330.661 90.110 M80.039 90.673 C 79.390 90.970,79.125 91.213,79.449 91.213 C 79.774 91.213,80.570 90.970,81.219 90.673 C 81.868 90.376,82.134 90.133,81.809 90.133 C 81.485 90.133,80.688 90.376,80.039 90.673 M305.408 90.673 C 303.820 91.400,304.770 91.401,306.445 90.674 C 307.172 90.358,307.502 90.107,307.178 90.116 C 306.853 90.125,306.057 90.376,305.408 90.673 M374.873 92.031 C 375.358 92.894,375.832 93.523,375.926 93.428 C 376.116 93.238,374.483 90.462,374.181 90.462 C 374.076 90.462,374.388 91.168,374.873 92.031 M76.561 92.081 C 75.729 92.520,75.119 92.950,75.206 93.036 C 75.377 93.207,78.663 91.657,78.663 91.404 C 78.663 91.098,78.050 91.296,76.561 92.081 M300.853 92.653 C 295.596 95.457,290.902 100.251,288.231 105.544 C 287.591 106.811,287.138 107.918,287.224 108.004 C 287.309 108.089,288.071 106.788,288.917 105.112 C 291.085 100.813,296.691 95.216,300.983 93.063 C 302.660 92.222,304.031 91.470,304.031 91.392 C 304.031 91.058,303.293 91.351,300.853 92.653 M72.541 94.550 C 69.933 96.306,65.376 101.218,63.987 103.770 C 62.497 106.507,62.876 106.345,64.637 103.492 C 66.609 100.297,69.266 97.439,72.225 95.327 C 74.401 93.774,75.036 93.215,74.626 93.215 C 74.569 93.215,73.631 93.816,72.541 94.550 M377.222 96.067 C 377.878 97.203,380.171 101.672,382.318 105.998 C 384.464 110.324,386.224 113.661,386.227 113.413 C 386.243 112.326,376.890 94.002,376.320 94.002 C 376.160 94.002,376.566 94.931,377.222 96.067 M22.835 98.968 C 22.372 99.752,22.058 100.458,22.136 100.537 C 22.215 100.615,22.676 99.974,23.161 99.111 C 24.262 97.151,23.980 97.027,22.835 98.968 M337.244 109.145 C 337.244 115.634,337.298 118.344,337.364 115.167 C 337.430 111.989,337.430 106.680,337.364 103.367 C 337.298 100.055,337.244 102.655,337.244 109.145 M19.294 105.891 C 17.984 108.585,16.923 110.950,16.936 111.147 C 16.948 111.343,18.094 109.214,19.482 106.414 C 20.870 103.614,21.931 101.249,21.840 101.158 C 21.749 101.068,20.603 103.197,19.294 105.891 M61.826 108.072 C 60.888 110.252,59.642 115.405,59.880 116.119 C 59.968 116.383,60.261 115.453,60.530 114.052 C 61.050 111.357,61.892 108.579,62.580 107.294 C 62.808 106.869,62.915 106.442,62.819 106.346 C 62.723 106.249,62.276 107.026,61.826 108.072 M286.421 109.833 C 285.752 111.685,285.845 112.186,286.554 110.551 C 286.876 109.810,287.086 109.045,287.021 108.851 C 286.957 108.658,286.687 109.099,286.421 109.833 M15.709 113.526 C 15.239 114.577,14.601 116.057,14.291 116.814 C 13.981 117.571,13.559 118.498,13.354 118.874 C 13.148 119.249,12.985 119.869,12.991 120.250 C 12.997 120.632,13.702 119.263,14.558 117.207 C 15.413 115.152,16.305 113.144,16.540 112.744 C 16.775 112.345,16.876 111.927,16.765 111.816 C 16.655 111.705,16.179 112.475,15.709 113.526 M285.367 113.882 C 285.216 114.885,285.182 115.795,285.290 115.903 C 285.398 116.011,285.610 115.279,285.760 114.275 C 285.911 113.272,285.945 112.363,285.837 112.255 C 285.729 112.147,285.517 112.879,285.367 113.882 M387.021 116.131 C 387.021 116.241,387.285 116.838,387.608 117.457 C 388.117 118.434,388.196 118.473,388.198 117.747 C 388.199 117.287,387.935 116.690,387.611 116.421 C 387.286 116.152,387.021 116.021,387.021 116.131 M284.858 118.977 C 284.863 119.843,284.943 120.150,285.037 119.661 C 285.131 119.172,285.128 118.464,285.029 118.088 C 284.931 117.712,284.854 118.112,284.858 118.977 M388.201 118.910 C 388.201 119.024,389.518 122.404,390.374 124.484 C 390.552 124.916,391.002 126.155,391.375 127.237 C 391.748 128.319,392.071 128.936,392.093 128.608 C 392.116 128.280,391.766 127.042,391.318 125.855 C 390.869 124.668,390.355 123.255,390.177 122.714 C 389.388 120.328,388.201 118.041,388.201 118.910 M111.621 120.944 C 111.479 121.593,111.251 122.478,111.114 122.911 C 110.977 123.343,111.152 123.200,111.504 122.593 C 111.855 121.986,112.084 121.101,112.011 120.626 C 111.899 119.899,111.838 119.949,111.621 120.944 M59.804 121.252 C 59.707 124.594,65.233 129.486,68.961 129.357 C 70.085 129.318,70.044 129.282,68.542 128.985 C 64.766 128.240,61.886 125.910,60.596 122.555 C 60.172 121.453,59.815 120.866,59.804 121.252 M12.158 122.171 C 11.194 124.561,11.055 124.933,10.412 126.844 C 10.048 127.925,9.610 129.164,9.440 129.597 C 8.483 132.023,7.867 134.042,7.876 134.723 C 7.884 135.351,11.247 126.220,12.081 123.304 C 12.205 122.871,12.483 122.292,12.699 122.016 C 12.915 121.740,12.984 121.408,12.853 121.277 C 12.723 121.146,12.410 121.549,12.158 122.171 M285.152 121.547 C 285.152 123.045,287.871 126.966,289.522 127.850 C 289.919 128.063,289.377 127.369,288.316 126.308 C 287.055 125.047,286.237 123.820,285.952 122.760 C 285.540 121.234,285.152 120.644,285.152 121.547 M336.316 122.761 C 336.014 123.768,335.097 125.118,333.903 126.311 C 332.844 127.370,332.298 128.065,332.689 127.856 C 334.560 126.855,337.710 122.043,336.975 121.308 C 336.880 121.213,336.583 121.867,336.316 122.761 M108.739 126.076 C 106.832 128.022,106.303 128.283,102.852 128.983 C 101.380 129.281,101.358 129.305,102.507 129.351 C 105.051 129.453,108.410 127.707,110.120 125.394 C 111.455 123.588,110.915 123.855,108.739 126.076 M291.642 128.790 C 292.291 129.106,293.441 129.352,294.199 129.337 L 295.575 129.310 294.199 129.017 C 293.441 128.856,292.291 128.610,291.642 128.470 L 290.462 128.216 291.642 128.790 M330.245 128.490 C 330.097 128.638,329.227 128.881,328.311 129.031 C 326.697 129.294,326.689 129.303,328.024 129.333 C 329.362 129.364,332.381 128.316,331.137 128.252 C 330.795 128.235,330.393 128.342,330.245 128.490 M392.334 129.990 C 392.480 130.423,392.890 131.662,393.245 132.743 C 393.649 133.973,393.944 134.436,394.033 133.980 C 394.110 133.578,393.980 133.056,393.744 132.820 C 393.507 132.583,393.314 132.016,393.314 131.560 C 393.314 131.104,393.034 130.387,392.692 129.967 C 392.078 129.214,392.073 129.215,392.334 129.990 M394.318 135.890 C 394.468 136.323,394.728 137.207,394.895 137.856 C 395.174 138.936,395.202 138.953,395.226 138.053 C 395.241 137.512,394.981 136.627,394.649 136.087 C 394.249 135.434,394.138 135.368,394.318 135.890 M7.332 135.996 C 7.046 136.460,6.275 139.497,6.062 141.003 C 5.970 141.652,6.160 141.298,6.484 140.216 C 6.808 139.135,7.249 137.730,7.463 137.096 C 7.845 135.964,7.765 135.295,7.332 135.996 M395.404 139.774 C 395.545 140.142,395.970 141.720,396.348 143.280 C 396.725 144.840,397.098 145.792,397.176 145.397 C 397.253 145.001,397.131 144.204,396.904 143.627 C 396.678 143.049,396.376 141.911,396.235 141.097 C 396.093 140.283,395.791 139.502,395.562 139.361 C 395.301 139.200,395.242 139.353,395.404 139.774 M5.109 144.013 C 4.861 144.953,4.473 146.366,4.247 147.152 C 4.022 147.938,3.912 148.807,4.004 149.082 C 4.096 149.358,4.402 148.538,4.684 147.260 C 4.966 145.982,5.379 144.444,5.601 143.842 C 5.824 143.240,5.906 142.648,5.783 142.525 C 5.661 142.403,5.358 143.072,5.109 144.013 M397.413 147.493 C 397.564 148.033,397.950 149.715,398.272 151.229 C 398.989 154.598,399.256 155.280,399.044 153.196 C 398.780 150.616,398.002 147.324,397.556 146.903 C 397.266 146.629,397.223 146.807,397.413 147.493 M3.210 151.764 C 2.959 152.602,2.774 153.797,2.799 154.421 C 2.830 155.186,2.898 155.299,3.008 154.769 C 3.098 154.336,3.368 153.225,3.607 152.299 C 4.157 150.172,3.822 149.721,3.210 151.764 M399.213 156.099 C 399.213 156.532,399.390 156.995,399.607 157.129 C 399.823 157.263,400.000 157.018,400.000 156.585 C 400.000 156.153,399.823 155.689,399.607 155.556 C 399.390 155.422,399.213 155.666,399.213 156.099 M2.186 156.591 C 1.636 159.003,1.060 162.840,0.953 164.798 C 0.816 167.306,0.937 166.913,1.557 162.832 C 1.803 161.209,2.193 159.032,2.423 157.993 C 2.654 156.953,2.742 156.003,2.620 155.881 C 2.498 155.759,2.303 156.079,2.186 156.591 M0.262 167.814 C -0.150 168.226,-0.044 169.912,0.393 169.912 C 0.610 169.912,0.787 169.381,0.787 168.732 C 0.787 167.510,0.707 167.369,0.262 167.814 M0.000 221.193 C 0.000 221.733,0.177 222.285,0.393 222.419 C 0.615 222.556,0.787 222.234,0.787 221.679 C 0.787 221.138,0.610 220.586,0.393 220.452 C 0.171 220.315,0.000 220.637,0.000 221.193 M0.997 225.565 C 1.086 226.863,1.332 228.722,1.545 229.695 C 1.912 231.368,1.920 231.335,1.700 229.105 C 1.317 225.223,0.797 222.603,0.997 225.565 M2.006 232.720 C 1.984 233.410,2.144 234.085,2.360 234.218 C 2.812 234.498,2.812 233.861,2.360 232.448 C 2.059 231.509,2.043 231.522,2.006 232.720 M399.500 233.473 C 399.342 233.630,399.219 234.128,399.225 234.579 C 399.236 235.335,399.269 235.344,399.646 234.695 C 400.086 233.939,399.974 232.999,399.500 233.473 M2.787 235.792 C 2.756 237.045,3.489 240.104,3.756 239.837 C 3.843 239.749,3.667 238.538,3.365 237.145 C 3.018 235.545,2.805 235.046,2.787 235.792 M398.879 236.185 C 398.847 236.401,398.574 237.729,398.274 239.135 C 397.973 240.541,397.618 242.222,397.485 242.871 L 397.242 244.051 397.817 242.871 C 398.133 242.222,398.399 241.193,398.409 240.584 C 398.419 239.975,398.615 239.125,398.844 238.696 C 399.074 238.267,399.189 237.438,399.100 236.854 C 399.011 236.270,398.911 235.969,398.879 236.185 M3.967 241.766 C 3.948 242.457,4.087 243.116,4.275 243.232 C 4.462 243.349,4.733 244.325,4.876 245.403 C 5.019 246.480,5.338 247.487,5.585 247.639 C 5.893 247.830,5.943 247.681,5.743 247.164 C 5.583 246.750,5.292 245.615,5.097 244.641 C 4.901 243.668,4.575 242.340,4.371 241.691 L 4.001 240.511 3.967 241.766 M396.747 245.428 C 396.054 248.816,396.040 249.159,396.666 247.466 C 397.012 246.532,397.235 245.381,397.162 244.909 C 397.061 244.260,396.961 244.386,396.747 245.428 M112.881 246.647 C 100.825 249.747,89.744 262.631,90.111 273.121 C 90.136 273.825,90.369 273.162,90.665 271.547 C 92.179 263.275,98.258 253.852,104.031 250.825 C 109.282 248.072,110.446 247.634,115.241 246.608 C 117.327 246.162,118.067 245.892,117.207 245.891 C 116.450 245.890,114.503 246.230,112.881 246.647 M280.826 246.425 C 284.162 247.113,285.499 247.099,282.989 246.402 C 281.908 246.101,280.403 245.865,279.646 245.877 C 278.610 245.893,278.903 246.029,280.826 246.425 M287.512 247.935 C 287.512 248.015,288.618 248.612,289.971 249.261 C 296.602 252.441,302.338 258.821,304.834 265.791 C 305.319 267.148,305.798 268.178,305.896 268.080 C 306.188 267.788,304.487 263.566,302.959 260.791 C 300.858 256.974,295.270 251.588,291.202 249.459 C 288.165 247.869,287.512 247.600,287.512 247.935 M5.931 249.436 C 5.914 250.018,6.053 250.589,6.241 250.706 C 6.429 250.822,6.698 251.636,6.839 252.516 C 6.979 253.395,7.251 254.417,7.442 254.786 C 7.633 255.155,8.012 256.210,8.285 257.131 C 8.557 258.051,8.859 258.725,8.956 258.629 C 9.112 258.473,7.940 254.362,6.482 249.951 C 6.031 248.587,5.958 248.518,5.931 249.436 M395.291 250.934 C 395.020 251.908,394.618 253.196,394.397 253.798 C 394.175 254.400,394.094 254.993,394.217 255.115 C 394.339 255.237,394.648 254.568,394.903 253.627 C 395.158 252.687,395.545 251.537,395.763 251.071 C 395.980 250.606,396.074 249.986,395.971 249.695 C 395.868 249.403,395.562 249.961,395.291 250.934 M393.753 255.917 C 393.728 256.169,393.592 256.700,393.452 257.097 C 393.255 257.656,393.307 257.716,393.686 257.367 C 393.954 257.120,394.090 256.589,393.986 256.187 C 393.883 255.786,393.778 255.664,393.753 255.917 M392.654 259.452 C 392.400 260.279,392.253 261.017,392.328 261.092 C 392.622 261.386,393.356 259.499,393.240 258.747 C 393.151 258.169,392.989 258.364,392.654 259.452 M9.060 259.662 C 9.052 260.028,9.223 260.437,9.440 260.570 C 9.656 260.704,9.839 261.201,9.847 261.675 C 9.864 262.747,10.978 264.838,10.999 263.838 C 11.007 263.473,10.836 263.064,10.619 262.930 C 10.403 262.796,10.220 262.299,10.212 261.825 C 10.195 260.754,9.081 258.662,9.060 259.662 M391.279 263.324 C 390.923 264.405,390.498 265.629,390.333 266.043 C 390.132 266.547,390.175 266.708,390.463 266.530 C 390.700 266.384,391.016 265.691,391.166 264.991 C 391.315 264.290,391.609 263.504,391.818 263.244 C 392.028 262.984,392.137 262.453,392.062 262.064 C 391.980 261.643,391.664 262.152,391.279 263.324 M11.815 267.280 C 11.806 267.725,12.059 268.433,12.377 268.853 C 13.119 269.834,13.129 269.461,12.405 267.793 C 11.981 266.817,11.826 266.683,11.815 267.280 M389.641 267.733 C 389.513 268.120,389.145 269.138,388.822 269.995 C 388.500 270.852,388.312 271.629,388.404 271.721 C 388.496 271.813,388.759 271.378,388.987 270.753 C 389.215 270.128,389.598 269.124,389.837 268.522 C 390.077 267.920,390.183 267.338,390.073 267.228 C 389.964 267.119,389.769 267.346,389.641 267.733 M306.065 270.010 C 306.059 270.659,306.205 271.544,306.391 271.976 C 306.853 273.052,306.853 271.256,306.391 269.813 C 306.084 268.854,306.076 268.859,306.065 270.010 M13.005 270.113 C 12.991 270.387,13.130 270.918,13.315 271.293 C 13.681 272.038,14.657 274.284,16.346 278.269 C 17.637 281.313,22.585 291.108,22.944 291.330 C 23.144 291.454,23.234 291.398,23.145 291.205 C 23.055 291.013,21.660 288.198,20.045 284.949 C 18.430 281.701,16.701 278.073,16.202 276.886 C 13.793 271.158,13.033 269.547,13.005 270.113 M387.497 273.130 C 386.839 274.576,386.901 274.879,387.640 273.824 C 387.981 273.337,388.195 272.747,388.117 272.512 C 388.038 272.276,387.760 272.555,387.497 273.130 M306.962 286.726 C 306.962 294.405,307.015 297.547,307.079 293.707 C 307.143 289.867,307.143 283.584,307.079 279.744 C 307.015 275.905,306.962 279.046,306.962 286.726 M385.848 276.994 C 385.343 278.128,384.517 279.927,384.012 280.992 C 383.506 282.057,383.172 283.008,383.269 283.105 C 383.366 283.203,384.000 282.066,384.678 280.579 C 385.355 279.092,386.183 277.295,386.517 276.584 C 386.850 275.873,387.043 275.211,386.944 275.112 C 386.845 275.013,386.352 275.860,385.848 276.994 M381.986 285.179 C 381.499 286.091,381.172 286.908,381.259 286.995 C 381.501 287.237,383.137 284.317,382.996 283.893 C 382.927 283.688,382.473 284.267,381.986 285.179 M379.843 289.379 C 379.287 290.407,378.402 292.045,377.878 293.019 C 377.354 293.992,376.012 296.382,374.897 298.328 C 373.781 300.275,373.288 301.361,373.802 300.740 C 374.315 300.120,375.119 298.881,375.588 297.987 C 376.058 297.093,376.809 295.742,377.258 294.985 C 378.932 292.162,381.160 287.814,381.010 287.664 C 380.925 287.578,380.400 288.350,379.843 289.379 M23.206 291.943 C 23.206 292.285,24.965 295.452,26.534 297.935 C 27.217 299.017,27.900 300.167,28.052 300.492 C 28.203 300.816,28.635 301.547,29.011 302.115 C 29.387 302.683,30.312 304.143,31.065 305.360 C 31.819 306.576,32.557 307.571,32.706 307.571 C 32.855 307.571,31.514 305.226,29.726 302.360 C 27.938 299.494,25.895 296.087,25.186 294.789 C 23.906 292.447,23.206 291.440,23.206 291.943 M90.089 300.368 C 90.014 302.105,91.810 304.476,94.085 305.643 C 95.508 306.373,98.073 306.391,198.524 306.391 L 301.505 306.391 303.257 305.506 C 305.028 304.611,306.811 302.475,306.753 301.318 C 306.734 300.945,306.528 301.122,306.249 301.751 C 305.990 302.335,305.340 303.280,304.806 303.850 C 302.652 306.149,310.160 305.998,198.280 305.997 L 95.379 305.995 94.002 305.165 C 92.152 304.049,91.527 303.338,90.758 301.475 C 90.401 300.610,90.100 300.111,90.089 300.368 M371.743 303.425 C 371.291 304.191,370.992 304.818,371.078 304.818 C 371.386 304.818,372.943 302.409,372.756 302.222 C 372.651 302.117,372.196 302.658,371.743 303.425 M368.309 308.653 C 359.839 321.140,344.169 339.173,336.502 345.257 C 335.649 345.934,335.030 346.567,335.127 346.664 C 335.566 347.103,346.947 335.989,352.221 329.970 C 357.451 324.002,361.769 318.645,364.208 315.097 C 364.749 314.311,365.590 313.227,366.077 312.688 C 366.563 312.150,366.962 311.501,366.962 311.246 C 366.962 310.992,367.094 310.724,367.257 310.652 C 367.703 310.454,370.989 305.568,370.802 305.381 C 370.712 305.291,369.590 306.764,368.309 308.653 M33.038 308.077 C 33.038 308.440,36.566 313.417,37.024 313.700 C 37.242 313.835,36.499 312.644,35.373 311.053 C 33.017 307.727,33.038 307.754,33.038 308.077 M38.776 316.224 C 39.593 317.414,41.248 319.622,42.452 321.131 C 43.656 322.640,44.907 324.211,45.231 324.623 C 45.556 325.035,46.406 326.012,47.120 326.796 C 47.835 327.579,48.985 328.921,49.677 329.778 C 51.196 331.660,63.278 343.833,65.487 345.706 C 66.352 346.440,67.859 347.762,68.836 348.643 C 69.813 349.525,71.390 350.865,72.342 351.622 C 73.294 352.380,74.265 353.178,74.499 353.397 C 75.273 354.117,80.017 357.719,81.121 358.423 C 83.248 359.781,82.138 358.771,78.171 355.739 C 64.834 345.545,52.532 333.359,42.085 319.990 C 37.860 314.584,36.887 313.476,38.776 316.224 M330.383 350.526 C 328.112 352.447,325.052 354.918,323.583 356.017 C 322.113 357.115,320.997 358.100,321.101 358.204 C 321.206 358.309,322.143 357.701,323.183 356.853 C 326.726 353.967,328.945 352.213,329.804 351.622 C 331.097 350.732,334.841 347.291,334.666 347.154 C 334.582 347.087,332.655 348.605,330.383 350.526 M318.821 359.508 C 315.731 361.812,307.310 367.292,302.557 370.092 C 300.988 371.016,299.705 371.857,299.705 371.961 C 299.705 372.064,300.457 371.710,301.377 371.173 C 302.296 370.636,303.933 369.707,305.015 369.109 C 306.096 368.512,307.070 367.915,307.178 367.783 C 307.286 367.652,308.038 367.196,308.850 366.770 C 309.661 366.344,310.324 365.859,310.324 365.692 C 310.324 365.525,310.481 365.388,310.673 365.388 C 310.994 365.388,315.776 362.354,316.224 361.866 C 316.332 361.748,317.306 361.046,318.387 360.305 C 320.846 358.622,320.713 358.733,320.515 358.535 C 320.423 358.444,319.661 358.881,318.821 359.508 M82.601 359.357 C 82.605 359.628,88.420 363.782,90.770 365.192 C 91.130 365.408,92.460 366.249,93.725 367.060 C 94.989 367.871,96.097 368.535,96.185 368.535 C 96.274 368.535,97.338 369.169,98.550 369.944 C 99.762 370.720,100.828 371.279,100.920 371.188 C 101.011 371.096,99.094 369.814,96.659 368.337 C 91.672 365.313,87.232 362.422,84.464 360.396 C 83.437 359.644,82.598 359.176,82.601 359.357 M101.475 371.466 C 101.475 371.758,106.614 374.539,106.804 374.349 C 106.901 374.253,106.494 373.927,105.899 373.625 C 105.305 373.323,104.158 372.674,103.351 372.182 C 101.884 371.288,101.475 371.132,101.475 371.466 M296.235 373.535 C 294.867 374.287,293.828 374.982,293.926 375.080 C 294.100 375.254,297.154 373.675,298.711 372.607 C 300.127 371.636,298.758 372.149,296.235 373.535 M107.391 374.725 C 107.417 375.195,120.713 381.514,121.675 381.514 C 121.944 381.514,122.373 381.724,122.629 381.980 C 122.885 382.236,123.208 382.331,123.348 382.191 C 123.488 382.051,123.093 381.729,122.470 381.474 C 118.664 379.917,114.577 378.047,110.524 376.009 C 108.792 375.138,107.382 374.561,107.391 374.725 M291.249 376.128 C 290.383 376.580,287.463 377.973,284.759 379.225 C 282.055 380.476,280.051 381.503,280.306 381.507 C 280.964 381.517,291.536 376.630,293.019 375.631 C 294.030 374.949,292.898 375.267,291.249 376.128 M277.286 382.513 C 275.919 383.102,275.440 383.451,275.985 383.462 C 276.459 383.473,276.947 383.317,277.071 383.118 C 277.194 382.918,277.824 382.639,278.471 382.497 C 279.117 382.355,279.646 382.075,279.646 381.876 C 279.646 381.677,279.602 381.530,279.548 381.549 C 279.494 381.567,278.476 382.002,277.286 382.513 M124.680 382.861 C 125.221 383.186,125.929 383.454,126.254 383.455 C 127.043 383.458,126.108 382.907,124.680 382.529 L 123.697 382.268 124.680 382.861 M127.166 383.760 C 127.454 384.225,131.358 385.588,131.628 385.317 C 131.724 385.221,131.041 384.876,130.110 384.550 C 129.179 384.224,128.078 383.820,127.664 383.652 C 127.173 383.453,127.000 383.491,127.166 383.760 M272.173 384.480 C 270.805 385.068,270.327 385.417,270.872 385.429 C 271.346 385.439,271.843 385.270,271.976 385.054 C 272.110 384.838,272.529 384.661,272.908 384.661 C 273.286 384.661,273.940 384.401,274.359 384.083 C 275.444 383.263,274.679 383.402,272.173 384.480 M132.940 386.037 C 133.481 386.347,134.311 386.606,134.785 386.613 C 135.259 386.621,135.756 386.804,135.890 387.021 C 136.024 387.237,136.432 387.408,136.798 387.400 C 137.798 387.379,135.706 386.265,134.635 386.248 C 134.161 386.240,133.664 386.057,133.530 385.841 C 133.396 385.624,132.988 385.454,132.622 385.461 C 132.137 385.471,132.224 385.628,132.940 386.037 M266.863 386.359 C 265.448 386.847,264.786 387.234,265.211 387.326 C 265.600 387.410,266.131 387.308,266.391 387.099 C 266.651 386.889,267.437 386.596,268.137 386.446 C 268.838 386.296,269.512 386.010,269.635 385.810 C 269.927 385.339,269.682 385.387,266.863 386.359 M138.190 387.710 C 138.336 387.947,139.029 388.252,139.729 388.390 C 140.430 388.527,141.357 388.791,141.790 388.975 C 143.486 389.698,146.703 390.558,147.567 390.520 C 148.338 390.486,148.297 390.430,147.296 390.152 C 146.647 389.972,145.497 389.644,144.739 389.422 C 143.982 389.201,142.478 388.763,141.396 388.450 C 140.315 388.137,139.091 387.746,138.677 387.581 C 138.172 387.379,138.012 387.422,138.190 387.710 M261.947 388.029 C 261.079 388.357,260.861 388.551,261.357 388.554 C 261.790 388.556,262.675 388.315,263.324 388.018 C 264.825 387.331,263.771 387.339,261.947 388.029 M256.834 389.619 C 255.211 390.138,254.415 390.489,255.064 390.399 C 256.829 390.154,259.733 389.318,260.157 388.933 C 260.698 388.442,260.183 388.549,256.834 389.619 M148.885 390.906 C 149.310 391.356,152.177 392.081,154.572 392.344 C 155.329 392.427,154.710 392.175,153.196 391.783 C 151.681 391.390,150.000 390.935,149.459 390.771 C 148.749 390.555,148.589 390.592,148.885 390.906 M249.361 391.582 C 246.093 392.481,246.904 392.603,250.660 391.778 C 252.615 391.349,254.443 390.547,253.294 390.624 C 252.970 390.645,251.200 391.076,249.361 391.582 M156.735 392.920 C 156.869 393.137,157.244 393.314,157.569 393.314 C 157.893 393.314,158.049 393.137,157.915 392.920 C 157.782 392.704,157.407 392.527,157.082 392.527 C 156.758 392.527,156.602 392.704,156.735 392.920 M244.051 392.920 C 243.742 393.421,244.653 393.421,245.428 392.920 C 245.907 392.610,245.857 392.538,245.156 392.533 C 244.682 392.530,244.185 392.704,244.051 392.920 " stroke="none" fill="#e7b4a8" fill-rule="evenodd"></path></g></svg>